<svg width="161" height="154" viewBox="0 0 161 154" fill="none" xmlns="http://www.w3.org/2000/svg">
<path d="M47.9719 152.88H108.515C108.11 145.99 113.993 141.594 119.349 138.778C126.084 135.237 132.953 131.689 138.58 126.07C144.206 120.449 148.507 112.327 148.354 103.638C148.184 94.0747 142.834 85.7597 140.959 76.4545C138.738 65.4334 141.52 54.0026 142.993 42.8074C144.466 31.6121 144.179 18.7848 137.38 10.773C131.784 4.17384 123.152 2.62888 115.253 3.29331C107.354 3.95774 99.592 6.46063 91.6741 6.51223C82.483 6.57352 73.5383 3.34169 64.4814 1.49033C55.4244 -0.361037 45.5817 -0.677124 37.6035 4.7028C28.7327 10.6859 23.7334 23.7132 25.7786 35.5116C27.2023 43.7266 31.6376 51.0998 31.9963 59.4761C32.2947 66.4494 29.7047 73.1388 26.6492 79.1219C21.6526 88.9109 15.1966 97.8451 11.9988 108.631C8.8009 119.416 9.8988 133.202 17.8113 139.807C26.2522 146.848 41.5762 143.307 47.9719 152.88Z" fill="#ECF0F7"/>
<path d="M118.93 42.7911L129.965 19.2444L131.542 20.8555L120.086 45.6415L118.93 42.7911Z" fill="white"/>
<path d="M61.368 141.666C61.3927 141.66 61.4174 141.65 61.4394 141.637C61.6288 141.537 61.7167 141.275 61.6288 141.049C39.376 82.4079 20.4897 41.4892 8.45164 25.8299C8.18529 25.4807 7.99032 25.2317 7.91344 25.1024C7.79262 24.9019 7.55647 24.8534 7.38623 24.9925C7.21598 25.1347 7.17479 25.4096 7.29287 25.6133C7.39721 25.7879 7.58393 26.0304 7.88873 26.4281C19.8774 42.0195 38.717 82.8573 60.9396 141.417C61.0165 141.611 61.1977 141.712 61.368 141.666Z" fill="#7BE1C9"/>
<path d="M1.02398 23.7636C2.43812 25.5129 8.88276 28.1352 9.30563 27.6599C9.7285 27.1846 7.8146 19.4794 6.40046 17.7301C4.98632 15.9809 2.63582 15.9162 1.15303 17.5814C-0.3325 19.2498 -0.390165 22.0176 1.02398 23.7636Z" fill="#7BE1C9"/>
<path d="M13.3587 27.8604C13.0182 30.2984 15.1627 38.1135 15.7558 38.2267C16.3462 38.3431 20.5118 31.7534 20.855 29.3154C21.1955 26.8775 19.7951 24.5753 17.7274 24.1743C15.657 23.7734 13.7019 25.4224 13.3587 27.8604Z" fill="#7BE1C9"/>
<path d="M7.67174 42.9603C9.76412 42.8051 15.7475 38.579 15.709 37.8774C15.6706 37.1725 9.28359 33.8777 7.18847 34.0329C5.09609 34.1881 3.50621 36.3156 3.63801 38.7795C3.77256 41.2466 5.57936 43.1155 7.67174 42.9603Z" fill="#7BE1C9"/>
<path d="M35.5756 65.5941C34.6311 69.5873 37.0145 83.0867 37.9811 83.4036C38.9504 83.7205 46.9135 73.6161 47.8581 69.6229C48.8027 65.6296 46.8174 61.4909 43.4262 60.3786C40.035 59.2663 36.5202 61.6008 35.5756 65.5941Z" fill="#7BE1C9"/>
<path d="M23.765 89.5826C27.2825 89.7669 37.9146 83.9953 37.9586 82.8119C38.0025 81.6285 27.8481 74.7672 24.3306 74.5829C20.8131 74.3986 17.8338 77.6061 17.6773 81.7481C17.5208 85.8901 20.2475 89.3983 23.765 89.5826Z" fill="#7BE1C9"/>
<path d="M46.3223 79.4751C44.2821 83.9437 44.0377 100.812 45.1196 101.498C46.2015 102.183 58.0226 92.648 60.0628 88.1794C62.103 83.7109 60.6834 78.1397 56.8886 75.7373C53.0937 73.3317 48.3625 75.0066 46.3223 79.4751Z" fill="#7BE1C9"/>
<path d="M29.1446 111.127C33.4446 110.829 45.771 102.225 45.6996 100.78C45.6282 99.3346 32.533 92.4863 28.2329 92.7837C23.9328 93.0812 20.6487 97.4269 20.9013 102.494C21.1512 107.56 24.8417 111.424 29.1446 111.127Z" fill="#7BE1C9"/>
<path d="M54.118 98.5133C52.0778 102.982 51.8334 119.85 52.9153 120.536C53.9972 121.221 65.8183 111.686 67.8585 107.218C69.8987 102.749 68.4791 97.1779 64.6842 94.7755C60.8894 92.3731 56.1582 94.048 54.118 98.5133Z" fill="#7BE1C9"/>
<path d="M36.9402 130.168C41.2403 129.871 53.5667 121.267 53.4953 119.821C53.4239 118.376 40.3287 111.528 36.0286 111.825C31.7285 112.123 28.4444 116.468 28.697 121.535C28.9469 126.602 32.6374 130.466 36.9402 130.168Z" fill="#7BE1C9"/>
<path d="M69.1741 121.645C65.8406 124.862 60.1593 140.347 60.9391 141.469C61.719 142.588 75.7313 139.073 79.0648 135.856C82.3984 132.638 82.8844 126.851 80.155 122.929C77.42 119.003 72.5049 118.428 69.1741 121.645Z" fill="#7BE1C9"/>
<path d="M44.0632 149.093C48.3633 149.433 61.5024 142.711 61.5848 141.265C61.6672 139.82 49.4012 131.099 45.1039 130.76C40.8038 130.42 37.0858 134.252 36.8003 139.312C36.5119 144.376 39.7631 148.754 44.0632 149.093Z" fill="#7BE1C9"/>
<path d="M20.2233 39.617C19.8773 42.0938 22.0575 50.0318 22.6589 50.1482C23.2602 50.2646 27.4917 43.5715 27.8404 41.0947C28.1864 38.6179 26.764 36.2802 24.6606 35.8727C22.5573 35.4653 20.572 37.1402 20.2233 39.617Z" fill="#7BE1C9"/>
<path d="M14.7369 55.0694C16.865 54.911 22.9416 50.6202 22.9032 49.9057C22.8648 49.1911 16.3734 45.8413 14.2454 45.9997C12.1173 46.1582 10.5027 48.3181 10.64 50.824C10.7745 53.3266 12.6088 55.2278 14.7369 55.0694Z" fill="#7BE1C9"/>
<path d="M27.7664 50.3583C27.0305 53.8181 29.3315 65.3581 30.1718 65.607C31.0093 65.856 37.6653 56.9577 38.4012 53.5012C39.1371 50.0415 37.355 46.5365 34.4169 45.6699C31.4816 44.8001 28.5023 46.9018 27.7664 50.3583Z" fill="#7BE1C9"/>
<path d="M18.6114 72.5329C21.6319 72.3066 30.2677 66.2116 30.2128 65.1963C30.1579 64.181 20.9372 59.4215 17.9139 59.6478C14.8934 59.8742 12.5978 62.9427 12.7901 66.4994C12.985 70.0561 15.5909 72.7592 18.6114 72.5329Z" fill="#7BE1C9"/>
<path d="M117.535 130.543C117.524 130.537 117.513 130.527 117.502 130.517C117.419 130.44 117.406 130.298 117.471 130.197C134.804 104.628 148.555 87.2901 156.189 81.3795C156.359 81.2469 156.48 81.1532 156.532 81.1014C156.614 81.0206 156.735 81.0303 156.804 81.1273C156.872 81.2243 156.864 81.3666 156.782 81.4474C156.71 81.5185 156.595 81.6091 156.4 81.761C148.799 87.6458 135.078 104.948 117.771 130.482C117.716 130.566 117.614 130.592 117.535 130.543Z" fill="#7BE1C9"/>
<path d="M160.077 81.483C159.19 82.1329 155.727 82.4562 155.571 82.1588C155.414 81.8613 157.194 78.3498 158.081 77.6999C158.968 77.05 160.135 77.3701 160.684 78.4145C161.236 79.4589 160.964 80.8331 160.077 81.483Z" fill="#7BE1C9"/>
<path d="M153.55 81.6446C153.454 82.8992 151.548 86.4268 151.244 86.3945C150.939 86.3621 149.599 82.4885 149.695 81.234C149.791 79.9794 150.73 79.0579 151.795 79.1711C152.861 79.2843 153.646 80.3933 153.55 81.6446Z" fill="#7BE1C9"/>
<path d="M154.717 89.9448C153.701 89.5536 151.211 86.5692 151.304 86.2297C151.4 85.8869 154.907 85.2241 155.923 85.6153C156.939 86.0066 157.491 87.2934 157.159 88.4898C156.826 89.6862 155.733 90.3393 154.717 89.9448Z" fill="#7BE1C9"/>
<path d="M138.503 96.9128C138.536 99.0242 135.897 105.323 135.386 105.333C134.875 105.342 132.044 99.1632 132.011 97.0518C131.978 94.9404 133.406 93.1976 135.199 93.1588C136.992 93.12 138.472 94.8014 138.503 96.9128Z" fill="#7BE1C9"/>
<path d="M141.726 110.516C139.972 110.079 135.356 105.633 135.463 105.041C135.57 104.453 141.32 102.597 143.074 103.034C144.829 103.47 145.949 105.501 145.576 107.567C145.205 109.633 143.481 110.952 141.726 110.516Z" fill="#7BE1C9"/>
<path d="M131.698 102.138C132.22 104.647 130.512 113.002 129.902 113.177C129.292 113.351 124.501 106.872 123.979 104.362C123.457 101.853 124.762 99.3183 126.893 98.704C129.026 98.0929 131.176 99.6288 131.698 102.138Z" fill="#7BE1C9"/>
<path d="M136.736 120.329C134.647 119.537 129.504 113.442 129.696 112.737C129.888 112.035 137.088 110.629 139.175 111.421C141.264 112.213 142.409 114.852 141.737 117.309C141.064 119.773 138.826 121.124 136.736 120.329Z" fill="#7BE1C9"/>
<path d="M125.789 110.354C126.311 112.863 124.603 121.218 123.993 121.393C123.384 121.567 118.592 115.088 118.07 112.579C117.548 110.069 118.853 107.534 120.984 106.92C123.114 106.306 125.267 107.845 125.789 110.354Z" fill="#7BE1C9"/>
<path d="M130.827 128.545C128.738 127.753 123.595 121.658 123.787 120.953C123.979 120.251 131.179 118.845 133.266 119.637C135.355 120.429 136.5 123.068 135.828 125.525C135.155 127.989 132.917 129.34 130.827 128.545Z" fill="#7BE1C9"/>
<path d="M115.86 119.495C117.153 121.58 118.276 130.071 117.771 130.508C117.266 130.944 110.736 127.103 109.443 125.014C108.149 122.929 108.536 119.999 110.308 118.476C112.079 116.953 114.564 117.409 115.86 119.495Z" fill="#7BE1C9"/>
<path d="M125.262 136.806C123.107 136.328 117.354 131.038 117.472 130.31C117.588 129.586 124.581 127.129 126.737 127.611C128.892 128.089 130.312 130.537 129.903 133.078C129.499 135.616 127.421 137.285 125.262 136.806Z" fill="#7BE1C9"/>
<path d="M148.891 86.4107C148.795 87.6846 146.856 91.2705 146.548 91.2381C146.241 91.2058 144.879 87.2675 144.975 85.9968C145.071 84.7229 146.027 83.7852 147.109 83.8984C148.191 84.0115 148.99 85.1367 148.891 86.4107Z" fill="#7BE1C9"/>
<path d="M149.92 94.8563C148.888 94.4586 146.356 91.4289 146.452 91.0829C146.548 90.7369 150.113 90.0611 151.145 90.4589C152.178 90.8566 152.738 92.1661 152.4 93.3786C152.062 94.5911 150.953 95.254 149.92 94.8563Z" fill="#7BE1C9"/>
<path d="M144.005 90.572C143.994 92.3892 141.605 97.734 141.166 97.7275C140.726 97.7243 138.409 92.3374 138.42 90.5203C138.431 88.7031 139.691 87.2448 141.234 87.2578C142.777 87.2739 144.019 88.7581 144.005 90.572Z" fill="#7BE1C9"/>
<path d="M146.114 102.882C144.648 102.316 141.051 98.0122 141.188 97.5175C141.325 97.026 146.389 96.0657 147.855 96.6315C149.321 97.1974 150.118 99.0566 149.637 100.78C149.159 102.51 147.58 103.448 146.114 102.882Z" fill="#7BE1C9"/>
<path d="M96.1365 142.19C96.1365 142.19 79.2601 108.268 133.066 84.1632C133.066 84.1665 132.023 153.975 96.1365 142.19Z" fill="#95E7D4"/>
<path d="M133.135 84.0566L94.6703 137.547C92.1963 127.507 91.2709 102.81 133.135 84.0566Z" fill="#7BE1C9"/>
<path d="M96.2931 135.49C96.2546 135.49 96.2135 135.474 96.1805 135.442C96.1064 135.367 96.0981 135.241 96.1613 135.154L133.003 83.9241C133.066 83.8368 133.176 83.8271 133.247 83.9014C133.322 83.9758 133.33 84.1019 133.267 84.1892L96.4249 135.419C96.3919 135.468 96.3425 135.49 96.2931 135.49Z" fill="#1C2A47"/>
<path d="M113.902 111.004C113.817 111.004 113.743 110.929 113.732 110.826C113.718 110.713 113.787 110.613 113.88 110.596L129.576 108.12C129.669 108.1 129.757 108.181 129.771 108.294C129.785 108.407 129.716 108.508 129.623 108.524L113.927 111.001C113.916 111.004 113.908 111.004 113.902 111.004Z" fill="#1C2A47"/>
<path d="M106.011 121.978C106 121.978 105.986 121.978 105.976 121.975C105.882 121.952 105.822 121.845 105.841 121.732L108.941 103.793C108.96 103.683 109.054 103.612 109.147 103.635C109.24 103.658 109.301 103.764 109.282 103.877L106.181 121.816C106.165 121.913 106.091 121.978 106.011 121.978Z" fill="#1C2A47"/>
<path d="M91.8882 144.379C91.8882 144.379 95.3672 116.368 134.823 131.335C134.823 131.332 107.556 170.016 91.8882 144.379Z" fill="#7BE1C9"/>
<path d="M134.823 131.332L91.8882 144.376C91.8882 144.379 103.619 171.501 134.823 131.332Z" fill="#3A6B5F"/>
<path d="M123.628 139.888C123.623 139.888 123.617 139.888 123.609 139.885L113.584 137.479C113.507 137.46 113.457 137.372 113.474 137.285C113.49 137.194 113.564 137.139 113.639 137.156L123.664 139.561C123.741 139.581 123.79 139.668 123.774 139.755C123.763 139.839 123.7 139.894 123.628 139.888Z" fill="#7BE1C9"/>
<path d="M109.399 147.881C109.388 147.881 109.377 147.877 109.369 147.874L96.4381 143.141C96.364 143.115 96.3228 143.021 96.3448 142.934C96.3667 142.846 96.4464 142.798 96.5205 142.824L109.451 147.557C109.525 147.583 109.566 147.677 109.544 147.764C109.525 147.842 109.465 147.887 109.399 147.881Z" fill="#7BE1C9"/>
<path d="M54.5164 142.853C54.5164 142.853 70.3878 110.949 19.7834 88.2794C19.7862 88.2794 20.7665 153.937 54.5164 142.853Z" fill="#7BE1C9"/>
<path d="M19.7197 88.176L55.897 138.484C58.2228 129.043 59.0933 105.814 19.7197 88.176Z" fill="#95E7D4"/>
<path d="M54.3708 136.564C54.3214 136.564 54.272 136.538 54.239 136.493L19.5884 88.3085C19.528 88.2212 19.5363 88.0919 19.6077 88.0207C19.6818 87.9496 19.7889 87.9593 19.8521 88.0434L54.5027 136.227C54.5631 136.315 54.5548 136.444 54.4834 136.515C54.4505 136.548 54.4093 136.564 54.3708 136.564Z" fill="#1C2A47"/>
<path d="M37.8106 113.536C37.8023 113.536 37.7941 113.536 37.7859 113.532L23.0239 111.204C22.9278 111.188 22.8619 111.088 22.8756 110.975C22.8893 110.862 22.9772 110.781 23.0705 110.8L37.8325 113.128C37.9286 113.144 37.9945 113.245 37.9808 113.358C37.9698 113.461 37.8957 113.536 37.8106 113.536Z" fill="#1C2A47"/>
<path d="M45.2323 123.856C45.1527 123.856 45.0785 123.789 45.062 123.692L42.1459 106.82C42.1267 106.71 42.1871 106.6 42.2804 106.577C42.3711 106.555 42.4672 106.626 42.4864 106.736L45.4025 123.608C45.4218 123.717 45.3614 123.827 45.268 123.85C45.2543 123.856 45.2433 123.856 45.2323 123.856Z" fill="#1C2A47"/>
<path d="M58.5124 144.909C58.5124 144.909 55.2393 118.564 18.1311 132.642C18.1338 132.642 43.7779 169.024 58.5124 144.909Z" fill="#3A6B5F"/>
<path d="M18.1338 132.642L58.5151 144.909C58.5123 144.909 47.482 170.421 18.1338 132.642Z" fill="#95E7D4"/>
<path d="M28.662 140.69C28.6675 140.69 28.6729 140.69 28.6784 140.686L38.1079 138.423C38.1793 138.407 38.226 138.323 38.2122 138.239C38.1985 138.155 38.1271 138.103 38.0557 138.116L28.6263 140.379C28.5549 140.395 28.5082 140.479 28.5219 140.564C28.5357 140.641 28.5961 140.693 28.662 140.69Z" fill="#3A6B5F"/>
<path d="M42.0428 148.207C42.0538 148.207 42.062 148.204 42.073 148.201L54.2346 143.748C54.3033 143.723 54.3417 143.635 54.3225 143.554C54.3005 143.474 54.2264 143.425 54.1577 143.451L41.9961 147.903C41.9275 147.929 41.889 148.016 41.9083 148.097C41.9275 148.168 41.9852 148.211 42.0428 148.207Z" fill="#3A6B5F"/>
<path d="M69.9839 23.6374C69.6407 23.9802 69.3139 24.3456 69.0064 24.7336C66.4746 27.9055 66.6394 33.4217 63.1274 35.5622C60.6149 37.0948 57.6026 35.8047 54.7826 35.5654C52.7012 35.3876 50.5402 35.837 48.7855 37.1692C47.0336 38.5014 45.7486 40.7874 45.6881 43.2415C45.6277 45.6536 46.6904 47.917 46.8634 50.3194C47.0199 52.5084 46.3938 54.7621 45.1637 56.4176C43.8511 58.1862 41.9702 59.208 40.4188 60.6857C38.8673 62.1633 37.5795 64.5269 38.1836 66.7677C38.8316 69.1701 41.3112 70.2694 42.1926 72.5651C43.1399 75.0355 41.9427 77.8259 41.0778 80.335C40.2128 82.8441 39.9163 86.3135 41.8796 87.7233C42.75 88.3506 43.8402 88.3538 44.8561 88.2439C45.5261 88.1695 46.2401 88.0596 46.8442 88.412C47.2094 88.6254 47.4949 88.9843 47.7503 89.3562C49.2825 91.5743 50.282 94.6298 52.5694 95.5901C53.7501 96.0849 55.0489 95.8941 56.2901 95.6871C58.885 95.2539 61.6144 94.7042 63.6299 92.7286C67.1227 89.3012 67.2572 82.87 70.2832 78.8735C72.6941 75.6886 76.5137 74.6022 80.119 74.1883C83.7244 73.7744 87.4479 73.8423 90.8253 72.3C92.8463 71.3785 94.6806 69.8879 96.1304 67.9931C97.0833 66.745 97.8988 65.2383 97.9867 63.5634C98.1761 59.9452 95.0595 57.2324 94.4417 53.6821C93.9419 50.8044 94.8618 48.0172 94.8975 45.1524C94.9305 42.3459 93.8266 39.5878 92.8848 37.056C90.9764 31.9376 87.89 24.4361 83.6009 21.6101C79.3502 18.81 73.6085 20.0031 69.9839 23.6374Z" fill="#1C2A47"/>
<mask id="path-54-inside-1_1635_1548" fill="white">
<path fill-rule="evenodd" clip-rule="evenodd" d="M126.738 58.0732L130.185 64.3879L123.522 70.2228L123.523 70.2241C123.523 70.2241 114.028 94.5974 105.364 94.7914C96.7009 94.9887 90.2041 83.6104 90.3716 83.0219C90.5391 82.4334 96.0364 75.5398 96.0364 75.5398H98.8674V75.543C98.8674 75.543 102.865 81.8482 106.196 81.8482C109.094 81.8482 118.047 69.2262 120.325 65.9453C120.354 65.8894 121.539 63.6006 122.669 61.606C122.737 61.463 124.459 57.8479 125.479 56.7894C126.519 55.7094 128.002 54.6327 128.178 55.0724C128.261 55.2813 127.76 56.1996 127.13 57.3528C127.003 57.5847 126.871 57.8262 126.738 58.0732ZM50.2235 93.9605C49.6002 91.9008 55.0151 84.4576 55.0151 84.4576L47.376 75.5399C47.376 75.5399 39.9786 84.9846 39.6051 91.1636C39.2499 96.9988 53.6046 114.772 56.0959 117.856C56.2427 118.038 56.3483 118.169 56.4073 118.243C56.7738 118.705 57.0437 119.55 57.2401 120.457C57.0572 121.723 56.5877 123.471 55.4926 125.67C54.4437 127.778 55.6354 133.773 56.1708 133.767C56.7063 133.76 56.4729 130.094 56.4729 130.094C56.4729 130.094 56.8738 134.669 57.5493 134.643C58.2248 134.614 57.8651 129.9 57.8651 129.9C57.8651 129.9 58.4774 134.872 59.1666 134.581C59.8558 134.287 59.6279 129.628 59.6279 129.628C59.6279 129.628 60.5286 134.944 60.902 134.271C61.139 133.844 61.1913 131.947 61.2337 130.411V130.411C61.2581 129.526 61.2792 128.761 61.3304 128.467C61.3998 128.068 61.8795 126.745 62.3985 125.314L62.3986 125.313L62.3988 125.313L62.3989 125.313C62.5723 124.834 62.7501 124.344 62.9185 123.872C63.0909 124.151 63.3087 124.931 63.5422 125.768C63.8929 127.024 64.279 128.407 64.6004 128.412C65.0312 128.419 64.9256 126.629 64.8331 125.062C64.8019 124.532 64.7721 124.027 64.7651 123.627C64.7377 122.046 62.6371 117.891 62.6371 117.891L62.637 117.891C62.1694 116.896 61.6232 115.863 61.1431 114.993C60.0859 112.803 57.9597 108.839 55.8596 104.924C53.1791 99.9274 50.5411 95.0099 50.2235 93.9605Z"/>
</mask>
<path fill-rule="evenodd" clip-rule="evenodd" d="M126.738 58.0732L130.185 64.3879L123.522 70.2228L123.523 70.2241C123.523 70.2241 114.028 94.5974 105.364 94.7914C96.7009 94.9887 90.2041 83.6104 90.3716 83.0219C90.5391 82.4334 96.0364 75.5398 96.0364 75.5398H98.8674V75.543C98.8674 75.543 102.865 81.8482 106.196 81.8482C109.094 81.8482 118.047 69.2262 120.325 65.9453C120.354 65.8894 121.539 63.6006 122.669 61.606C122.737 61.463 124.459 57.8479 125.479 56.7894C126.519 55.7094 128.002 54.6327 128.178 55.0724C128.261 55.2813 127.76 56.1996 127.13 57.3528C127.003 57.5847 126.871 57.8262 126.738 58.0732ZM50.2235 93.9605C49.6002 91.9008 55.0151 84.4576 55.0151 84.4576L47.376 75.5399C47.376 75.5399 39.9786 84.9846 39.6051 91.1636C39.2499 96.9988 53.6046 114.772 56.0959 117.856C56.2427 118.038 56.3483 118.169 56.4073 118.243C56.7738 118.705 57.0437 119.55 57.2401 120.457C57.0572 121.723 56.5877 123.471 55.4926 125.67C54.4437 127.778 55.6354 133.773 56.1708 133.767C56.7063 133.76 56.4729 130.094 56.4729 130.094C56.4729 130.094 56.8738 134.669 57.5493 134.643C58.2248 134.614 57.8651 129.9 57.8651 129.9C57.8651 129.9 58.4774 134.872 59.1666 134.581C59.8558 134.287 59.6279 129.628 59.6279 129.628C59.6279 129.628 60.5286 134.944 60.902 134.271C61.139 133.844 61.1913 131.947 61.2337 130.411V130.411C61.2581 129.526 61.2792 128.761 61.3304 128.467C61.3998 128.068 61.8795 126.745 62.3985 125.314L62.3986 125.313L62.3988 125.313L62.3989 125.313C62.5723 124.834 62.7501 124.344 62.9185 123.872C63.0909 124.151 63.3087 124.931 63.5422 125.768C63.8929 127.024 64.279 128.407 64.6004 128.412C65.0312 128.419 64.9256 126.629 64.8331 125.062C64.8019 124.532 64.7721 124.027 64.7651 123.627C64.7377 122.046 62.6371 117.891 62.6371 117.891L62.637 117.891C62.1694 116.896 61.6232 115.863 61.1431 114.993C60.0859 112.803 57.9597 108.839 55.8596 104.924C53.1791 99.9274 50.5411 95.0099 50.2235 93.9605Z" fill="#B5C4E2"/>
<path d="M126.738 58.0732L125.858 57.5983L125.6 58.076L125.86 58.5524L126.738 58.0732ZM130.185 64.3879L130.844 65.1402L131.447 64.6122L131.063 63.9087L130.185 64.3879ZM123.522 70.2228L122.863 69.4705L122.269 69.991L122.638 70.6897L123.522 70.2228ZM123.523 70.2241L124.455 70.5871L124.621 70.1613L124.407 69.7572L123.523 70.2241ZM105.364 94.7914L105.342 93.7917L105.341 93.7917L105.364 94.7914ZM90.3716 83.0219L89.4098 82.7481L89.4098 82.7481L90.3716 83.0219ZM96.0364 75.5398V74.5398H95.5548L95.2545 74.9163L96.0364 75.5398ZM98.8674 75.5398H99.8674V74.5398H98.8674V75.5398ZM98.8674 75.543H97.8674V75.8334L98.0229 76.0786L98.8674 75.543ZM120.325 65.9453L121.146 66.5157L121.183 66.4625L121.213 66.405L120.325 65.9453ZM122.669 61.606L123.539 62.0989L123.557 62.0675L123.572 62.0349L122.669 61.606ZM125.479 56.7894L124.758 56.0955L124.758 56.0955L125.479 56.7894ZM128.178 55.0724L127.249 55.4435L127.249 55.4435L128.178 55.0724ZM127.13 57.3528L128.007 57.8322L128.007 57.8322L127.13 57.3528ZM55.0151 84.4576L55.8238 85.0458L56.2886 84.407L55.7746 83.807L55.0151 84.4576ZM50.2235 93.9605L49.2664 94.2502L49.2664 94.2502L50.2235 93.9605ZM47.376 75.5399L48.1355 74.8893L47.3414 73.9623L46.5888 74.9232L47.376 75.5399ZM39.6051 91.1636L40.6033 91.2244L40.6033 91.224L39.6051 91.1636ZM56.0959 117.856L55.318 118.485L55.318 118.485L56.0959 117.856ZM56.4073 118.243L57.1906 117.622L57.1906 117.622L56.4073 118.243ZM57.2401 120.457L58.2298 120.6L58.2556 120.422L58.2175 120.246L57.2401 120.457ZM55.4926 125.67L54.5974 125.224L54.5973 125.225L55.4926 125.67ZM56.4729 130.094L57.4691 130.006L55.4749 130.157L56.4729 130.094ZM57.5493 134.643L57.5875 135.642L57.5923 135.642L57.5493 134.643ZM57.8651 129.9L58.8576 129.777L56.868 129.976L57.8651 129.9ZM59.1666 134.581L59.5556 135.503L59.5592 135.501L59.1666 134.581ZM59.6279 129.628L60.6139 129.461L58.6291 129.677L59.6279 129.628ZM60.902 134.271L61.7763 134.757L61.7763 134.757L60.902 134.271ZM61.2337 130.411L62.2333 130.439L62.2337 130.425V130.411H61.2337ZM61.2337 130.411L60.2341 130.384L60.2337 130.397V130.411H61.2337ZM61.3304 128.467L60.3452 128.296L60.3452 128.296L61.3304 128.467ZM62.3985 125.314L61.4603 124.967L61.4583 124.973L62.3985 125.314ZM62.3986 125.313L61.4623 124.962L61.4605 124.967L62.3986 125.313ZM62.3989 125.313L63.3353 125.664L63.339 125.653L62.3989 125.313ZM62.9185 123.872L63.7695 123.347L62.6761 121.574L61.9766 123.536L62.9185 123.872ZM63.5422 125.768L64.5054 125.499L64.5054 125.499L63.5422 125.768ZM64.6004 128.412L64.5836 129.412L64.5836 129.412L64.6004 128.412ZM64.8331 125.062L65.8314 125.004L65.8314 125.004L64.8331 125.062ZM64.7651 123.627L65.765 123.609L65.765 123.609L64.7651 123.627ZM62.6371 117.891L63.5295 117.44L61.8763 114.17L61.6392 117.826L62.6371 117.891ZM62.637 117.891L61.7319 118.317L63.6349 117.956L62.637 117.891ZM61.1431 114.993L60.2425 115.428L60.2544 115.453L60.2676 115.477L61.1431 114.993ZM55.8596 104.924L56.7408 104.452L56.7408 104.452L55.8596 104.924ZM125.86 58.5524L129.307 64.867L131.063 63.9087L127.616 57.5941L125.86 58.5524ZM129.526 63.6356L122.863 69.4705L124.181 70.9751L130.844 65.1402L129.526 63.6356ZM122.638 70.6897L122.639 70.691L124.407 69.7572L124.407 69.7559L122.638 70.6897ZM123.523 70.2241C122.591 69.8611 122.591 69.8611 122.591 69.8611C122.591 69.8612 122.591 69.8614 122.591 69.8617C122.591 69.8622 122.59 69.8631 122.59 69.8644C122.589 69.867 122.587 69.871 122.585 69.8765C122.581 69.8875 122.574 69.9042 122.565 69.9264C122.548 69.971 122.521 70.0378 122.486 70.1254C122.416 70.3007 122.311 70.559 122.174 70.8887C121.901 71.5481 121.5 72.4922 120.991 73.6265C119.974 75.8971 118.53 78.9199 116.822 81.9431C115.109 84.9744 113.153 87.9653 111.117 90.1972C109.041 92.474 107.07 93.753 105.342 93.7917L105.387 95.7912C107.99 95.7329 110.454 93.8925 112.595 91.5447C114.777 89.1521 116.819 86.0132 118.563 82.927C120.311 79.8325 121.783 76.7499 122.816 74.4445C123.334 73.2907 123.742 72.3291 124.022 71.6549C124.162 71.3177 124.269 71.0522 124.342 70.8703C124.379 70.7794 124.407 70.7093 124.425 70.6616C124.435 70.6378 124.442 70.6195 124.447 70.607C124.449 70.6008 124.451 70.596 124.453 70.5927C124.453 70.591 124.454 70.5897 124.454 70.5888C124.454 70.5883 124.454 70.5879 124.454 70.5877C124.455 70.5873 124.455 70.5871 123.523 70.2241ZM105.341 93.7917C101.449 93.8803 97.9177 91.3522 95.2892 88.5209C93.9938 87.1255 92.9638 85.7051 92.2718 84.6045C91.9252 84.0535 91.6705 83.5938 91.5116 83.2672C91.431 83.1015 91.3837 82.9875 91.3609 82.9226C91.349 82.8886 91.3514 82.8891 91.3564 82.9146C91.359 82.9277 91.3655 82.9633 91.3677 83.0142C91.3695 83.0575 91.371 83.1633 91.3334 83.2956L89.4098 82.7481C89.3352 83.0102 89.3822 83.2409 89.3941 83.3014C89.4144 83.4044 89.4448 83.5022 89.4734 83.5838C89.5316 83.7501 89.6152 83.9407 89.7131 84.142C89.9114 84.5496 90.2043 85.0739 90.5787 85.6692C91.3284 86.8614 92.4327 88.3836 93.8235 89.8817C96.5674 92.8373 100.616 95.8998 105.387 95.7912L105.341 93.7917ZM91.3334 83.2956C91.3029 83.4026 91.2657 83.4468 91.3213 83.3536C91.3565 83.2947 91.412 83.2085 91.4902 83.0934C91.6455 82.8649 91.8648 82.5597 92.1315 82.199C92.6633 81.4796 93.3604 80.5701 94.0566 79.6735C94.7519 78.778 95.4424 77.9003 95.9594 77.2462C96.2178 76.9192 96.4327 76.6483 96.5829 76.4592C96.658 76.3646 96.7169 76.2905 96.757 76.2402C96.7771 76.215 96.7924 76.1957 96.8027 76.1827C96.8079 76.1763 96.8118 76.1714 96.8144 76.1681C96.8157 76.1665 96.8166 76.1653 96.8173 76.1645C96.8176 76.1641 96.8178 76.1638 96.818 76.1636C96.8181 76.1635 96.8181 76.1634 96.8182 76.1633C96.8182 76.1633 96.8182 76.1633 96.0364 75.5398C95.2545 74.9163 95.2545 74.9164 95.2545 74.9164C95.2544 74.9165 95.2543 74.9166 95.2543 74.9167C95.2541 74.9169 95.2538 74.9172 95.2535 74.9177C95.2528 74.9185 95.2518 74.9198 95.2504 74.9215C95.2477 74.9249 95.2437 74.9299 95.2385 74.9365C95.228 74.9496 95.2125 74.9691 95.1922 74.9946C95.1517 75.0455 95.0924 75.1201 95.0168 75.2152C94.8657 75.4054 94.6498 75.6776 94.3902 76.0061C93.8712 76.6629 93.1769 77.5454 92.4769 78.4469C91.7779 79.3472 91.0693 80.2714 90.5232 81.0101C90.251 81.3784 90.0134 81.7083 89.8359 81.9694C89.7478 82.0991 89.668 82.2214 89.6043 82.3281C89.561 82.4006 89.4612 82.5676 89.4098 82.7481L91.3334 83.2956ZM96.0364 76.5398H98.8674V74.5398H96.0364V76.5398ZM97.8674 75.5398V75.543H99.8674V75.5398H97.8674ZM98.8674 75.543C98.0229 76.0786 98.023 76.0787 98.0231 76.0789C98.0232 76.079 98.0233 76.0793 98.0235 76.0795C98.0237 76.0799 98.024 76.0804 98.0244 76.081C98.0252 76.0821 98.0262 76.0837 98.0274 76.0856C98.0299 76.0895 98.0333 76.0949 98.0377 76.1017C98.0465 76.1154 98.0591 76.1349 98.0753 76.1598C98.1078 76.2097 98.155 76.2813 98.2156 76.3716C98.3369 76.5521 98.5126 76.8078 98.7334 77.1137C99.1739 77.7237 99.8003 78.5416 100.539 79.3638C101.273 80.1815 102.143 81.0303 103.072 81.6818C103.984 82.3214 105.064 82.8482 106.196 82.8482V80.8482C105.664 80.8482 104.994 80.5868 104.22 80.0441C103.463 79.5134 102.708 78.786 102.027 78.0274C101.349 77.2733 100.768 76.515 100.355 75.9428C100.149 75.6575 99.9862 75.4206 99.8758 75.2563C99.8206 75.1742 99.7786 75.1104 99.7509 75.0679C99.7371 75.0466 99.7268 75.0307 99.7203 75.0205C99.717 75.0154 99.7146 75.0118 99.7132 75.0096C99.7125 75.0085 99.7121 75.0078 99.7119 75.0074C99.7118 75.0073 99.7117 75.0072 99.7117 75.0072C99.7117 75.0072 99.7118 75.0073 99.7118 75.0073C99.7119 75.0074 99.7119 75.0075 98.8674 75.543ZM106.196 82.8482C106.87 82.8482 107.538 82.5044 108.097 82.1311C108.693 81.7331 109.338 81.1822 110 80.5451C111.326 79.2679 112.819 77.5503 114.27 75.7561C117.179 72.1616 120.003 68.1619 121.146 66.5157L119.504 65.375C118.368 67.0096 115.577 70.9614 112.716 74.498C111.282 76.2694 109.851 77.9124 108.612 79.1043C107.992 79.7018 107.444 80.1626 106.987 80.4677C106.759 80.6197 106.572 80.7208 106.425 80.7816C106.353 80.8115 106.297 80.8289 106.256 80.8384C106.236 80.8431 106.222 80.8456 106.211 80.8469C106.201 80.8482 106.196 80.8482 106.196 80.8482V82.8482ZM121.213 66.405C121.241 66.35 122.419 64.0757 123.539 62.0989L121.799 61.1131C120.659 63.1255 119.466 65.4289 119.437 65.4857L121.213 66.405ZM123.572 62.0349C123.603 61.9696 124.042 61.0471 124.597 60.0144C124.875 59.4976 125.177 58.9627 125.467 58.498C125.767 58.0179 126.02 57.6685 126.199 57.4833L124.758 56.0955C124.427 56.4395 124.083 56.9389 123.77 57.4388C123.449 57.9541 123.124 58.5304 122.836 59.0676C122.258 60.1428 121.802 61.0993 121.765 61.177L123.572 62.0349ZM126.199 57.4833C126.679 56.9846 127.256 56.4947 127.708 56.1925C127.947 56.0331 128.085 55.9707 128.125 55.9582C128.154 55.9494 128.05 55.9905 127.879 55.9603C127.639 55.9176 127.37 55.7462 127.249 55.4435L129.106 54.7013C128.941 54.2887 128.588 54.0547 128.229 53.991C127.939 53.9397 127.683 54.0013 127.531 54.0484C127.211 54.1479 126.881 54.3397 126.597 54.5295C126.004 54.9258 125.319 55.5141 124.758 56.0955L126.199 57.4833ZM127.249 55.4435C127.161 55.2221 127.192 55.0463 127.193 55.0378C127.198 55.0022 127.203 54.9966 127.19 55.0345C127.166 55.108 127.113 55.2339 127.021 55.4225C126.841 55.7953 126.572 56.2884 126.252 56.8735L128.007 57.8322C128.318 57.264 128.614 56.7214 128.821 56.2945C128.924 56.0833 129.02 55.8683 129.085 55.6749C129.117 55.5793 129.153 55.4587 129.172 55.3284C129.187 55.2252 129.216 54.9749 129.106 54.7013L127.249 55.4435ZM126.252 56.8735C126.126 57.1051 125.993 57.3487 125.858 57.5983L127.618 58.5482C127.75 58.3037 127.881 58.0644 128.007 57.8322L126.252 56.8735ZM55.0151 84.4576C54.2065 83.8693 54.2064 83.8694 54.2063 83.8695C54.2063 83.8696 54.2061 83.8697 54.206 83.8699C54.2058 83.8702 54.2055 83.8707 54.2051 83.8712C54.2043 83.8723 54.2031 83.8739 54.2017 83.8759C54.1988 83.8799 54.1946 83.8856 54.1892 83.8931C54.1784 83.9081 54.1626 83.93 54.1422 83.9584C54.1014 84.0152 54.0422 84.098 53.9673 84.2038C53.8177 84.4154 53.6053 84.7189 53.3527 85.0893C52.8482 85.8288 52.1797 86.8402 51.529 87.9207C50.8816 88.9956 50.2358 90.165 49.789 91.2153C49.5661 91.7396 49.3806 92.2618 49.2739 92.7453C49.1724 93.2054 49.1145 93.7482 49.2664 94.2502L51.1807 93.6709C51.1817 93.6744 51.1711 93.6391 51.1741 93.5467C51.177 93.4562 51.1922 93.3338 51.227 93.1763C51.2971 92.8585 51.4325 92.4614 51.6295 91.9982C52.0227 91.0736 52.6138 89.996 53.2422 88.9526C53.8673 87.9148 54.5135 86.9367 55.0049 86.2162C55.2502 85.8566 55.456 85.5625 55.6 85.359C55.672 85.2572 55.7285 85.1782 55.7667 85.1249C55.7859 85.0983 55.8004 85.0781 55.81 85.0648C55.8148 85.0582 55.8184 85.0532 55.8207 85.0501C55.8219 85.0485 55.8227 85.0473 55.8232 85.0466C55.8235 85.0463 55.8237 85.046 55.8238 85.0459C55.8238 85.0458 55.8238 85.0458 55.8238 85.0458C55.8238 85.0458 55.8238 85.0458 55.0151 84.4576ZM46.6166 76.1904L54.2557 85.1081L55.7746 83.807L48.1355 74.8893L46.6166 76.1904ZM40.6033 91.224C40.6868 89.8429 41.1709 88.2148 41.8971 86.507C42.6185 84.8106 43.553 83.0946 44.4862 81.5523C45.418 80.0123 46.3398 78.6599 47.0289 77.6922C47.3731 77.2089 47.6585 76.8226 47.8571 76.5583C47.9563 76.4261 48.0338 76.3245 48.086 76.2564C48.1121 76.2224 48.1319 76.1968 48.1449 76.1801C48.1515 76.1717 48.1563 76.1655 48.1594 76.1615C48.1609 76.1595 48.162 76.1581 48.1627 76.1573C48.163 76.1569 48.1632 76.1566 48.1633 76.1565C48.1634 76.1564 48.1634 76.1564 48.1634 76.1564C48.1633 76.1564 48.1633 76.1565 47.376 75.5399C46.5888 74.9232 46.5886 74.9234 46.5885 74.9236C46.5884 74.9237 46.5882 74.9239 46.5881 74.9241C46.5877 74.9246 46.5873 74.9252 46.5867 74.9259C46.5856 74.9273 46.584 74.9294 46.582 74.9319C46.5779 74.9371 46.5721 74.9446 46.5646 74.9542C46.5496 74.9736 46.5279 75.0018 46.4997 75.0384C46.4434 75.1118 46.3616 75.2191 46.2578 75.3573C46.0503 75.6335 45.7549 76.0334 45.3998 76.5321C44.6902 77.5284 43.7392 78.9234 42.775 80.5169C41.8122 82.1082 40.8273 83.912 40.0566 85.7243C39.2908 87.5252 38.7102 89.3948 38.6069 91.1033L40.6033 91.224ZM56.8739 117.228C55.6293 115.687 51.4379 110.497 47.6047 104.972C45.6867 102.207 43.8738 99.3795 42.5664 96.8965C41.9126 95.6546 41.3956 94.5184 41.0546 93.5325C40.7078 92.53 40.5706 91.7604 40.6033 91.2244L38.607 91.1029C38.5508 92.0257 38.7845 93.0879 39.1645 94.1863C39.5502 95.3013 40.1159 96.5351 40.7968 97.8282C42.1588 100.415 44.0237 103.318 45.9614 106.112C49.8397 111.702 54.0713 116.941 55.318 118.485L56.8739 117.228ZM57.1906 117.622C57.1282 117.543 57.019 117.408 56.8739 117.228L55.318 118.485C55.4664 118.669 55.5684 118.795 55.624 118.865L57.1906 117.622ZM58.2175 120.246C58.1137 119.766 57.9861 119.282 57.8282 118.844C57.6747 118.418 57.4714 117.975 57.1906 117.622L55.624 118.865C55.7097 118.973 55.8246 119.183 55.9468 119.522C56.0646 119.849 56.1702 120.241 56.2627 120.669L58.2175 120.246ZM56.3877 126.116C57.5268 123.828 58.0307 121.979 58.2298 120.6L56.2504 120.314C56.0838 121.468 55.6486 123.114 54.5974 125.224L56.3877 126.116ZM56.1588 132.767C56.59 132.762 56.8145 133.04 56.8217 133.048C56.864 133.097 56.8681 133.119 56.8435 133.068C56.7989 132.977 56.7314 132.799 56.6526 132.525C56.4985 131.988 56.3409 131.224 56.2289 130.38C56.117 129.537 56.055 128.647 56.0802 127.858C56.1064 127.039 56.2238 126.445 56.3879 126.116L54.5973 125.225C54.2369 125.949 54.1099 126.896 54.0813 127.794C54.0516 128.721 54.1244 129.725 54.2463 130.643C54.368 131.561 54.5431 132.425 54.7303 133.077C54.8222 133.397 54.9274 133.702 55.0464 133.946C55.1036 134.063 55.1871 134.215 55.3052 134.352C55.3882 134.448 55.6847 134.773 56.1829 134.767L56.1588 132.767ZM56.4729 130.094C55.4749 130.157 55.4749 130.157 55.4749 130.157C55.4749 130.157 55.4749 130.157 55.4749 130.157C55.4749 130.157 55.4749 130.157 55.4749 130.157C55.4749 130.157 55.475 130.158 55.475 130.159C55.4751 130.16 55.4752 130.162 55.4754 130.165C55.4758 130.171 55.4764 130.181 55.4771 130.193C55.4786 130.219 55.4807 130.256 55.4833 130.304C55.4884 130.401 55.4952 130.539 55.5018 130.706C55.5149 131.041 55.5268 131.482 55.5227 131.918C55.5185 132.366 55.4977 132.766 55.4557 133.037C55.4332 133.182 55.4144 133.222 55.4238 133.201C55.4285 133.19 55.4656 133.105 55.5617 133.011C55.672 132.903 55.8763 132.77 56.1588 132.767L56.1829 134.767C56.8997 134.758 57.1907 134.149 57.2513 134.013C57.3504 133.79 57.4012 133.543 57.4321 133.343C57.497 132.925 57.5182 132.407 57.5226 131.937C57.5271 131.456 57.5141 130.98 57.5002 130.627C57.4932 130.45 57.486 130.302 57.4804 130.198C57.4777 130.146 57.4753 130.105 57.4736 130.076C57.4728 130.062 57.4721 130.051 57.4717 130.043C57.4714 130.039 57.4712 130.036 57.4711 130.034C57.471 130.033 57.471 130.032 57.4709 130.031C57.4709 130.031 57.4709 130.031 57.4709 130.03C57.4709 130.03 57.4709 130.03 57.4709 130.03C57.4709 130.03 57.4709 130.03 56.4729 130.094ZM57.511 133.644C57.7729 133.634 57.9603 133.743 58.0512 133.816C58.0956 133.851 58.124 133.883 58.1385 133.901C58.1534 133.919 58.1602 133.93 58.1603 133.93C58.1606 133.93 58.1569 133.925 58.1499 133.91C58.143 133.896 58.1341 133.877 58.1235 133.851C58.1021 133.799 58.0775 133.731 58.0508 133.645C57.9399 133.29 57.8353 132.777 57.7449 132.218C57.6561 131.67 57.5869 131.116 57.5398 130.696C57.5164 130.487 57.4985 130.313 57.4866 130.192C57.4807 130.132 57.4762 130.085 57.4733 130.053C57.4718 130.037 57.4707 130.025 57.47 130.017C57.4697 130.013 57.4694 130.01 57.4693 130.008C57.4692 130.007 57.4691 130.007 57.4691 130.006C57.4691 130.006 57.4691 130.006 57.4691 130.006C57.4691 130.006 57.4691 130.006 57.4691 130.006C57.4691 130.006 57.4691 130.006 56.4729 130.094C55.4767 130.181 55.4767 130.181 55.4767 130.181C55.4767 130.181 55.4767 130.181 55.4767 130.181C55.4768 130.182 55.4768 130.182 55.4768 130.182C55.4769 130.183 55.477 130.184 55.4771 130.185C55.4773 130.188 55.4777 130.192 55.4781 130.196C55.4789 130.206 55.4802 130.219 55.4818 130.237C55.4851 130.272 55.4899 130.323 55.4962 130.388C55.5089 130.517 55.5277 130.7 55.5523 130.92C55.6015 131.357 55.6748 131.946 55.7706 132.538C55.8649 133.12 55.9872 133.746 56.1414 134.241C56.2161 134.48 56.3166 134.751 56.4579 134.98C56.5494 135.128 56.9035 135.668 57.5875 135.642L57.511 133.644ZM57.8651 129.9C56.868 129.976 56.8679 129.976 56.8679 129.976C56.8679 129.976 56.8679 129.976 56.8679 129.976C56.868 129.976 56.868 129.976 56.868 129.976C56.868 129.976 56.8681 129.977 56.8681 129.978C56.8683 129.98 56.8685 129.983 56.8688 129.987C56.8694 129.995 56.8703 130.007 56.8715 130.024C56.8738 130.057 56.8772 130.105 56.8814 130.168C56.8896 130.293 56.9008 130.473 56.9121 130.689C56.9348 131.122 56.9578 131.695 56.9605 132.265C56.9632 132.845 56.9442 133.38 56.8929 133.753C56.8805 133.843 56.8675 133.915 56.8549 133.969C56.8418 134.026 56.8328 134.048 56.8336 134.046C56.8344 134.045 56.8408 134.029 56.855 134.005C56.8689 133.982 56.8959 133.941 56.9406 133.895C57.0359 133.795 57.2275 133.656 57.5062 133.644L57.5923 135.642C58.3279 135.61 58.615 134.971 58.68 134.815C58.7848 134.563 58.84 134.275 58.8743 134.026C58.9455 133.507 58.9633 132.858 58.9605 132.256C58.9576 131.643 58.933 131.036 58.9093 130.584C58.8975 130.358 58.8858 130.169 58.877 130.036C58.8726 129.97 58.869 129.917 58.8664 129.881C58.8651 129.863 58.8641 129.849 58.8633 129.839C58.863 129.834 58.8627 129.831 58.8625 129.828C58.8624 129.827 58.8623 129.826 58.8623 129.825C58.8622 129.824 58.8622 129.824 58.8622 129.824C58.8622 129.824 58.8622 129.824 58.8622 129.824C58.8622 129.824 58.8622 129.823 57.8651 129.9ZM58.7776 133.66C59.0203 133.558 59.2778 133.582 59.4731 133.676C59.6286 133.751 59.7007 133.848 59.7071 133.856C59.72 133.873 59.6811 133.821 59.6125 133.632C59.4854 133.281 59.356 132.749 59.2383 132.155C59.123 131.574 59.0276 130.979 58.9608 130.526C58.9275 130.3 58.9015 130.112 58.8839 129.98C58.8751 129.914 58.8684 129.863 58.864 129.828C58.8618 129.811 58.8601 129.798 58.8591 129.789C58.8585 129.785 58.8581 129.782 58.8579 129.78C58.8577 129.779 58.8577 129.778 58.8576 129.778C58.8576 129.777 58.8576 129.777 58.8576 129.777C58.8575 129.777 58.8576 129.777 58.8575 129.777C58.8576 129.777 58.8576 129.777 57.8651 129.9C56.8726 130.022 56.8726 130.022 56.8726 130.022C56.8726 130.022 56.8726 130.022 56.8726 130.022C56.8726 130.022 56.8727 130.023 56.8727 130.023C56.8728 130.024 56.873 130.025 56.8731 130.026C56.8735 130.029 56.874 130.033 56.8746 130.038C56.8759 130.048 56.8778 130.063 56.8802 130.082C56.8851 130.12 56.8922 130.175 56.9015 130.245C56.9201 130.384 56.9474 130.582 56.9822 130.818C57.0517 131.289 57.1525 131.919 57.2765 132.544C57.398 133.157 57.5509 133.814 57.7325 134.314C57.8182 134.55 57.9402 134.838 58.1185 135.071C58.2076 135.188 58.3636 135.362 58.6037 135.477C58.8837 135.613 59.2268 135.642 59.5556 135.503L58.7776 133.66ZM59.6279 129.628C58.6291 129.677 58.6291 129.677 58.6291 129.677C58.6291 129.677 58.6291 129.677 58.6291 129.677C58.6291 129.677 58.6291 129.677 58.6291 129.677C58.6291 129.677 58.6292 129.678 58.6292 129.679C58.6293 129.681 58.6294 129.684 58.6296 129.688C58.63 129.696 58.6306 129.708 58.6313 129.724C58.6327 129.757 58.6347 129.805 58.6371 129.867C58.6418 129.991 58.6479 130.169 58.6531 130.385C58.6634 130.817 58.6701 131.391 58.656 131.97C58.6418 132.557 58.6068 133.115 58.5417 133.527C58.5084 133.738 58.474 133.865 58.4508 133.926C58.4014 134.054 58.4535 133.799 58.774 133.662L59.5592 135.501C60.052 135.291 60.2478 134.825 60.3179 134.643C60.4141 134.392 60.4749 134.107 60.5172 133.839C60.6032 133.295 60.6405 132.633 60.6554 132.019C60.6705 131.396 60.6633 130.787 60.6525 130.337C60.647 130.11 60.6407 129.923 60.6356 129.791C60.6331 129.725 60.6309 129.672 60.6294 129.636C60.6286 129.618 60.6279 129.605 60.6275 129.595C60.6273 129.59 60.6271 129.586 60.6269 129.584C60.6269 129.582 60.6268 129.581 60.6268 129.581C60.6268 129.58 60.6268 129.58 60.6268 129.58C60.6267 129.579 60.6267 129.579 60.6267 129.579C60.6267 129.579 60.6267 129.579 59.6279 129.628ZM60.0278 133.786C60.0588 133.73 60.3216 133.29 60.8994 133.332C61.1396 133.35 61.307 133.453 61.391 133.517C61.4754 133.581 61.5238 133.643 61.5418 133.667C61.5865 133.727 61.5622 133.714 61.4924 133.508C61.3749 133.162 61.2372 132.608 61.1019 131.988C60.9691 131.38 60.8471 130.748 60.7578 130.266C60.7133 130.025 60.6771 129.823 60.6522 129.682C60.6397 129.611 60.6301 129.555 60.6236 129.517C60.6203 129.499 60.6179 129.484 60.6162 129.475C60.6154 129.47 60.6148 129.466 60.6144 129.464C60.6142 129.463 60.6141 129.462 60.614 129.461C60.6139 129.461 60.6139 129.461 60.6139 129.461C60.6139 129.461 60.6139 129.461 60.6139 129.461C60.6139 129.461 60.6139 129.461 59.6279 129.628C58.642 129.795 58.642 129.795 58.642 129.795C58.642 129.795 58.642 129.795 58.642 129.795C58.6421 129.796 58.6421 129.796 58.6422 129.796C58.6423 129.797 58.6425 129.798 58.6427 129.8C58.6432 129.802 58.6439 129.806 58.6448 129.812C58.6466 129.822 58.6492 129.838 58.6527 129.857C58.6596 129.897 58.6696 129.955 58.6825 130.028C58.7083 130.175 58.7454 130.383 58.7912 130.63C58.8825 131.123 59.0089 131.778 59.148 132.415C59.2846 133.041 59.442 133.689 59.5984 134.151C59.6655 134.348 59.7729 134.64 59.9383 134.862C59.9892 134.931 60.2538 135.29 60.753 135.327C61.3849 135.373 61.6986 134.896 61.7763 134.757L60.0278 133.786ZM60.2341 130.384C60.2127 131.157 60.1895 131.994 60.143 132.691C60.1198 133.039 60.0918 133.334 60.0587 133.557C60.0181 133.83 59.9878 133.858 60.0278 133.786L61.7763 134.757C61.9347 134.471 61.9998 134.102 62.037 133.851C62.0816 133.55 62.1139 133.194 62.1386 132.824C62.1881 132.081 62.2122 131.201 62.2333 130.439L60.2341 130.384ZM60.2337 130.411V130.411H62.2337V130.411H60.2337ZM60.3452 128.296C60.3066 128.517 60.2871 128.847 60.2729 129.174C60.2578 129.522 60.2462 129.944 60.2341 130.384L62.2333 130.439C62.2456 129.994 62.2567 129.59 62.271 129.261C62.2863 128.911 62.3029 128.711 62.3156 128.638L60.3452 128.296ZM61.4583 124.973C61.1997 125.686 60.9472 126.383 60.7507 126.951C60.5672 127.482 60.3968 127.999 60.3452 128.296L62.3156 128.638C62.3156 128.638 62.3156 128.638 62.3156 128.638C62.3156 128.638 62.3157 128.638 62.3157 128.638C62.3158 128.638 62.3159 128.637 62.316 128.636C62.3163 128.635 62.3167 128.633 62.3172 128.63C62.3183 128.625 62.3198 128.618 62.322 128.609C62.3263 128.59 62.3324 128.566 62.3405 128.536C62.357 128.475 62.3795 128.398 62.4086 128.304C62.4669 128.116 62.5457 127.88 62.6409 127.604C62.8315 127.053 63.0783 126.373 63.3386 125.655L61.4583 124.973ZM61.4605 124.967L61.4603 124.967L63.3366 125.66L63.3368 125.659L61.4605 124.967ZM61.4625 124.962L61.4623 124.962L63.335 125.664L63.3351 125.664L61.4625 124.962ZM61.4626 124.961L61.4625 124.962L63.3351 125.664L63.3352 125.664L61.4626 124.961ZM61.9766 123.536C61.8093 124.005 61.6324 124.493 61.4588 124.972L63.339 125.653C63.5123 125.175 63.691 124.683 63.8604 124.208L61.9766 123.536ZM64.5054 125.499C64.39 125.085 64.2725 124.664 64.1614 124.311C64.0621 123.995 63.9318 123.61 63.7695 123.347L62.0674 124.397C62.0612 124.387 62.0809 124.419 62.1226 124.528C62.1604 124.626 62.2041 124.754 62.2535 124.911C62.3528 125.227 62.461 125.614 62.5791 126.037L64.5054 125.499ZM64.6172 127.412C64.9425 127.418 65.1328 127.591 65.1737 127.631C65.2252 127.681 65.2359 127.71 65.2142 127.672C65.1735 127.602 65.1083 127.458 65.0236 127.221C64.8579 126.759 64.684 126.138 64.5054 125.499L62.5791 126.037C62.7511 126.653 62.9457 127.352 63.141 127.896C63.2368 128.164 63.3504 128.445 63.4834 128.674C63.5485 128.787 63.6449 128.934 63.7803 129.066C63.9053 129.187 64.178 129.405 64.5836 129.412L64.6172 127.412ZM63.8349 125.121C63.8819 125.919 63.9279 126.711 63.9133 127.303C63.9057 127.609 63.8827 127.787 63.8631 127.863C63.8517 127.907 63.861 127.838 63.9354 127.738C64.0299 127.611 64.2607 127.406 64.6172 127.412L64.5836 129.412C65.0478 129.42 65.3695 129.161 65.5403 128.931C65.691 128.729 65.762 128.509 65.7999 128.361C65.8788 128.055 65.9043 127.689 65.9127 127.352C65.9298 126.659 65.8768 125.772 65.8314 125.004L63.8349 125.121ZM63.7653 123.644C63.7727 124.07 63.804 124.598 63.8349 125.121L65.8314 125.004C65.7997 124.466 65.7715 123.985 65.765 123.609L63.7653 123.644ZM62.6371 117.891C61.7446 118.342 61.7446 118.342 61.7446 118.342C61.7446 118.342 61.7446 118.342 61.7446 118.342C61.7446 118.342 61.7447 118.342 61.7448 118.342C61.7449 118.342 61.7452 118.343 61.7456 118.344C61.7465 118.346 61.7478 118.348 61.7496 118.352C61.7532 118.359 61.7587 118.37 61.766 118.385C61.7807 118.414 61.8024 118.458 61.8303 118.514C61.8861 118.628 61.9664 118.792 62.0629 118.995C62.2564 119.401 62.5139 119.957 62.7713 120.559C63.0298 121.164 63.2827 121.802 63.4709 122.375C63.6682 122.977 63.7612 123.41 63.7653 123.644L65.765 123.609C65.7553 123.053 65.5754 122.374 65.3712 121.752C65.1578 121.101 64.8804 120.404 64.6103 119.773C64.3392 119.139 64.0697 118.557 63.8685 118.134C63.7677 117.923 63.6836 117.751 63.6244 117.63C63.5948 117.57 63.5714 117.523 63.5553 117.491C63.5472 117.475 63.5409 117.462 63.5366 117.454C63.5344 117.449 63.5327 117.446 63.5315 117.444C63.5309 117.442 63.5305 117.441 63.5301 117.441C63.53 117.44 63.5298 117.44 63.5297 117.44C63.5297 117.44 63.5296 117.44 63.5296 117.44C63.5295 117.44 63.5295 117.44 62.6371 117.891ZM63.6349 117.956L63.635 117.955L61.6392 117.826L61.6391 117.827L63.6349 117.956ZM60.2676 115.477C60.7421 116.336 61.2771 117.349 61.7319 118.317L63.5421 117.466C63.0617 116.444 62.5042 115.39 62.0186 114.51L60.2676 115.477ZM54.9784 105.397C57.0843 109.323 59.1971 113.262 60.2425 115.428L62.0437 114.559C60.9747 112.344 58.8351 108.355 56.7408 104.452L54.9784 105.397ZM49.2664 94.2502C49.373 94.6025 49.6356 95.1799 49.9619 95.8509C50.3017 96.5499 50.75 97.4287 51.2686 98.4241C52.3063 100.416 53.6391 102.9 54.9784 105.397L56.7408 104.452C55.3996 101.951 54.0732 99.4787 53.0423 97.5001C52.5267 96.5104 52.0884 95.6507 51.7605 94.9764C51.4191 94.274 51.2328 93.8432 51.1807 93.6709L49.2664 94.2502Z" fill="#1C2A47" mask="url(#path-54-inside-1_1635_1548)"/>
<path d="M126.645 50.7041C121.096 50.7041 116.582 43.2544 116.582 34.0942C116.582 24.934 121.096 17.4843 126.645 17.4843C132.195 17.4843 136.709 24.934 136.709 34.0942C136.709 43.2512 132.195 50.7041 126.645 50.7041ZM126.645 19.1171C121.862 19.1171 117.968 25.8361 117.968 34.091C117.968 42.349 121.859 49.0648 126.645 49.0648C131.429 49.0648 135.322 42.3458 135.322 34.091C135.322 25.8361 131.429 19.1171 126.645 19.1171Z" fill="#1C2A47"/>
<path d="M127.088 63.6667V49.886H125.698V63.0265C125.698 65.4774 125.47 67.9574 124.726 70.2467C124.605 70.612 124.572 71.0291 124.649 71.4624C124.792 72.2514 125.336 72.8883 126.006 73.0532C127.159 73.3378 128.178 72.3096 128.178 71C128.178 70.7834 128.15 70.5732 128.098 70.376C127.519 68.1902 127.088 65.9559 127.088 63.6667Z" fill="#1C2A47"/>
<path d="M89.3727 111.172C89.3727 111.172 94.5433 118.547 96.8746 127.177C99.2058 135.807 97.7011 153.639 97.7011 153.639H80.3772C80.3772 153.639 80.2097 137.162 79.5452 136.965C78.8779 136.767 75.0474 153.639 75.0474 153.639H56.7239C56.7239 153.639 52.1438 126.767 65.0934 111.172L77.2111 112.055L89.3727 111.172Z" fill="#3A6B5F"/>
<path d="M89.3732 107.347V111.172C89.3732 111.172 83.2087 118.234 65.0939 111.172L65.0527 107.347L80.9625 106.17L89.3732 107.347Z" fill="#1C2A47"/>
<path d="M83.2135 61.2127C83.2135 61.2127 89.6334 60.9313 92.89 63.5795C95.2213 65.4743 100.364 76.1574 100.364 76.1574L94.4579 82.0681C94.4579 82.0681 95.8666 88.5154 90.3665 91.7488L89.3698 107.344C89.3698 107.344 79.0424 114.405 65.0493 107.344C65.0493 107.344 62.383 78.1168 59.8842 80.6648C57.3855 83.2159 55.8862 85.4696 55.8862 85.4696L46.5583 74.5827C46.5583 74.5827 56.7292 62.5868 60.0929 60.705C67.9901 56.2914 74.3744 60.5369 74.3744 60.5369L83.2135 61.2127Z" fill="#6C8AC5"/>
<mask id="path-61-inside-2_1635_1548" fill="white">
<path fill-rule="evenodd" clip-rule="evenodd" d="M68.01 32.4388C68.3258 26.1983 72.6231 21.1284 77.9227 20.763C84.0845 20.3362 89.1754 26.1175 89.1342 33.2698C89.1316 33.4251 89.1264 33.5775 89.1211 33.7327L89.1205 33.7515L89.1315 33.7483C89.1295 34.1335 89.1343 34.6014 89.1397 35.1347C89.1944 40.5191 89.3168 52.5654 83.258 53.3685L83.2141 61.2128C83.2141 61.2128 80.5066 64.2133 74.375 60.5434L74.7731 57.4103C75.1685 54.3062 74.4903 51.1763 72.9856 48.5863C72.4055 47.589 71.8711 46.4471 71.3498 45.167C69.1023 45.7971 67.2079 42.4522 68.3645 41.1074C68.7413 40.6705 69.1881 40.4873 69.6334 40.4479C69.3883 39.7212 69.1384 38.9665 68.8804 38.1845C68.2296 36.4417 67.9056 34.492 68.01 32.4388Z"/>
</mask>
<path fill-rule="evenodd" clip-rule="evenodd" d="M68.01 32.4388C68.3258 26.1983 72.6231 21.1284 77.9227 20.763C84.0845 20.3362 89.1754 26.1175 89.1342 33.2698C89.1316 33.4251 89.1264 33.5775 89.1211 33.7327L89.1205 33.7515L89.1315 33.7483C89.1295 34.1335 89.1343 34.6014 89.1397 35.1347C89.1944 40.5191 89.3168 52.5654 83.258 53.3685L83.2141 61.2128C83.2141 61.2128 80.5066 64.2133 74.375 60.5434L74.7731 57.4103C75.1685 54.3062 74.4903 51.1763 72.9856 48.5863C72.4055 47.589 71.8711 46.4471 71.3498 45.167C69.1023 45.7971 67.2079 42.4522 68.3645 41.1074C68.7413 40.6705 69.1881 40.4873 69.6334 40.4479C69.3883 39.7212 69.1384 38.9665 68.8804 38.1845C68.2296 36.4417 67.9056 34.492 68.01 32.4388Z" fill="#B5C4E2"/>
<path d="M77.9227 20.763L77.9915 21.7606L77.9918 21.7606L77.9227 20.763ZM68.01 32.4388L69.0087 32.4895L69.0087 32.4893L68.01 32.4388ZM89.1342 33.2698L90.1341 33.2867L90.1342 33.2755L89.1342 33.2698ZM89.1211 33.7327L90.1206 33.7667L90.1206 33.7667L89.1211 33.7327ZM89.1205 33.7515L88.1211 33.7175L88.074 35.1018L89.4028 34.7109L89.1205 33.7515ZM89.1315 33.7483L90.1315 33.7534L90.1384 32.4097L88.8492 32.789L89.1315 33.7483ZM89.1397 35.1347L90.1396 35.1245L90.1396 35.1245L89.1397 35.1347ZM83.258 53.3685L83.1266 52.3772L82.2629 52.4917L82.258 53.3629L83.258 53.3685ZM83.2141 61.2128L83.9565 61.8827L84.2119 61.5996L84.214 61.2184L83.2141 61.2128ZM74.375 60.5434L73.383 60.4174L73.3006 61.0658L73.8614 61.4015L74.375 60.5434ZM74.7731 57.4103L73.7812 57.2839L73.7811 57.2842L74.7731 57.4103ZM72.9856 48.5863L73.8502 48.084L73.85 48.0836L72.9856 48.5863ZM71.3498 45.167L72.2759 44.7899L71.9393 43.9632L71.0799 44.2042L71.3498 45.167ZM68.3645 41.1074L67.6072 40.4543L67.6063 40.4554L68.3645 41.1074ZM69.6334 40.4479L69.7215 41.4441L70.987 41.3322L70.581 40.1284L69.6334 40.4479ZM68.8804 38.1845L69.8301 37.8713L69.824 37.8529L69.8172 37.8347L68.8804 38.1845ZM77.8539 19.7654C71.9256 20.1741 67.3458 25.7766 67.0113 32.3882L69.0087 32.4893C69.3057 26.62 73.3206 22.0827 77.9915 21.7606L77.8539 19.7654ZM90.1342 33.2755C90.1777 25.723 84.7625 19.2868 77.8536 19.7654L77.9918 21.7606C83.4065 21.3855 88.1731 26.512 88.1342 33.264L90.1342 33.2755ZM90.1206 33.7667C90.1258 33.6129 90.1313 33.452 90.1341 33.2867L88.1344 33.2528C88.1319 33.3983 88.127 33.5422 88.1217 33.6987L90.1206 33.7667ZM90.1199 33.7855L90.1206 33.7667L88.1217 33.6987L88.1211 33.7175L90.1199 33.7855ZM88.8492 32.789L88.8382 32.7922L89.4028 34.7109L89.4137 34.7076L88.8492 32.789ZM90.1396 35.1245C90.1342 34.5886 90.1295 34.1293 90.1315 33.7534L88.1315 33.7432C88.1295 34.1377 88.1343 34.6142 88.1397 35.1448L90.1396 35.1245ZM83.3894 54.3599C85.2758 54.1098 86.635 52.9744 87.5857 51.4727C88.5221 49.9936 89.1034 48.1037 89.4738 46.1564C90.2153 42.2578 90.1668 37.8007 90.1396 35.1245L88.1397 35.1448C88.1672 37.8531 88.2073 42.1113 87.509 45.7827C87.1595 47.6205 86.6388 49.2293 85.8958 50.403C85.1671 51.5541 84.2696 52.2257 83.1266 52.3772L83.3894 54.3599ZM84.214 61.2184L84.258 53.3741L82.258 53.3629L82.2141 61.2072L84.214 61.2184ZM73.8614 61.4015C77.093 63.3356 79.5547 63.5853 81.2918 63.2345C82.1494 63.0614 82.7939 62.7486 83.2346 62.4663C83.4544 62.3255 83.623 62.1926 83.7424 62.0887C83.8021 62.0368 83.8496 61.9919 83.8851 61.9568C83.9029 61.9392 83.9177 61.924 83.9296 61.9116C83.9356 61.9053 83.9408 61.8998 83.9452 61.895C83.9475 61.8925 83.9495 61.8903 83.9514 61.8883C83.9524 61.8872 83.9532 61.8863 83.9541 61.8853C83.9545 61.8849 83.9551 61.8842 83.9553 61.884C83.9559 61.8833 83.9565 61.8827 83.2141 61.2128C82.4716 60.5428 82.4722 60.5422 82.4727 60.5416C82.4729 60.5414 82.4734 60.5408 82.4738 60.5405C82.4745 60.5397 82.4751 60.539 82.4757 60.5383C82.4769 60.537 82.478 60.5359 82.4789 60.5349C82.4807 60.5329 82.482 60.5316 82.4826 60.5309C82.4838 60.5296 82.4827 60.5309 82.4792 60.5344C82.4721 60.5414 82.4554 60.5574 82.4291 60.5803C82.3764 60.6262 82.2857 60.699 82.1558 60.7822C81.8972 60.9479 81.4817 61.1558 80.896 61.2741C79.7465 61.5062 77.7886 61.4211 74.8886 59.6854L73.8614 61.4015ZM73.7811 57.2842L73.383 60.4174L75.367 60.6695L75.7652 57.5363L73.7811 57.2842ZM72.1209 49.0887C73.5179 51.4932 74.1482 54.4027 73.7812 57.2839L75.7651 57.5366C76.1889 54.2097 75.4627 50.8594 73.8502 48.084L72.1209 49.0887ZM70.4237 45.5442C70.9556 46.8505 71.5099 48.038 72.1211 49.0891L73.85 48.0836C73.3012 47.1399 72.7866 46.0438 72.2759 44.7899L70.4237 45.5442ZM67.6063 40.4554C67.0851 41.0614 66.9637 41.8265 67.032 42.4987C67.1007 43.1745 67.3652 43.8508 67.7456 44.4281C68.4773 45.5383 69.9025 46.6113 71.6197 46.1299L71.0799 44.2042C70.5495 44.3528 69.9038 44.0684 69.4156 43.3275C69.186 42.9792 69.0533 42.6065 69.0218 42.2966C68.9899 41.9831 69.0655 41.8259 69.1226 41.7595L67.6063 40.4554ZM69.5453 39.4518C68.8658 39.5119 68.1697 39.8022 67.6072 40.4543L69.1217 41.7606C69.3129 41.5389 69.5104 41.4627 69.7215 41.4441L69.5453 39.4518ZM67.9308 38.4978C68.1888 39.2802 68.4396 40.0375 68.6858 40.7675L70.581 40.1284C70.337 39.4049 70.0879 38.6528 69.8301 37.8713L67.9308 38.4978ZM67.0113 32.388C66.8999 34.5785 67.2454 36.6645 67.9436 38.5343L69.8172 37.8347C69.2139 36.2189 68.9113 34.4055 69.0087 32.4895L67.0113 32.388Z" fill="#1C2A47" mask="url(#path-61-inside-2_1635_1548)"/>
<path d="M86.9679 39.4811C87.0201 38.8829 86.6521 38.3494 86.1442 38.288C85.6362 38.2265 85.1831 38.6598 85.1309 39.258C85.0787 39.8562 85.4467 40.3897 85.9547 40.4511C86.4599 40.5125 86.913 40.0793 86.9679 39.4811Z" fill="#1C2A47"/>
<path d="M78.2526 40.5642C78.3048 39.966 77.9368 39.4325 77.4288 39.3711C76.9208 39.3097 76.4677 39.7429 76.4156 40.3411C76.3634 40.9393 76.7314 41.4728 77.2393 41.5342C77.7473 41.5957 78.2004 41.1624 78.2526 40.5642Z" fill="#1C2A47"/>
<path d="M85.5617 46.3942C85.5617 46.3942 84.2931 45.547 83.8291 45.7281C83.365 45.9091 83.1344 46.5914 83.1344 46.5914C83.1344 46.5914 82.8268 45.9382 82.2529 45.9609C81.679 45.9835 79.8201 47.3642 79.8201 47.3642C79.8201 47.3642 81.7394 50.132 83.4584 49.6631C85.2103 49.1846 85.5617 46.3942 85.5617 46.3942Z" fill="#6C8AC5"/>
<path d="M75.1405 38.5693C75.0307 38.579 74.9181 38.5337 74.8357 38.4335C74.6874 38.2556 74.6929 37.9678 74.844 37.7932C74.8906 37.7415 75.989 36.5225 77.7052 36.4579C77.9166 36.4514 78.0951 36.6454 78.1006 36.8944C78.1061 37.1433 77.9248 37.3567 77.7299 37.36C76.2993 37.4117 75.3876 38.4302 75.3767 38.4399C75.3108 38.5175 75.2256 38.5596 75.1405 38.5693Z" fill="#1C2A47"/>
<path d="M84.6251 35.9307C84.529 35.8693 84.4548 35.7594 84.4301 35.6235C84.3889 35.3778 84.5207 35.1418 84.7294 35.09C84.7926 35.0739 86.2617 34.7344 87.7499 35.7788C87.9312 35.9081 87.9916 36.1829 87.8845 36.3963C87.7774 36.6097 87.533 36.6776 87.36 36.5548C86.1298 35.6914 84.8969 35.9728 84.8832 35.9728C84.7898 35.9986 84.702 35.9792 84.6251 35.9307Z" fill="#1C2A47"/>
<path d="M82.3817 44.7353C83.4718 44.5478 83.8398 43.5874 83.8782 43.0313C83.8837 42.9343 83.859 42.8373 83.8068 42.7629C82.8348 41.3499 82.9473 39.2935 82.9501 39.2709C82.9638 39.0607 82.8293 38.8796 82.6508 38.8634C82.475 38.8473 82.3185 39.0057 82.3048 39.2159C82.2993 39.3097 82.1757 41.4663 83.2137 43.1024C83.1478 43.4031 82.8814 44.0692 81.8462 44.0013C81.665 43.9916 81.514 44.15 81.5057 44.3602C81.4948 44.5704 81.6321 44.7482 81.8105 44.7612C82.0192 44.7741 82.2087 44.7644 82.3817 44.7353Z" fill="#1C2A47"/>
<path d="M79.8201 47.3674C79.8201 47.3674 83.3321 46.9955 85.5617 46.3941C85.5617 46.3941 84.6089 48.554 83.2662 48.6413C81.9234 48.7254 79.8201 47.3674 79.8201 47.3674Z" fill="white"/>
<path d="M77.019 33.3472C75.1463 35.921 73.1555 38.4431 71.7524 41.3887C71.5958 41.712 70.4947 44.15 70.8078 44.4345C69.0998 42.8857 68.0152 40.5868 67.1035 38.2911C65.5219 34.3075 66.0162 29.5415 67.9987 25.8813C69.9593 22.2632 73.2242 20.4007 76.8076 20.0838C80.6519 19.7443 84.8339 21.2964 87.1597 25.0891C89.3427 28.6491 89.4196 33.1306 89.6475 37.334C89.3893 32.6132 84.0238 29.0533 80.8056 27.3622C80.899 27.4107 78.381 31.4201 78.2492 31.6141C77.8483 32.1994 77.4364 32.7749 77.019 33.3472Z" fill="#1C2A47"/>
<path d="M73.4626 89.602C68.7781 89.602 66.823 84.0858 66.8038 84.0309C66.7681 83.9274 66.8093 83.8078 66.8999 83.7657C66.9878 83.7205 67.0894 83.7722 67.1251 83.8789C67.1443 83.9339 69.0115 89.1946 73.4626 89.1946C77.9192 89.1946 79.6464 85.3727 79.6629 85.3339C79.7068 85.2337 79.8111 85.1949 79.8963 85.2466C79.9814 85.2983 80.0143 85.4212 79.9704 85.5214C79.9567 85.5602 78.1389 89.602 73.4626 89.602Z" fill="#95E7D4"/>
<path d="M94.461 82.275C94.3759 82.275 94.299 82.1974 94.288 82.0939C94.2853 82.0583 93.8816 78.3723 91.4597 75.6918C91.3911 75.6142 91.3856 75.4849 91.4515 75.404C91.5174 75.3232 91.6272 75.3167 91.6959 75.3943C94.2111 78.1815 94.6148 81.8902 94.6285 82.0486C94.6395 82.1618 94.5736 82.262 94.4775 82.275C94.4748 82.275 94.4665 82.275 94.461 82.275Z" fill="#95E7D4"/>
<path d="M79.0233 43.5552C79.0233 44.2245 78.3231 44.7677 77.4609 44.7677C76.5986 44.7677 75.8984 44.2245 75.8984 43.5552C75.8984 42.8859 76.5986 42.3427 77.4609 42.3427C78.3231 42.3427 79.0233 42.8859 79.0233 43.5552Z" fill="#91A7D3"/>
<path d="M87.9388 42.6142C87.9388 43.2835 87.2386 43.8267 86.3764 43.8267C85.5142 43.8267 84.814 43.2835 84.814 42.6142C84.814 41.9449 85.5142 41.4016 86.3764 41.4016C87.2386 41.4016 87.9388 41.9416 87.9388 42.6142Z" fill="#91A7D3"/>
<path d="M127.584 59.6155C128.023 59.8554 128.023 59.8555 128.023 59.8555L128.023 59.8557L128.023 59.8565L128.021 59.8589L128.016 59.8681L127.997 59.9028C127.98 59.9329 127.956 59.9766 127.925 60.0319C127.862 60.1425 127.773 60.2996 127.663 60.487C127.443 60.8611 127.14 61.3594 126.81 61.8504C126.802 61.8634 126.793 61.8764 126.784 61.8894C126.715 62.0081 126.645 62.1285 126.576 62.2492C126.378 62.5932 126.187 62.937 126.019 63.2565C126.169 63.0963 126.324 62.926 126.479 62.7518C126.883 62.2977 127.277 61.83 127.57 61.475C127.716 61.2978 127.837 61.1491 127.922 61.0449C127.964 60.9928 127.997 60.9519 128.019 60.924L128.044 60.8924L128.051 60.8844L128.051 60.8841L128.052 60.8825L128.053 60.8821L128.053 60.882L128.444 61.1934L128.053 60.882L128.836 61.5025L128.837 61.5028L128.837 61.5029L128.836 61.5034L128.835 61.5054L128.828 61.5136L128.802 61.5465C128.78 61.5756 128.746 61.6184 128.704 61.6733C128.619 61.783 128.498 61.9406 128.354 62.1313C128.065 62.5133 127.686 63.0259 127.321 63.5519C127.041 63.9549 126.775 64.3582 126.565 64.7129C126.85 64.4816 127.166 64.2011 127.484 63.9069C127.945 63.4794 128.395 63.0356 128.73 62.6977C128.897 62.529 129.036 62.3872 129.132 62.2878C129.18 62.2381 129.218 62.199 129.243 62.1724L129.272 62.1422L129.28 62.1346L129.281 62.1328L129.282 62.1324L129.282 62.1323L129.282 62.1325L130.01 62.8138L130.012 62.8157L130.012 62.8158L130.012 62.8158L130.011 62.8162L130.01 62.8178L130.003 62.8249L129.977 62.8536C129.954 62.8788 129.92 62.9163 129.877 62.9643C129.791 63.0603 129.667 63.1985 129.521 63.3663C129.227 63.7024 128.843 64.1546 128.476 64.6231C128.105 65.0955 127.764 65.568 127.549 65.9482C127.545 65.9543 127.542 65.9603 127.539 65.9663C127.797 65.8071 128.101 65.5793 128.41 65.325C128.778 65.022 129.134 64.6992 129.399 64.4507C129.531 64.3267 129.64 64.2221 129.715 64.1487C129.749 64.1156 129.776 64.0888 129.796 64.0696C130.05 63.6788 130.147 63.3966 130.177 63.1942C130.205 62.9941 130.172 62.8399 130.113 62.6928C130.081 62.6142 130.041 62.5365 129.993 62.448C129.983 62.4294 129.972 62.4093 129.96 62.3881C129.921 62.3179 129.876 62.236 129.838 62.1584C129.733 61.9444 129.622 61.6484 129.699 61.2896C129.71 61.2348 129.705 61.1425 129.64 61.0007C129.577 60.8606 129.473 60.7103 129.349 60.5644C129.227 60.4209 129.098 60.2961 128.999 60.2064C128.949 60.162 128.908 60.1272 128.88 60.1041C128.866 60.0926 128.856 60.0841 128.849 60.0788L128.842 60.0733L128.842 60.073L128.842 60.0728L128.841 60.0727L128.841 60.0726L128.841 60.0725L128.663 59.9349L128.648 59.7092C128.639 59.5783 128.56 59.4524 128.427 59.3356C128.364 59.2806 128.301 59.238 128.253 59.2093C128.229 59.1953 128.211 59.1853 128.199 59.1796L128.189 59.1743L127.956 59.069L127.907 58.8162L127.907 58.816L127.907 58.816L127.907 58.8157L127.906 58.8151L127.905 58.8071C127.903 58.7992 127.9 58.7867 127.897 58.7702C127.889 58.7371 127.877 58.689 127.86 58.6323C127.827 58.5153 127.779 58.3777 127.719 58.2615C127.694 58.2124 127.671 58.1771 127.653 58.1522C127.64 58.1647 127.623 58.1808 127.604 58.201C127.557 58.2498 127.5 58.3151 127.433 58.3974C127.3 58.5618 127.141 58.7787 126.967 59.0338C126.621 59.5433 126.228 60.1851 125.881 60.8215C125.559 61.4127 125.287 61.9815 125.124 62.4268C125.379 62.1451 125.661 61.7641 125.937 61.3562C126.214 60.8844 126.484 60.4395 126.699 60.0895C126.837 59.866 126.952 59.6807 127.034 59.5511C127.075 59.4863 127.107 59.4354 127.129 59.4006L127.154 59.3607L127.161 59.3504L127.162 59.3477L127.163 59.347L127.163 59.3468C127.163 59.3467 127.163 59.3467 127.584 59.6155ZM127.584 59.6155L128.023 59.8554L127.163 59.3467L127.584 59.6155ZM127.342 66.4336C127.342 66.4339 127.342 66.4303 127.343 66.4221C127.343 66.4293 127.342 66.4334 127.342 66.4336ZM126.912 65.0753C126.321 65.5586 125.83 65.8678 125.69 65.704C125.577 65.5724 125.727 65.1803 126.007 64.6787L126.912 65.0753ZM124.662 62.8259C124.662 62.8257 124.665 62.8248 124.669 62.8238C124.664 62.8255 124.662 62.826 124.662 62.8259ZM124.974 63.0414C124.974 63.0453 124.974 63.0475 124.974 63.0476C124.974 63.0478 124.974 63.0458 124.974 63.0414Z" fill="#91A7D3" stroke="#1C2A47"/>
<path d="M80.8248 115.896C79.1388 115.896 77.7686 114.282 77.7686 112.297C77.7686 110.312 79.1388 108.698 80.8248 108.698C82.5107 108.698 83.881 110.312 83.881 112.297C83.8782 114.279 82.508 115.896 80.8248 115.896ZM80.8248 110.331C79.9049 110.331 79.158 111.214 79.158 112.294C79.158 113.377 79.9076 114.257 80.8248 114.257C81.7446 114.257 82.4915 113.377 82.4915 112.294C82.4915 111.214 81.7419 110.331 80.8248 110.331Z" fill="#7BE1C9"/>
<path d="M56.9204 25.8437L58.6721 22.6636L56.9204 17.5946L55.1687 22.6636L56.9204 25.8437Z" fill="white"/>
<path d="M94.7435 10.9953L93.0051 14.1882L94.7807 19.2444L96.5085 14.1626L94.7435 10.9953Z" fill="white"/>
<path d="M107.356 44.8167L105.617 48.0083L107.393 53.0657L109.121 47.9859L107.356 44.8167Z" fill="white"/>
<path d="M35.1853 30.793L33.4482 33.9847L35.2225 39.0421L36.9516 33.9623L35.1853 30.793Z" fill="white"/>
</svg>
