<svg width="373" height="8" viewBox="0 0 373 8" fill="none" xmlns="http://www.w3.org/2000/svg">
<line x1="196.707" y1="-1.29289" x2="185.707" y2="9.70711" stroke="#337E93" stroke-width="2"/>
<line x1="202.707" y1="-1.29289" x2="191.707" y2="9.70711" stroke="#337E93" stroke-width="2"/>
<line x1="208.707" y1="-1.29289" x2="197.707" y2="9.70711" stroke="#337E93" stroke-width="2"/>
<line x1="214.707" y1="-1.29289" x2="203.707" y2="9.70711" stroke="#337E93" stroke-width="2"/>
<line x1="220.707" y1="-1.29289" x2="209.707" y2="9.70711" stroke="#337E93" stroke-width="2"/>
<line x1="226.707" y1="-1.29289" x2="215.707" y2="9.70711" stroke="#337E93" stroke-width="2"/>
<line x1="232.707" y1="-1.29289" x2="221.707" y2="9.70711" stroke="#337E93" stroke-width="2"/>
<line x1="238.707" y1="-1.29289" x2="227.707" y2="9.70711" stroke="#337E93" stroke-width="2"/>
<line x1="244.707" y1="-1.29289" x2="233.707" y2="9.70711" stroke="#337E93" stroke-width="2"/>
<line x1="250.707" y1="-1.29289" x2="239.707" y2="9.70711" stroke="#337E93" stroke-width="2"/>
<line x1="256.707" y1="-1.29289" x2="245.707" y2="9.70711" stroke="#337E93" stroke-width="2"/>
<line x1="262.707" y1="-1.29289" x2="251.707" y2="9.70711" stroke="#337E93" stroke-width="2"/>
<line x1="268.707" y1="-1.29289" x2="257.707" y2="9.70711" stroke="#337E93" stroke-width="2"/>
<line x1="274.707" y1="-1.29289" x2="263.707" y2="9.70711" stroke="#337E93" stroke-width="2"/>
<line x1="280.707" y1="-1.29289" x2="269.707" y2="9.70711" stroke="#337E93" stroke-width="2"/>
<line x1="286.707" y1="-1.29289" x2="275.707" y2="9.70711" stroke="#337E93" stroke-width="2"/>
<line x1="292.707" y1="-1.29289" x2="281.707" y2="9.70711" stroke="#337E93" stroke-width="2"/>
<line x1="298.707" y1="-1.29289" x2="287.707" y2="9.70711" stroke="#337E93" stroke-width="2"/>
<line x1="304.707" y1="-1.29289" x2="293.707" y2="9.70711" stroke="#337E93" stroke-width="2"/>
<line x1="310.707" y1="-1.29289" x2="299.707" y2="9.70711" stroke="#337E93" stroke-width="2"/>
<line x1="316.707" y1="-1.29289" x2="305.707" y2="9.70711" stroke="#337E93" stroke-width="2"/>
<line x1="322.707" y1="-1.29289" x2="311.707" y2="9.70711" stroke="#337E93" stroke-width="2"/>
<line x1="328.707" y1="-1.29289" x2="317.707" y2="9.70711" stroke="#337E93" stroke-width="2"/>
<line x1="334.707" y1="-1.29289" x2="323.707" y2="9.70711" stroke="#337E93" stroke-width="2"/>
<line x1="340.707" y1="-1.29289" x2="329.707" y2="9.70711" stroke="#337E93" stroke-width="2"/>
<line x1="346.707" y1="-1.29289" x2="335.707" y2="9.70711" stroke="#337E93" stroke-width="2"/>
<line x1="352.707" y1="-1.29289" x2="341.707" y2="9.70711" stroke="#337E93" stroke-width="2"/>
<line x1="358.707" y1="-1.29289" x2="347.707" y2="9.70711" stroke="#337E93" stroke-width="2"/>
<line x1="364.707" y1="-1.29289" x2="353.707" y2="9.70711" stroke="#337E93" stroke-width="2"/>
<line x1="370.707" y1="-1.29289" x2="359.707" y2="9.70711" stroke="#337E93" stroke-width="2"/>
<line x1="376.707" y1="-1.29289" x2="365.707" y2="9.70711" stroke="#337E93" stroke-width="2"/>
<line x1="382.707" y1="-1.29289" x2="371.707" y2="9.70711" stroke="#337E93" stroke-width="2"/>
<line x1="4.70711" y1="-1.29289" x2="-6.29289" y2="9.70711" stroke="#337E93" stroke-width="2"/>
<line x1="10.7071" y1="-1.29289" x2="-0.292893" y2="9.70711" stroke="#337E93" stroke-width="2"/>
<line x1="16.7071" y1="-1.29289" x2="5.70711" y2="9.70711" stroke="#337E93" stroke-width="2"/>
<line x1="22.7071" y1="-1.29289" x2="11.7071" y2="9.70711" stroke="#337E93" stroke-width="2"/>
<line x1="28.7071" y1="-1.29289" x2="17.7071" y2="9.70711" stroke="#337E93" stroke-width="2"/>
<line x1="34.7071" y1="-1.29289" x2="23.7071" y2="9.70711" stroke="#337E93" stroke-width="2"/>
<line x1="40.7071" y1="-1.29289" x2="29.7071" y2="9.70711" stroke="#337E93" stroke-width="2"/>
<line x1="46.7071" y1="-1.29289" x2="35.7071" y2="9.70711" stroke="#337E93" stroke-width="2"/>
<line x1="52.7071" y1="-1.29289" x2="41.7071" y2="9.70711" stroke="#337E93" stroke-width="2"/>
<line x1="58.7071" y1="-1.29289" x2="47.7071" y2="9.70711" stroke="#337E93" stroke-width="2"/>
<line x1="64.7071" y1="-1.29289" x2="53.7071" y2="9.70711" stroke="#337E93" stroke-width="2"/>
<line x1="70.7071" y1="-1.29289" x2="59.7071" y2="9.70711" stroke="#337E93" stroke-width="2"/>
<line x1="76.7071" y1="-1.29289" x2="65.7071" y2="9.70711" stroke="#337E93" stroke-width="2"/>
<line x1="82.7071" y1="-1.29289" x2="71.7071" y2="9.70711" stroke="#337E93" stroke-width="2"/>
<line x1="88.7071" y1="-1.29289" x2="77.7071" y2="9.70711" stroke="#337E93" stroke-width="2"/>
<line x1="94.7071" y1="-1.29289" x2="83.7071" y2="9.70711" stroke="#337E93" stroke-width="2"/>
<line x1="100.707" y1="-1.29289" x2="89.7071" y2="9.70711" stroke="#337E93" stroke-width="2"/>
<line x1="106.707" y1="-1.29289" x2="95.7071" y2="9.70711" stroke="#337E93" stroke-width="2"/>
<line x1="112.707" y1="-1.29289" x2="101.707" y2="9.70711" stroke="#337E93" stroke-width="2"/>
<line x1="118.707" y1="-1.29289" x2="107.707" y2="9.70711" stroke="#337E93" stroke-width="2"/>
<line x1="124.707" y1="-1.29289" x2="113.707" y2="9.70711" stroke="#337E93" stroke-width="2"/>
<line x1="130.707" y1="-1.29289" x2="119.707" y2="9.70711" stroke="#337E93" stroke-width="2"/>
<line x1="136.707" y1="-1.29289" x2="125.707" y2="9.70711" stroke="#337E93" stroke-width="2"/>
<line x1="142.707" y1="-1.29289" x2="131.707" y2="9.70711" stroke="#337E93" stroke-width="2"/>
<line x1="148.707" y1="-1.29289" x2="137.707" y2="9.70711" stroke="#337E93" stroke-width="2"/>
<line x1="154.707" y1="-1.29289" x2="143.707" y2="9.70711" stroke="#337E93" stroke-width="2"/>
<line x1="160.707" y1="-1.29289" x2="149.707" y2="9.70711" stroke="#337E93" stroke-width="2"/>
<line x1="166.707" y1="-1.29289" x2="155.707" y2="9.70711" stroke="#337E93" stroke-width="2"/>
<line x1="172.707" y1="-1.29289" x2="161.707" y2="9.70711" stroke="#337E93" stroke-width="2"/>
<line x1="178.707" y1="-1.29289" x2="167.707" y2="9.70711" stroke="#337E93" stroke-width="2"/>
<line x1="184.707" y1="-1.29289" x2="173.707" y2="9.70711" stroke="#337E93" stroke-width="2"/>
<line x1="190.707" y1="-1.29289" x2="179.707" y2="9.70711" stroke="#337E93" stroke-width="2"/>
</svg>
