<svg width="188" height="40" viewBox="0 0 188 40" fill="none" xmlns="http://www.w3.org/2000/svg">
<path fill-rule="evenodd" clip-rule="evenodd" d="M9.40905 12.28V14.7619H0.131775V1.92578H3.25811V12.28H9.40905Z" fill="#87A2B1"/>
<path fill-rule="evenodd" clip-rule="evenodd" d="M14.6762 12.8353C14.9692 12.8353 15.2507 12.8308 15.5171 12.8174C15.7851 12.8052 15.9994 12.7866 16.1591 12.7617V10.6682C16.0386 10.6438 15.8588 10.6192 15.6185 10.5954C15.3788 10.5699 15.1562 10.5568 14.9574 10.5568C14.6762 10.5568 14.4128 10.5735 14.1646 10.6046C13.919 10.6341 13.7011 10.6938 13.5131 10.7796C13.3261 10.8651 13.1802 10.9835 13.0742 11.1324C12.9672 11.2803 12.9126 11.4644 12.9126 11.6866C12.9126 12.1188 13.0703 12.4196 13.384 12.5848C13.6968 12.7532 14.1281 12.8353 14.6762 12.8353ZM14.4362 4.75879C15.3179 4.75879 16.0524 4.85193 16.6394 5.03607C17.2277 5.22266 17.6989 5.48837 18.0521 5.83293C18.4073 6.17809 18.6572 6.59965 18.8037 7.09304C18.9509 7.58734 19.024 8.13704 19.024 8.74031V14.4848C18.5967 14.5709 18.0017 14.6732 17.2416 14.7898C16.4797 14.906 15.5582 14.966 14.4754 14.966C13.7946 14.966 13.1769 14.9109 12.6219 14.7995C12.0674 14.6881 11.5901 14.5061 11.1891 14.2519C10.7894 14.0011 10.4816 13.6697 10.2679 13.2618C10.0549 12.8539 9.94623 12.3538 9.94623 11.7618C9.94623 11.193 10.071 10.7111 10.3179 10.3161C10.5652 9.92098 10.8957 9.60687 11.3102 9.37158C11.7241 9.13752 12.1985 8.96707 12.7331 8.86206C13.2675 8.75705 13.8219 8.70379 14.3951 8.70379C14.7826 8.70379 15.1266 8.72144 15.4285 8.75096C15.7284 8.78262 15.9711 8.82219 16.1591 8.8718V8.61217C16.1591 8.14313 16.0056 7.76692 15.6985 7.48142C15.3906 7.19866 14.8563 7.05682 14.0942 7.05682C13.5878 7.05682 13.0864 7.0903 12.5916 7.15878C12.0974 7.22574 11.671 7.32162 11.3102 7.44368L10.9296 5.22266C11.1028 5.17274 11.3194 5.12039 11.5802 5.06529C11.8409 5.00777 12.1244 4.96028 12.4322 4.91767C12.7397 4.87323 13.064 4.8358 13.4034 4.80505C13.7445 4.77401 14.0879 4.75879 14.4362 4.75879Z" fill="#87A2B1"/>
<path fill-rule="evenodd" clip-rule="evenodd" d="M27.502 9.59315C27.502 8.70376 27.3786 8.07493 27.1316 7.7045C26.8847 7.33499 26.46 7.14902 25.8595 7.14902C25.6725 7.14902 25.4779 7.15876 25.2784 7.17672C25.0783 7.19498 24.8847 7.21629 24.698 7.24216V14.7617H21.7119V5.35199C21.9657 5.29142 22.2621 5.22415 22.6028 5.15689C22.9436 5.08993 23.3044 5.02814 23.6856 4.97122C24.0672 4.91765 24.4557 4.87352 24.8573 4.84247C25.258 4.81142 25.6514 4.79651 26.0412 4.79651C26.8011 4.79651 27.42 4.88508 27.8938 5.06558C28.3676 5.24303 28.7587 5.45791 29.0655 5.70476C29.4929 5.42109 29.9837 5.19737 30.5372 5.03636C31.0926 4.87686 31.6039 4.79651 32.0714 4.79651C32.9125 4.79651 33.6039 4.90456 34.1442 5.12036C34.6848 5.33738 35.117 5.64237 35.437 6.03714C35.757 6.43222 35.9766 6.90308 36.0978 7.44365C36.2199 7.99001 36.2789 8.5948 36.2789 9.26016V14.7617H33.2934V9.59315C33.2934 8.70376 33.1697 8.07493 32.9224 7.7045C32.6755 7.33499 32.2508 7.14902 31.6503 7.14902C31.4899 7.14902 31.2651 7.18554 30.9793 7.25951C30.6926 7.33499 30.4542 7.426 30.2675 7.5374C30.3607 7.8226 30.4196 8.1221 30.4486 8.43561C30.4746 8.75094 30.4884 9.08667 30.4884 9.44552V14.7617H27.502V9.59315Z" fill="#4F667C"/>
<path fill-rule="evenodd" clip-rule="evenodd" d="M44.694 8.90797C44.6805 8.6733 44.637 8.44562 44.5636 8.22282C44.4896 7.99971 44.3776 7.80339 44.2229 7.62929C44.0688 7.45823 43.8749 7.31457 43.6425 7.20469C43.4071 7.09329 43.117 7.03759 42.7703 7.03759C42.4365 7.03759 42.1497 7.09055 41.9101 7.19495C41.6674 7.30148 41.4679 7.43936 41.3086 7.61194C41.1472 7.78513 41.0238 7.9851 40.9372 8.21308C40.8509 8.44228 40.7874 8.6733 40.7463 8.90797H44.694ZM37.681 9.96536C37.681 9.10002 37.8242 8.34396 38.1126 7.69594C38.3991 7.0458 38.776 6.50827 39.2432 6.07484C39.711 5.64233 40.2483 5.31452 40.8564 5.09141C41.4645 4.86952 42.0881 4.75903 42.7294 4.75903C44.2264 4.75903 45.4086 5.1815 46.2761 6.02767C47.1453 6.87383 47.5792 8.12054 47.5792 9.76021C47.5792 9.92122 47.5739 10.0984 47.5588 10.2892C47.5456 10.4791 47.5321 10.6505 47.52 10.7981H40.7461C40.8136 11.3664 41.1004 11.8178 41.6087 12.1499C42.1154 12.4844 42.7962 12.6512 43.6522 12.6512C44.1997 12.6512 44.7367 12.6046 45.2648 12.5111C45.7925 12.4198 46.2231 12.3048 46.5573 12.1684L46.958 14.4098C46.797 14.485 46.5843 14.5572 46.317 14.6326C46.0496 14.7063 45.7527 14.7711 45.4251 14.8265C45.0978 14.8825 44.7482 14.9285 44.3732 14.9662C43.9989 15.0037 43.6255 15.021 43.2512 15.021C42.3024 15.021 41.4777 14.8923 40.7774 14.6326C40.0768 14.3727 39.4941 14.019 39.0348 13.567C38.5722 13.1172 38.2328 12.5827 38.0119 11.966C37.7917 11.3481 37.681 10.6816 37.681 9.96536Z" fill="#4F667C"/>
<path fill-rule="evenodd" clip-rule="evenodd" d="M49.0809 5.35199C49.5895 5.21441 50.244 5.08993 51.045 4.97122C51.846 4.85556 52.6885 4.79651 53.5699 4.79651C54.465 4.79651 55.2098 4.90456 55.8043 5.12036C56.3986 5.33738 56.87 5.64237 57.2167 6.03714C57.5637 6.43222 57.812 6.90308 57.9571 7.44396C58.106 7.99001 58.1787 8.5948 58.1787 9.26016V14.762H55.193V9.59315C55.193 8.70376 55.0659 8.07493 54.8111 7.7045C54.5582 7.33499 54.0835 7.14902 53.3898 7.14902C53.1761 7.14902 52.9486 7.15876 52.7083 7.17672C52.4686 7.19498 52.2533 7.21629 52.0673 7.24216V14.762H49.0809V5.35199Z" fill="#4F667C"/>
<path fill-rule="evenodd" clip-rule="evenodd" d="M59.9816 2.59185L62.967 2.14746V5.01863H66.5533V7.31453H62.967V10.7436C62.967 11.3234 63.077 11.7864 63.2985 12.1313C63.5188 12.4782 63.9632 12.6511 64.6306 12.6511C64.9522 12.6511 65.2815 12.6228 65.6222 12.5668C65.963 12.5111 66.2741 12.4347 66.5533 12.334L66.9753 14.485C66.6135 14.6207 66.2145 14.7379 65.772 14.8368C65.3322 14.9348 64.7903 14.9839 64.1499 14.9839C63.3351 14.9839 62.6592 14.8825 62.1248 14.6783C61.5905 14.4743 61.1641 14.1913 60.8438 13.8278C60.5241 13.462 60.3006 13.0206 60.1728 12.5032C60.0454 11.9833 59.9816 11.4096 59.9816 10.7798V2.59185Z" fill="#4F667C"/>
<path fill-rule="evenodd" clip-rule="evenodd" d="M74.2865 8.90797C74.274 8.6733 74.2299 8.44562 74.1571 8.22282C74.0844 7.99971 73.9711 7.80339 73.8177 7.62929C73.6633 7.45823 73.469 7.31457 73.2369 7.20469C73.0009 7.09329 72.7111 7.03759 72.3635 7.03759C72.031 7.03759 71.7439 7.09055 71.5025 7.19495C71.2622 7.30148 71.061 7.43936 70.9017 7.61194C70.7404 7.78513 70.6176 7.9851 70.531 8.21308C70.4441 8.44228 70.3802 8.6733 70.3414 8.90797H74.2865ZM67.2746 9.96536C67.2746 9.10002 67.4185 8.34396 67.7059 7.69594C67.9917 7.0458 68.3703 6.50827 68.8374 6.07484C69.3056 5.64233 69.8439 5.31452 70.4493 5.09141C71.0594 4.86952 71.6836 4.75903 72.3253 4.75903C73.8183 4.75903 75.0019 5.1815 75.87 6.02767C76.7399 6.87383 77.1731 8.12054 77.1731 9.76021C77.1731 9.92122 77.1662 10.0984 77.152 10.2892C77.1395 10.4791 77.1264 10.6505 77.1135 10.7981H70.3413C70.4069 11.3664 70.6939 11.8178 71.2029 12.1499C71.7103 12.4844 72.3911 12.6512 73.2474 12.6512C73.7926 12.6512 74.3326 12.6046 74.8593 12.5111C75.3857 12.4198 75.8177 12.3048 76.1502 12.1684L76.5519 14.4098C76.3922 14.485 76.1785 14.5572 75.9109 14.6326C75.6439 14.7063 75.3469 14.7711 75.019 14.8265C74.6924 14.8825 74.3414 14.9285 73.9665 14.9662C73.5938 15.0037 73.2181 15.021 72.8448 15.021C71.8963 15.021 71.0716 14.8923 70.3713 14.6326C69.6694 14.3727 69.0893 14.019 68.6267 13.567C68.1675 13.1172 67.8267 12.5827 67.6051 11.966C67.3855 11.3481 67.2746 10.6816 67.2746 9.96536Z" fill="#4F667C"/>
<path fill-rule="evenodd" clip-rule="evenodd" d="M85.8227 8.90797C85.8102 8.6733 85.7661 8.44562 85.6933 8.22282C85.6199 7.99971 85.5063 7.80339 85.3526 7.62929C85.1991 7.45823 85.0052 7.31457 84.7711 7.20469C84.5371 7.09329 84.248 7.03759 83.9007 7.03759C83.5665 7.03759 83.2781 7.09055 83.0388 7.19495C82.7978 7.30148 82.5973 7.43936 82.4379 7.61194C82.2782 7.78513 82.1531 7.9851 82.0652 8.21308C81.9796 8.44228 81.9164 8.6733 81.8766 8.90797H85.8227ZM78.8109 9.96536C78.8109 9.10002 78.9535 8.34396 79.2419 7.69594C79.528 7.0458 79.9059 6.50827 80.3731 6.07484C80.8403 5.64233 81.3782 5.31452 81.9863 5.09141C82.5937 4.86952 83.2199 4.75903 83.8609 4.75903C85.3556 4.75903 86.5391 5.1815 87.4063 6.02767C88.2751 6.87383 88.7077 8.12054 88.7077 9.76021C88.7077 9.92122 88.7015 10.0984 88.69 10.2892C88.6761 10.4791 88.6617 10.6505 88.6491 10.7981H81.8767C81.9432 11.3664 82.2286 11.8178 82.7382 12.1499C83.2456 12.4844 83.9271 12.6512 84.7821 12.6512C85.3279 12.6512 85.8672 12.6046 86.3953 12.5111C86.922 12.4198 87.353 12.3048 87.6872 12.1684L88.0881 14.4098C87.9278 14.485 87.7132 14.5572 87.4452 14.6326C87.1792 14.7063 86.8805 14.7711 86.5543 14.8265C86.2274 14.8825 85.8771 14.9285 85.5037 14.9662C85.1294 15.0037 84.7544 15.021 84.3811 15.021C83.4326 15.021 82.6082 14.8923 81.9066 14.6326C81.2057 14.3727 80.6236 14.019 80.163 13.567C79.7018 13.1172 79.3624 12.5827 79.1415 11.966C78.9199 11.3481 78.8109 10.6816 78.8109 9.96536Z" fill="#87A2B1"/>
<path fill-rule="evenodd" clip-rule="evenodd" d="M93.2375 12.7797C93.7847 12.7797 94.1729 12.7304 94.4 12.6308C94.6262 12.5325 94.7394 12.3405 94.7394 12.0574C94.7394 11.8349 94.5933 11.6404 94.2989 11.4751C94.0053 11.3077 93.5575 11.119 92.9567 10.9093C92.4882 10.7486 92.0655 10.5815 91.6842 10.4095C91.3036 10.2366 90.9803 10.0287 90.7117 9.78797C90.445 9.54721 90.2393 9.26018 90.0911 8.92537C89.9439 8.59452 89.8712 8.19152 89.8712 7.72309C89.8712 6.80936 90.2393 6.08647 90.9734 5.55534C91.7083 5.0239 92.717 4.75879 93.9993 4.75879C94.6404 4.75879 95.2544 4.81114 95.8417 4.91737C96.43 5.02146 96.8972 5.135 97.2462 5.26009L96.7234 7.40746C96.3764 7.29605 95.9994 7.19865 95.5915 7.11282C95.1836 7.02577 94.7283 6.98285 94.2183 6.98285C93.2846 6.98285 92.8181 7.22179 92.8181 7.70422C92.8181 7.81562 92.8368 7.91393 92.8747 7.99946C92.9165 8.08652 92.9975 8.16991 93.1167 8.25118C93.2375 8.33245 93.3998 8.41737 93.6079 8.51112C93.8147 8.60426 94.079 8.70653 94.4 8.81914C95.0545 9.04316 95.5945 9.26505 96.0224 9.48238C96.4504 9.70092 96.7876 9.93559 97.0348 10.1879C97.2814 10.4412 97.4552 10.7206 97.5563 11.028C97.6551 11.3369 97.7055 11.6946 97.7055 12.0997C97.7055 13.0618 97.3133 13.7896 96.5334 14.283C95.7515 14.7748 94.6459 15.0208 93.2171 15.0208C92.2828 15.0208 91.5041 14.948 90.8839 14.7995C90.261 14.6504 89.8323 14.5274 89.591 14.4288L90.0911 12.1877C90.5998 12.3715 91.1193 12.5176 91.6533 12.6223C92.1886 12.7273 92.717 12.7797 93.2375 12.7797Z" fill="#87A2B1"/>
<path fill-rule="evenodd" clip-rule="evenodd" d="M10.7763 28.2305C10.7763 26.5753 10.5458 25.4038 10.0859 24.7144C9.62499 24.0241 8.83748 23.6801 7.71844 23.6801C7.36979 23.6801 7.01094 23.6978 6.63759 23.7325C6.26491 23.7672 5.90375 23.8061 5.55576 23.853V37.8488H6.10352e-05V20.336C0.472172 20.2218 1.02527 20.101 1.66002 19.975C2.29214 19.848 2.96409 19.733 3.67291 19.6292C4.38141 19.5257 5.10867 19.4466 5.85436 19.3878C6.59907 19.3315 7.33325 19.3014 8.05426 19.3014C9.47059 19.3014 10.6216 19.4685 11.5032 19.8024C12.3859 20.1348 13.1125 20.5314 13.6844 20.9916C14.4801 20.4626 15.3937 20.0486 16.4252 19.7503C17.457 19.4521 18.4071 19.3014 19.2782 19.3014C20.845 19.3014 22.131 19.5029 23.1371 19.9062C24.1439 20.308 24.9459 20.8765 25.5434 21.6122C26.1396 22.3473 26.5489 23.2208 26.7721 24.2307C26.997 25.2437 27.1082 26.3699 27.1082 27.6111V37.8488H21.5525V28.2305C21.5525 26.5753 21.3224 25.4038 20.8625 24.7144C20.4029 24.0241 19.6141 23.6801 18.4957 23.6801C18.1977 23.6801 17.7799 23.7486 17.2453 23.8868C16.7113 24.0241 16.2698 24.1973 15.9228 24.4039C16.0959 24.9332 16.2072 25.4896 16.2576 26.0759C16.308 26.6627 16.332 27.2876 16.332 27.9554V37.8488H10.7763V28.2305Z" fill="#4F667C"/>
<path fill-rule="evenodd" clip-rule="evenodd" d="M38.1472 34.2633C38.693 34.2633 39.2145 34.252 39.712 34.2292C40.2101 34.2063 40.6068 34.1713 40.9054 34.1248V30.2309C40.6809 30.1846 40.3464 30.1387 39.8986 30.0918C39.4519 30.0468 39.0413 30.023 38.6683 30.023C38.1472 30.023 37.6546 30.0519 37.1944 30.1091C36.7354 30.1667 36.3311 30.2766 35.9835 30.437C35.6345 30.5977 35.3626 30.8156 35.1624 31.092C34.9645 31.368 34.8644 31.7126 34.8644 32.1256C34.8644 32.9304 35.1568 33.4877 35.7412 33.7979C36.3252 34.1083 37.1262 34.2633 38.1472 34.2633ZM37.699 19.2321C39.3396 19.2321 40.7049 19.4052 41.8005 19.7501C42.8932 20.0943 43.7703 20.5899 44.4294 21.2321C45.0865 21.8768 45.5537 22.6578 45.8273 23.5776C46.1019 24.4959 46.2385 25.5192 46.2385 26.6445V37.3314C45.4421 37.4927 44.3362 37.6811 42.9193 37.8994C41.5026 38.1191 39.7863 38.229 37.7738 38.229C36.5056 38.229 35.3556 38.1246 34.3245 37.9173C33.2917 37.7107 32.4048 37.3722 31.6587 36.9013C30.912 36.4305 30.3395 35.815 29.9428 35.0568C29.5448 34.2977 29.3456 33.3669 29.3456 32.2636C29.3456 31.2068 29.5754 30.3119 30.036 29.5753C30.4952 28.839 31.1112 28.2534 31.8823 27.8176C32.6523 27.3805 33.5343 27.0648 34.5299 26.8694C35.5232 26.6746 36.555 26.5751 37.624 26.5751C38.3447 26.5751 38.9857 26.6052 39.544 26.6625C40.1034 26.7203 40.5564 26.7946 40.9054 26.8868V26.4046C40.9054 25.5305 40.6189 24.8301 40.0481 24.3005C39.4759 23.7715 38.4816 23.5079 37.0636 23.5079C36.1207 23.5079 35.1864 23.5709 34.2675 23.6978C33.3477 23.8239 32.5536 24.0025 31.8823 24.2308L31.1728 20.0943C31.4958 20.0027 31.8997 19.9062 32.3857 19.8021C32.8699 19.6977 33.398 19.6064 33.9699 19.5258C34.5418 19.4463 35.1439 19.3766 35.7777 19.3191C36.4131 19.2616 37.0521 19.2321 37.699 19.2321Z" fill="#4F667C"/>
<path fill-rule="evenodd" clip-rule="evenodd" d="M61.601 24.266C61.1029 24.1516 60.5185 24.031 59.8475 23.9047C59.1756 23.7781 58.4556 23.7151 57.6848 23.7151C57.3359 23.7151 56.9204 23.7437 56.4357 23.8009C55.9505 23.8588 55.5834 23.9209 55.3361 23.9896V37.8487H49.7791V20.6817C50.7737 20.3594 51.9481 20.0553 53.3032 19.7689C54.6586 19.4806 56.1687 19.3367 57.8343 19.3367C58.1323 19.3367 58.4928 19.3537 58.9148 19.3881C59.3372 19.4225 59.7603 19.4685 60.183 19.526C60.6047 19.5835 61.0271 19.6538 61.4515 19.733C61.8739 19.8124 62.2334 19.9113 62.532 20.0258L61.601 24.266Z" fill="#4F667C"/>
<path fill-rule="evenodd" clip-rule="evenodd" d="M71.1454 34.2633C71.6925 34.2633 72.214 34.252 72.7118 34.2292C73.2086 34.2063 73.6057 34.1713 73.9053 34.1248V30.2309C73.6821 30.1846 73.3459 30.1387 72.8982 30.0918C72.4514 30.0468 72.0418 30.023 71.6675 30.023C71.1454 30.023 70.6542 30.0519 70.1939 30.1091C69.734 30.1667 69.3307 30.2766 68.983 30.437C68.6347 30.5977 68.3608 30.8156 68.1626 31.092C67.9647 31.368 67.8646 31.7126 67.8646 32.1256C67.8646 32.9304 68.1566 33.4877 68.741 33.7979C69.3251 34.1083 70.1267 34.2633 71.1454 34.2633ZM70.6976 19.2321C72.3394 19.2321 73.7051 19.4052 74.8007 19.7501C75.8928 20.0943 76.7705 20.5899 77.4286 21.2321C78.0864 21.8768 78.5546 22.6578 78.8275 23.5776C79.1008 24.4959 79.2374 25.5192 79.2374 26.6445V37.3314C78.441 37.4927 77.3364 37.6811 75.9178 37.8994C74.5021 38.1191 72.7865 38.229 70.7723 38.229C69.5061 38.229 68.3552 38.1246 67.324 37.9173C66.2916 37.7107 65.4036 37.3722 64.6573 36.9013C63.9119 36.4305 63.3401 35.815 62.9427 35.0568C62.5443 34.2977 62.3455 33.3669 62.3455 32.2636C62.3455 31.2068 62.5749 30.3119 63.0358 29.5753C63.4948 28.839 64.1111 28.2534 64.8808 27.8176C65.6515 27.3805 66.5342 27.0648 67.5281 26.8694C68.5224 26.6746 69.5549 26.5751 70.6235 26.5751C71.3449 26.5751 71.9849 26.6052 72.5436 26.6625C73.1039 26.7203 73.5559 26.7946 73.9052 26.8868V26.4046C73.9052 25.5305 73.6191 24.8301 73.0473 24.3005C72.4761 23.7715 71.4815 23.5079 70.0645 23.5079C69.1196 23.5079 68.1866 23.5709 67.2674 23.6978C66.3485 23.8239 65.5528 24.0025 64.8808 24.2308L64.1727 20.0943C64.496 20.0027 64.8999 19.9062 65.3855 19.8021C65.8695 19.6977 66.3982 19.6064 66.9694 19.5258C67.542 19.4463 68.1438 19.3766 68.7779 19.3191C69.412 19.2616 70.0523 19.2321 70.6976 19.2321Z" fill="#4F667C"/>
<path fill-rule="evenodd" clip-rule="evenodd" d="M87.6561 37.8488C86.3829 35.5513 85.092 32.8619 83.7817 29.7813C82.4714 26.702 81.2302 23.3471 80.0582 19.7159H85.9497C86.1989 20.6129 86.4919 21.5833 86.8297 22.6282C87.1658 23.6752 87.5161 24.7317 87.8776 25.7995C88.2395 26.8697 88.6023 27.9097 88.9647 28.9211C89.3266 29.9326 89.6831 30.8506 90.0331 31.6785C90.3567 30.8506 90.706 29.9326 91.08 28.9211C91.4544 27.9097 91.8214 26.8697 92.1839 25.7995C92.5457 24.7317 92.896 23.6752 93.2325 22.6282C93.5696 21.5833 93.8623 20.6129 94.1122 19.7159H99.8582C98.6861 23.3471 97.4463 26.702 96.1373 29.7813C94.8286 32.8619 93.5377 35.5513 92.2662 37.8488H87.6561Z" fill="#4F667C"/>
<path fill-rule="evenodd" clip-rule="evenodd" d="M101.311 37.8487H106.869V19.7159H101.311V37.8487ZM107.39 14.4753C107.39 15.4189 107.06 16.1603 106.402 16.6991C105.744 17.239 104.967 17.509 104.072 17.509C103.177 17.509 102.4 17.239 101.742 16.6991C101.083 16.1603 100.753 15.4189 100.753 14.4753C100.753 13.5333 101.083 12.7909 101.742 12.2518C102.4 11.7128 103.177 11.4413 104.072 11.4413C104.967 11.4413 105.744 11.7128 106.402 12.2518C107.06 12.7909 107.39 13.5333 107.39 14.4753Z" fill="#4F667C"/>
<path fill-rule="evenodd" clip-rule="evenodd" d="M118.426 38.1936C116.811 38.1708 115.499 38.0092 114.493 37.7106C113.487 37.4123 112.69 36.9929 112.107 36.4514C111.523 35.913 111.124 35.2576 110.913 34.4876C110.702 33.7175 110.596 32.8497 110.596 31.8846V11.924L116.153 11.0979V30.8503C116.153 31.3099 116.189 31.7238 116.264 32.0912C116.339 32.4598 116.482 32.77 116.693 33.0226C116.904 33.2765 117.208 33.4813 117.607 33.6435C118.004 33.8033 118.539 33.9068 119.211 33.9534L118.426 38.1936Z" fill="#4F667C"/>
<path fill-rule="evenodd" clip-rule="evenodd" d="M128.717 38.1936C127.101 38.1708 125.791 38.0092 124.784 37.7106C123.778 37.4123 122.98 36.9929 122.398 36.4514C121.813 35.913 121.416 35.2576 121.205 34.4876C120.994 33.7175 120.888 32.8497 120.888 31.8846V11.924L126.443 11.0979V30.8503C126.443 31.3099 126.48 31.7238 126.555 32.0912C126.629 32.4598 126.773 32.77 126.985 33.0226C127.196 33.2765 127.5 33.4813 127.898 33.6435C128.296 33.8033 128.831 33.9068 129.502 33.9534L128.717 38.1936Z" fill="#4F667C"/>
<path fill-rule="evenodd" clip-rule="evenodd" d="M161.365 34.1593C162.384 34.1593 163.106 34.0683 163.527 33.8845C163.95 33.7 164.162 33.3439 164.162 32.8158C164.162 32.4012 163.888 32.0406 163.341 31.7292C162.794 31.419 161.962 31.0684 160.843 30.6782C159.973 30.3799 159.184 30.0697 158.476 29.7471C157.767 29.426 157.164 29.0406 156.666 28.5932C156.169 28.1437 155.784 27.611 155.511 26.9895C155.239 26.3698 155.102 25.6225 155.102 24.7487C155.102 23.0487 155.784 21.7037 157.152 20.716C158.519 19.7274 160.396 19.2322 162.782 19.2322C163.976 19.2322 165.118 19.3314 166.212 19.5259C167.306 19.7207 168.176 19.9344 168.823 20.1639L167.854 24.1621C167.206 23.9555 166.505 23.7716 165.747 23.6112C164.988 23.4502 164.136 23.3701 163.194 23.3701C161.451 23.3701 160.584 23.8182 160.584 24.7146C160.584 24.9203 160.62 25.106 160.693 25.2667C160.769 25.4277 160.918 25.5814 161.142 25.7306C161.365 25.8818 161.669 26.0423 162.056 26.2157C162.441 26.3905 162.932 26.5816 163.527 26.7898C164.746 27.2059 165.752 27.6192 166.548 28.0225C167.344 28.4282 167.971 28.8665 168.431 29.3362C168.89 29.8068 169.214 30.3291 169.401 30.9019C169.587 31.475 169.681 32.1392 169.681 32.8965C169.681 34.6862 168.954 36.0391 167.5 36.9553C166.045 37.8715 163.988 38.3323 161.328 38.3323C159.588 38.3323 158.141 38.1938 156.984 37.9174C155.829 37.642 155.027 37.4125 154.579 37.2292L155.511 33.0569C156.455 33.402 157.425 33.6717 158.42 33.8668C159.413 34.0634 160.396 34.1593 161.365 34.1593Z" fill="#4F667C"/>
<path fill-rule="evenodd" clip-rule="evenodd" d="M179.408 34.2633C179.955 34.2633 180.475 34.252 180.975 34.2292C181.471 34.2063 181.868 34.1713 182.168 34.1248V30.2309C181.944 30.1846 181.608 30.1387 181.161 30.0918C180.714 30.0468 180.303 30.023 179.93 30.023C179.408 30.023 178.917 30.0519 178.457 30.1091C177.997 30.1667 177.593 30.2766 177.246 30.437C176.896 30.5977 176.623 30.8156 176.425 31.092C176.227 31.368 176.126 31.7126 176.126 32.1256C176.126 32.9304 176.419 33.4877 177.003 33.7979C177.588 34.1083 178.388 34.2633 179.408 34.2633ZM178.961 19.2321C180.602 19.2321 181.968 19.4052 183.063 19.7501C184.155 20.0943 185.032 20.5899 185.691 21.2321C186.349 21.8768 186.817 22.6578 187.09 23.5776C187.362 24.4959 187.5 25.5192 187.5 26.6445V37.3314C186.704 37.4927 185.598 37.6811 184.181 37.8994C182.765 38.1191 181.048 38.229 179.036 38.229C177.768 38.229 176.618 38.1246 175.586 37.9173C174.553 37.7107 173.666 37.3722 172.92 36.9013C172.174 36.4305 171.602 35.815 171.205 35.0568C170.807 34.2977 170.608 33.3669 170.608 32.2636C170.608 31.2068 170.838 30.3119 171.298 29.5753C171.758 28.839 172.374 28.2534 173.142 27.8176C173.914 27.3805 174.797 27.0648 175.79 26.8694C176.784 26.6746 177.817 26.5751 178.885 26.5751C179.607 26.5751 180.247 26.6052 180.807 26.6625C181.366 26.7203 181.818 26.7946 182.168 26.8868V26.4046C182.168 25.5305 181.881 24.8301 181.309 24.3005C180.738 23.7715 179.744 23.5079 178.327 23.5079C177.382 23.5079 176.448 23.5709 175.53 23.6978C174.611 23.8239 173.815 24.0025 173.142 24.2308L172.435 20.0943C172.759 20.0027 173.162 19.9062 173.648 19.8021C174.131 19.6977 174.659 19.6064 175.231 19.5258C175.805 19.4463 176.406 19.3766 177.04 19.3191C177.674 19.2616 178.314 19.2321 178.961 19.2321Z" fill="#4F667C"/>
<path fill-rule="evenodd" clip-rule="evenodd" d="M138.974 1.32092C138.672 1.32092 138.38 1.35714 138.103 1.42593C139.161 2.51164 140.202 4.28492 141.094 6.95551C141.882 6.37659 142.388 5.48325 142.388 4.47911C142.388 2.73657 140.858 1.32092 138.974 1.32092Z" fill="#992A76"/>
<path fill-rule="evenodd" clip-rule="evenodd" d="M138.102 1.42603C136.637 1.78184 135.557 3.01425 135.557 4.47951C135.557 6.22266 137.089 7.63739 138.974 7.63739C139.774 7.63739 140.51 7.38324 141.094 6.9556C140.202 4.28501 139.161 2.51173 138.102 1.42603Z" fill="#D576AC"/>
<path fill-rule="evenodd" clip-rule="evenodd" d="M157.148 7.38997C155.035 7.30535 153.246 8.82266 153.157 10.7783C153.105 11.8832 153.609 12.8922 154.437 13.5755C156.982 11.1837 159.064 10.0673 160.598 9.74553C160.092 8.42302 158.757 7.45206 157.148 7.38997Z" fill="#D22724"/>
<path fill-rule="evenodd" clip-rule="evenodd" d="M160.598 9.74536C159.065 10.0671 156.983 11.1835 154.438 13.5753C155.076 14.1013 155.903 14.4339 156.822 14.4699C158.938 14.552 160.726 13.0357 160.816 11.0782C160.836 10.6119 160.759 10.1617 160.598 9.74536Z" fill="#F29325"/>
<path fill-rule="evenodd" clip-rule="evenodd" d="M146.245 6.87513C147.125 7.74199 147.076 8.53215 146.659 9.1899C146.731 9.21425 146.803 9.23282 146.874 9.25869C147.387 9.45045 147.881 9.68573 148.367 9.94079C151.041 8.37326 150.44 5.76021 150.283 5.22938C149.991 4.22585 149.363 3.33252 148.215 3.20468C146.924 3.06375 145.75 3.91691 145.598 5.11006C145.511 5.78577 145.775 6.41857 146.248 6.8727L146.245 6.87513Z" fill="#5567A8"/>
<path fill-rule="evenodd" clip-rule="evenodd" d="M152.422 16.8358C151.862 15.5769 151.005 14.4163 149.85 13.3568C148.715 12.3143 147.464 11.5385 146.1 11.0283C144.814 10.5505 143.504 10.3121 142.167 10.3121C142.082 10.3121 141.999 10.313 141.915 10.3146C140.491 10.3471 139.07 10.6603 137.648 11.253C137.621 11.266 137.592 11.2803 137.564 11.2931L152.152 24.685C152.165 24.6594 152.181 24.6354 152.194 24.6068C152.835 23.2995 153.174 21.9913 153.21 20.6843C153.245 19.3767 152.983 18.095 152.422 16.8358Z" fill="#4F667C"/>
<mask id="mask0_5_5188" style="mask-type:alpha" maskUnits="userSpaceOnUse" x="130" y="24" width="23" height="16">
<path fill-rule="evenodd" clip-rule="evenodd" d="M130.788 24.3209H152.938V40H130.788V24.3209Z" fill="white"/>
</mask>
<g mask="url(#mask0_5_5188)">
<path fill-rule="evenodd" clip-rule="evenodd" d="M136.395 33.5536H147.681C147.681 33.5536 141.987 41.9467 136.395 33.5536ZM152.152 24.3209H131.593C131.059 25.9995 130.788 27.2913 130.788 28.8969C130.788 30.5347 132.59 40.0002 141.884 40.0002C151.176 40.0002 152.938 30.4897 152.938 28.8518C152.938 27.2454 152.672 25.9995 152.152 24.3209Z" fill="#4F667C"/>
</g>
<path fill-rule="evenodd" clip-rule="evenodd" d="M153.712 4.68515C153.57 3.71267 153.409 3.48835 152.949 3.21958C152.349 2.86864 151.554 3.03331 151.175 3.58818C150.794 4.14397 150.974 4.87873 151.574 5.22937C152.793 5.90264 151.49 7.47504 151.476 7.49483C153.046 6.81455 153.852 5.65549 153.712 4.68515Z" fill="#A762A4"/>
<path fill-rule="evenodd" clip-rule="evenodd" d="M161.653 9.64812C161.336 9.63381 160.986 9.66334 160.598 9.74521C160.759 10.1616 160.836 10.6118 160.816 11.0781C160.726 13.0355 158.938 14.5519 156.822 14.47C155.903 14.4341 155.076 14.1011 154.437 13.5752C154.391 13.6199 154.342 13.6653 154.297 13.7085C154.005 13.9864 153.723 14.2591 153.448 14.5275C153.784 15.0413 154.09 15.5649 154.332 16.1103C154.478 16.4387 154.599 16.7699 154.712 17.1029C156.171 16.2156 157.812 15.4586 159.609 15.0142C164.395 13.8333 164.685 9.76622 161.653 9.64812Z" fill="#ED7226"/>
<path fill-rule="evenodd" clip-rule="evenodd" d="M135.774 10.0153L136.616 9.59827C136.669 9.57027 136.724 9.5447 136.798 9.51274C138.361 8.86199 139.956 8.50617 141.543 8.43008C141.536 8.40451 141.53 8.38168 141.523 8.35612C141.386 7.86394 141.241 7.39703 141.094 6.95569C140.51 7.38334 139.774 7.63749 138.974 7.63749C137.089 7.63749 135.556 6.22276 135.556 4.4796C135.556 3.01434 136.637 1.78193 138.102 1.42612C137.124 0.420159 136.128 0.00012207 135.226 0.00012207C131.85 0.00164394 129.725 5.85538 134.29 8.85712C134.821 9.20623 135.312 9.59705 135.774 10.0153Z" fill="#D35E9E"/>
<path fill-rule="evenodd" clip-rule="evenodd" d="M135.695 15.1488C133.72 15.1488 132.12 16.6281 132.12 18.4534C132.12 19.288 132.455 20.0511 133.007 20.6327C134.165 19.2207 135.997 18.3097 138.06 18.3097C138.473 18.3097 138.878 18.345 139.269 18.4147C139.247 16.6077 137.655 15.1488 135.695 15.1488Z" fill="#ACCD6C"/>
<path fill-rule="evenodd" clip-rule="evenodd" d="M147.912 23.4817L141.028 17.1616C139.427 18.4029 138.409 20.2623 138.409 22.3439C138.409 22.7332 138.458 23.1109 138.528 23.4817H147.912Z" fill="#F29325"/>
<path fill-rule="evenodd" clip-rule="evenodd" d="M144.347 23.4815C144.1 20.8721 141.596 19.3055 141.596 19.3055C140.904 18.8748 140.116 18.5677 139.269 18.4149V18.4536C139.269 20.2783 137.671 21.7579 135.696 21.7579C134.623 21.7579 133.663 21.3223 133.007 20.6329C132.343 21.4422 131.921 22.4211 131.786 23.4815H144.347Z" fill="#38B5AA"/>
<path fill-rule="evenodd" clip-rule="evenodd" d="M138.061 18.3098C135.998 18.3098 134.165 19.2208 133.007 20.6328C133.663 21.3222 134.623 21.7578 135.696 21.7578C137.67 21.7578 139.269 20.2782 139.269 18.4538V18.4151C138.878 18.3451 138.474 18.3098 138.061 18.3098Z" fill="#CEDF9A"/>
<path fill-rule="evenodd" clip-rule="evenodd" d="M139.704 18.5142C140.078 18.0101 140.522 17.5548 141.028 17.1615L139.124 15.4144C138.712 15.5274 138.339 15.7158 138.008 15.952C138.764 16.5501 139.257 17.4248 139.269 18.415C139.416 18.442 139.56 18.4792 139.704 18.5142Z" fill="#D22724"/>
</svg>
