<svg width="139" height="32" viewBox="0 0 139 32" fill="none" xmlns="http://www.w3.org/2000/svg">
<g clip-path="url(#clip0_1493_1376)">
<path d="M59.1079 16.023C59.1079 10.881 61.921 6.93262 65.6939 6.93262C68.1429 6.93262 70.261 8.67724 71.2539 11.386L68.9372 13.2683C68.3746 11.6615 67.1831 10.6055 65.6608 10.6055C63.4765 10.6055 61.7886 12.9011 61.7886 16.023C61.7886 19.145 63.4434 21.4405 65.6608 21.4405C67.15 21.4405 68.3746 20.3846 68.9703 18.7777L71.2869 20.6141C70.2279 23.3229 68.1098 25.1134 65.6939 25.1134C61.921 25.1134 59.1079 21.1191 59.1079 16.023Z" fill="white"/>
<path d="M71.4526 16.023C71.4526 10.881 74.3981 6.93262 78.0386 6.93262C81.7122 6.93262 84.6245 10.881 84.6245 16.023C84.6245 21.1191 81.7122 25.1134 78.0386 25.1134C74.3981 25.1134 71.4526 21.1191 71.4526 16.023ZM81.9107 16.023C81.9107 12.8551 80.2229 10.5596 78.0386 10.5596C75.8543 10.5596 74.1664 12.8551 74.1664 16.023C74.1664 19.1909 75.8543 21.4864 78.0386 21.4864C80.2229 21.4864 81.9107 19.145 81.9107 16.023Z" fill="white"/>
<path d="M97.3661 14.0487V24.6542H94.6523V14.416C94.6523 11.7991 93.5601 10.4217 91.8723 10.4217C90.1182 10.4217 88.6951 11.8909 88.6951 15.3801V24.6542H86.0144V7.34571C88.1656 7.34571 88.6951 8.21802 88.6951 9.54944C89.5225 7.75891 90.8794 6.8866 92.5673 6.8866C95.3473 6.93251 97.3661 9.54944 97.3661 14.0487Z" fill="white"/>
<path d="M102.86 10.9728V19.2827C102.86 21.4864 103.919 21.4405 105.938 21.3028V24.6543C101.801 25.3429 100.146 23.7361 100.146 19.2827V10.9728H98.1272V7.34581H100.146V6.38167C100.146 4.04021 100.775 3.44337 102.032 2.84652L102.827 2.52515V7.34581H105.905V10.9269H102.86V10.9728Z" fill="white"/>
<path d="M106.765 2.38737C106.765 1.05595 107.526 0 108.486 0C109.446 0 110.207 1.05595 110.207 2.38737C110.207 3.67288 109.446 4.77475 108.486 4.77475C107.559 4.77475 106.765 3.67288 106.765 2.38737ZM107.162 7.34577H109.843V24.6083H107.162V7.34577Z" fill="white"/>
<path d="M123.644 7.34572C122.85 7.34572 122.386 7.62119 122.122 8.03439C121.857 8.4935 121.791 9.13625 121.791 9.87083C120.831 7.98847 119.375 6.8407 117.455 6.8407C113.947 6.8407 111.167 10.835 111.167 15.7474C111.167 20.7058 113.947 24.6542 117.455 24.6542C119.375 24.6542 120.831 23.5064 121.791 21.6241V23.8737C121.791 26.9038 120.401 28.6484 118.084 28.6484C115.9 28.6484 115.006 27.4548 114.443 25.9856L112.491 28.6944C113.616 30.8981 115.569 32.0459 118.018 32.0459C121.294 32.0459 124.438 29.4748 124.438 23.8737V7.34572H123.644ZM117.852 21.2568C115.569 21.2568 113.881 18.9612 113.881 15.8393C113.881 12.7173 115.569 10.4218 117.852 10.4218C120.136 10.4218 121.824 12.7173 121.824 15.8393C121.824 18.9612 120.103 21.2568 117.852 21.2568Z" fill="white"/>
<path d="M125.828 16.023C125.828 10.881 128.774 6.93262 132.414 6.93262C136.088 6.93262 139 10.881 139 16.023C139 21.1191 136.088 25.1134 132.414 25.1134C128.774 25.1134 125.828 21.1191 125.828 16.023ZM136.319 16.023C136.319 12.8551 134.631 10.5596 132.447 10.5596C130.263 10.5596 128.575 12.8551 128.575 16.023C128.575 19.1909 130.263 21.4864 132.447 21.4864C134.598 21.4864 136.319 19.145 136.319 16.023Z" fill="white"/>
<path d="M57.2878 14.3702V25.0675H54.607V14.5998C54.607 12.1665 53.6473 10.8351 52.1911 10.8351C50.6025 10.8351 49.4773 12.2583 49.4773 15.3803V25.0675H46.7966V14.5998C46.7966 12.1665 45.9361 10.8351 44.4468 10.8351C42.9244 10.8351 41.6668 12.2583 41.6668 15.3803V25.0675H38.9861V7.80494C40.8394 7.80494 41.6668 8.35587 41.6668 9.87093C42.4611 8.17222 43.6856 7.34583 45.2411 7.34583C46.8627 7.34583 48.0542 8.35587 48.7823 10.0546C49.6097 8.26405 50.9335 7.34583 52.5882 7.34583C55.4013 7.34583 57.2878 10.0546 57.2878 14.3702Z" fill="white"/>
<path d="M34.6838 22.4505C34.6838 23.4147 34.5184 24.1492 34.2205 24.6543C33.8234 25.3429 33.1945 25.5266 32.8636 25.5266C32.8636 25.5266 32.8305 25.5266 32.7974 25.5266H32.7643H32.7312C31.8707 25.5266 31.3081 24.5165 31.275 24.4247L31.2419 24.3788C28.9253 20.5223 23.1667 12.6715 20.4529 8.99859C20.486 8.95268 20.5191 8.95268 20.5522 8.90677C20.6845 8.76904 20.7838 8.6313 20.9162 8.49357C21.0155 8.40175 21.0817 8.30993 21.181 8.17219C21.2803 8.08037 21.3465 7.98855 21.4126 7.89673C21.4788 7.85082 21.5119 7.75899 21.5781 7.71308C22.571 6.56531 23.5307 5.46344 24.1926 4.72886C24.2588 4.63704 24.3581 4.54522 24.4243 4.4534C24.4905 4.36158 24.5898 4.26975 24.656 4.17793C24.8876 3.90247 25.02 3.76473 25.02 3.76473C25.02 3.76473 26.3769 2.11193 28.0979 3.44336C28.3295 3.627 28.5612 3.94838 28.826 4.40749C28.8591 4.4534 28.8922 4.49931 28.9253 4.59113L28.9584 4.63704C29.0245 4.72886 29.0907 4.8666 29.1569 5.00433C29.2231 5.14206 29.2893 5.2798 29.3555 5.41753C29.3886 5.50935 29.4217 5.55526 29.4548 5.64709C29.4879 5.693 29.521 5.73891 29.521 5.83073C29.5541 5.92255 29.6203 6.06029 29.6534 6.15211C29.6865 6.24393 29.7195 6.33575 29.7526 6.42757C29.7857 6.47348 29.7857 6.5194 29.8188 6.56531C29.885 6.70304 29.9181 6.84077 29.9843 6.97851C29.9843 7.02442 30.0174 7.02442 30.0174 7.07033C30.1829 7.48353 30.3815 7.94264 30.58 8.44766C30.6131 8.53948 30.6793 8.67722 30.7124 8.76904C30.7455 8.86086 30.7786 8.99859 30.8448 9.09041C30.911 9.27406 30.9772 9.4577 31.0434 9.64135C31.0434 9.68726 31.0765 9.73317 31.0765 9.77908C31.1426 9.91681 31.1757 10.1005 31.2419 10.2841C31.4405 10.7891 31.606 11.3401 31.7715 11.891C31.8376 12.1205 31.9369 12.3501 32.0031 12.6256C32.2679 13.4061 32.4995 14.2325 32.7312 15.0129C32.8636 15.4261 32.996 15.8853 33.0953 16.2984C33.1615 16.528 33.2276 16.7116 33.2607 16.9412C33.3931 17.4003 33.5255 17.8594 33.6248 18.3185C33.691 18.5481 33.7241 18.7317 33.7903 18.9613C33.8565 19.1908 33.8895 19.3745 33.9557 19.604C34.0219 19.7877 34.055 20.0172 34.0881 20.2009C34.1212 20.3845 34.1874 20.6141 34.2205 20.7977C34.2536 20.9355 34.2867 21.0732 34.3198 21.2109C34.4191 21.5782 34.4853 21.9914 34.5515 22.3128C34.6176 22.1751 34.6507 22.2669 34.6838 22.4505Z" fill="white"/>
<path d="M34.0549 26.3998C33.7571 26.9967 33.5254 27.2721 33.5254 27.2721C33.5254 27.2721 32.4995 28.879 30.7123 28.879C30.7123 28.879 29.5209 28.9249 28.5942 28.0526C28.2633 27.7312 27.2704 26.8589 25.8804 25.8489C25.1192 25.298 24.1925 24.6552 23.2328 24.1043C23.1997 24.1043 23.1997 24.0584 23.1666 24.0584C22.1737 23.4615 21.1478 22.9106 20.0887 22.4974C20.0887 22.4974 20.0556 22.4974 20.0225 22.4515C18.6656 21.9005 17.2756 21.5332 16.018 21.5332C10.9214 21.5332 1.98564 28.6035 1.98564 28.6035C1.98564 28.6035 1.72088 28.8331 1.32374 28.8331C0.926594 28.8331 0.198499 28.5576 -7.2808e-05 27.318C-0.0993585 26.7671 0.430165 24.8848 1.82017 21.7628C1.82017 21.7628 1.82017 21.7169 1.85326 21.7169C2.58136 20.0641 3.54112 18.0899 4.76564 15.7485C6.4535 12.4888 8.63778 8.63224 11.4509 4.08705C11.4509 4.08705 12.1459 2.93927 13.3704 2.93927C13.3704 2.93927 14.3633 2.84745 15.2899 3.9034C15.6209 4.27069 17.0109 6.10713 18.9966 8.72406C22.6702 13.6365 28.3625 21.4873 30.5468 25.2061C30.5468 25.2061 31.3742 26.813 32.7311 26.813H32.7973C32.8304 26.813 32.8966 26.813 32.9297 26.813C33.1283 26.7671 33.5916 26.7212 34.0549 26.3998Z" fill="white"/>
<path opacity="0.2" d="M34.6838 22.4505C34.6838 23.4147 34.5184 24.1492 34.2205 24.6543C33.8234 25.3429 33.1945 25.5266 32.8636 25.5266C32.8636 25.5266 32.8305 25.5266 32.7974 25.5266H32.7643H32.7312C31.8707 25.5266 31.3081 24.5165 31.275 24.4247L31.2419 24.3788C28.9253 20.5223 23.1667 12.6715 20.4529 8.99859C20.486 8.95268 20.5191 8.95268 20.5522 8.90677C20.6845 8.76904 20.7838 8.6313 20.9162 8.49357C21.0155 8.40175 21.0817 8.30993 21.181 8.17219C21.2803 8.08037 21.3465 7.98855 21.4126 7.89673C23.1998 8.95268 26.9065 11.386 33.36 16.8035C33.4924 17.2626 33.6248 17.7217 33.7241 18.1808C33.7903 18.4104 33.8234 18.594 33.8895 18.8236C33.9557 19.0531 33.9888 19.2368 34.055 19.4663C34.1212 19.65 34.1543 19.8795 34.1874 20.0632C34.2205 20.2468 34.2867 20.4764 34.3198 20.66C34.3529 20.7977 34.386 20.9355 34.4191 21.0732C34.5184 21.4405 34.5845 21.8537 34.6507 22.1751C34.6176 22.1751 34.6507 22.2669 34.6838 22.4505Z" fill="white"/>
<path opacity="0.2" d="M20.0225 22.4047C18.6656 21.8537 17.2756 21.4865 16.018 21.4865C10.9214 21.5324 1.98564 28.6027 1.98564 28.6027C1.98564 28.6027 1.72088 28.8322 1.32374 28.8322C0.926594 28.8322 0.198499 28.5568 -7.28069e-05 27.3172C-0.0993585 26.7662 0.430165 24.8839 1.82017 21.7619C1.82017 21.7619 1.82017 21.716 1.85326 21.716C9.59755 18.0431 19.1952 22.0374 20.0225 22.4047Z" fill="white"/>
</g>
<defs>
<clipPath id="clip0_1493_1376">
<rect width="139" height="32" fill="white"/>
</clipPath>
</defs>
</svg>
