<svg width="167" height="178" viewBox="0 0 167 178" fill="none" xmlns="http://www.w3.org/2000/svg">
<path d="M52.0023 32.2515C20.0038 38.8422 4.17022 76.3133 2.13579 102.753C-0.349717 135.028 10.43 152.087 30.5442 149.873C52.3522 147.467 77.4373 144.191 104.502 149.873C131.575 155.555 151.828 160.764 161.77 126.172C171.712 91.5807 158.64 25.6864 122.011 14.1046C95.0292 5.56871 85.3265 25.392 52.0023 32.2515Z" fill="#ECF0F7"/>
<path d="M126.356 160.175C126.356 160.175 126.595 136.628 120.989 129.641C115.383 122.653 100.313 91.4144 112.501 83.7231C124.689 76.0318 128.353 104.25 136.169 113.81C143.984 123.37 137.366 159.305 137.366 159.305L126.356 160.175Z" fill="#DAE1F0"/>
<path d="M134.014 164.872L133.462 164.795C133.481 164.514 135.497 136.718 131.86 124.24C130.176 118.468 126.825 112.927 123.262 107.053C118.973 99.9759 114.545 92.6685 112.234 83.8382L112.75 83.5823C115.023 92.2846 119.424 99.5408 123.677 106.567C127.267 112.479 130.645 118.072 132.367 123.958C136.067 136.602 134.042 164.603 134.014 164.872Z" fill="#B5C4E2"/>
<path d="M121.734 104.941C121.237 103.047 121.265 98.9905 121.293 94.6905C121.32 90.5569 121.348 85.8731 120.768 84.7085L121.219 84.2734C121.891 85.6427 121.863 90.045 121.836 94.7033C121.808 98.7473 121.79 102.919 122.25 104.685L121.734 104.941Z" fill="#B5C4E2"/>
<path d="M124.395 108.921C123.962 108.205 121.265 106.643 118.42 104.992C112.63 101.652 108.165 98.9137 107.714 96.8277L108.239 96.6101C108.653 98.5297 114.425 101.857 118.632 104.289C122.149 106.323 124.33 107.603 124.818 108.435L124.395 108.921Z" fill="#B5C4E2"/>
<path d="M130.259 119.697C129.918 118.775 129.688 115.346 129.357 109.792C129.071 104.993 128.749 99.5664 128.316 98.4914L128.795 98.1075C129.292 99.3232 129.587 104.378 129.909 109.728C130.167 114.04 130.424 118.494 130.747 119.339L130.259 119.697Z" fill="#B5C4E2"/>
<path d="M132.799 128.361C131.87 126.3 127.295 124.688 123.253 123.267C119.111 121.808 115.198 120.439 114.25 118.494L114.701 118.059C115.539 119.761 119.534 121.169 123.391 122.525C127.93 124.125 132.22 125.635 133.269 127.951L132.799 128.361Z" fill="#B5C4E2"/>
<path d="M133.785 148.005C133.389 143.5 129.338 140.928 126.383 139.047C125.343 138.394 124.45 137.818 123.935 137.281L124.266 136.666C124.735 137.153 125.61 137.703 126.613 138.343C129.513 140.186 133.895 142.976 134.328 147.903L133.785 148.005Z" fill="#B5C4E2"/>
<path d="M134.466 140.467L133.913 140.416C133.996 138.752 135.101 135.182 136.27 131.394C137.513 127.35 138.93 122.768 138.829 121.156L139.381 121.092C139.501 122.883 138.176 127.171 136.785 131.688C135.681 135.259 134.549 138.932 134.466 140.467Z" fill="#B5C4E2"/>
<path d="M131.492 159.088C138.047 146.226 130.507 103.585 145.439 86.2954C160.361 69.0059 170.883 78.9752 161.328 103.495C151.772 128.015 148.523 156.835 143.34 159.497C138.157 162.159 131.492 159.088 131.492 159.088Z" fill="#DAE1F0"/>
<path d="M136.795 165L136.252 164.859C136.279 164.654 139.059 144.204 145.006 117.265C148.909 99.5791 153.715 91.248 156.891 85.7322C158.658 82.6608 159.938 80.4341 160.426 77.8746L160.959 78.0665C160.444 80.7796 159.137 83.0576 157.323 86.2057C154.175 91.6703 149.416 99.9375 145.54 117.483C139.603 144.396 136.822 164.808 136.795 165Z" fill="#B5C4E2"/>
<path d="M148.283 106.887L147.851 106.4C149.6 103.367 153.236 101.012 156.762 98.7217C160.352 96.3926 163.749 94.1914 164.347 91.7215L164.872 91.9646C164.191 94.7417 160.702 97.0069 157.001 99.4128C153.53 101.678 149.949 104.007 148.283 106.887Z" fill="#B5C4E2"/>
<path d="M145.54 117.496L145.015 117.278C145.411 115.474 145.356 110.086 145.301 104.391C145.199 93.7563 145.227 86.1034 146.516 84.6061L146.875 85.1948C145.687 86.5769 145.779 96.4566 145.853 104.378C145.908 110.38 145.964 115.563 145.54 117.496Z" fill="#B5C4E2"/>
<path d="M141.867 135.246L141.333 135.041C141.968 131.854 145.494 128.463 149.231 124.893C152.518 121.744 155.924 118.481 156.854 115.627L157.36 115.947C156.375 118.993 152.904 122.32 149.554 125.532C146.055 128.86 142.447 132.328 141.867 135.246Z" fill="#B5C4E2"/>
<path d="M140.726 141.273L140.192 141.081C140.772 137.869 138.94 127.938 137.605 120.695C136.62 115.371 136.068 112.3 136.187 111.378L136.73 111.506C136.629 112.313 137.366 116.293 138.139 120.503C139.566 128.246 141.333 137.869 140.726 141.273Z" fill="#B5C4E2"/>
<path d="M138.24 155.671L137.697 155.504C137.982 153.687 140.431 151.87 143.266 149.771C145.908 147.813 148.9 145.599 149.397 143.615L149.922 143.871C149.351 146.124 146.387 148.325 143.524 150.449C141.048 152.292 138.47 154.199 138.24 155.671Z" fill="#B5C4E2"/>
<path d="M47.9151 116.958C47.9151 116.958 47.8966 104.186 47.6941 93.5899C47.4916 82.9936 54.7088 71.3351 56.4026 65.2946C58.0964 59.2414 56.3197 49.9888 62.4322 45.8936C62.4322 45.8936 58.8421 54.8007 62.0916 59.4206C65.3412 64.0405 61.1803 79.935 60.5359 86.756C59.8915 93.5515 56.1909 111.609 47.9151 116.958Z" fill="#DAE1F0"/>
<path d="M39.3262 137.984C39.3262 137.984 34.9075 109.446 27.9665 97.3268C21.0255 85.2075 21.495 87.0504 11.3597 84.0814C1.23353 81.1123 1.78586 91.4399 1.78586 91.4399C1.78586 91.4399 7.45649 86.9608 10.7245 92.8732C14.0016 98.7857 14.9406 106.579 21.3569 118.827C27.7732 131.074 39.3262 137.984 39.3262 137.984Z" fill="#DAE1F0"/>
<path d="M17.7299 51.3965C19.7643 61.7369 35.1929 67.1887 38.737 78.1817C42.2811 89.1748 40.753 115.768 40.753 115.768C40.753 115.768 31.1148 104.212 30.4612 93.9994C29.8076 83.787 24.7906 79.7302 20.9058 69.3386C17.0303 58.9343 17.7299 51.3965 17.7299 51.3965Z" fill="#DAE1F0"/>
<path d="M44.9417 164.015L44.3893 164.066C44.3801 163.771 42.9533 134.593 40.4862 115.845L40.2928 114.373C37.8902 96.0854 36.4449 85.0411 29.1541 75.2511C21.6608 65.1666 17.5183 51.6909 17.4814 51.5501L17.9878 51.2557C18.0246 51.3837 22.1303 64.7315 29.5407 74.7008C36.9512 84.6572 38.4149 95.791 40.836 114.232L41.0293 115.704C43.5056 134.491 44.9325 163.72 44.9417 164.015Z" fill="#DAE1F0"/>
<path d="M43.8462 154.301C43.2018 144.946 37.2642 134.004 30.986 122.423C27.2485 115.525 23.3822 108.409 20.1418 100.872L20.6113 100.475C23.8333 107.974 27.6904 115.077 31.4187 121.949C37.7521 133.62 43.7265 144.652 44.3893 154.224L43.8462 154.301Z" fill="#B5C4E2"/>
<path d="M42.6861 137.665C41.9681 129.692 44.5641 123.818 47.068 118.148C48.6605 114.539 50.3083 110.815 51.0816 106.579C53.0516 95.7911 54.5429 75.3918 54.5521 75.1871L55.1044 75.2639C55.086 75.4686 53.5947 95.919 51.6155 106.759C50.8238 111.11 49.1484 114.885 47.5375 118.545C44.9691 124.368 42.5388 129.858 43.2292 137.562L42.6861 137.665Z" fill="#B5C4E2"/>
<path d="M71.0121 123.728C71.0121 123.728 68.9776 150.347 67.2286 153.418C65.4887 156.49 59.5972 158.025 59.5972 162.121C59.5972 166.216 108.571 165.704 108.939 162.121C109.307 158.537 104.281 155.978 102.375 153.418C100.47 150.859 98.2606 123.728 98.2606 123.728H71.0121Z" fill="#273B63"/>
<path d="M67.2469 158.921L67.2192 158.153C67.431 158.141 88.2171 156.63 102.384 158.153L102.338 158.921C88.2079 157.411 67.4586 158.908 67.2469 158.921Z" fill="#C8F2E9"/>
<path d="M30.7744 28.617C27.2395 30.5878 26.6872 125.571 30.7376 130.69C34.7881 135.809 135.313 134.785 136.786 130.69C138.259 126.595 141.407 32.9298 135.644 27.8108C129.882 22.6918 39.3724 23.8052 30.7744 28.617Z" fill="#273B63"/>
<path d="M34.0884 34.0816C31.3083 36.8458 32.2473 111.238 34.0884 114.309C35.9295 117.381 129.826 117.381 132.404 114.309C134.981 111.238 134.245 37.2937 132.404 34.0816C130.563 30.8694 37.0342 31.1509 34.0884 34.0816Z" fill="#DAE1F0"/>
<path d="M95.2136 116.613C95.2136 116.613 95.2136 106.631 96.5023 103.047C97.7911 99.464 102.762 87.6903 104.787 75.4047C106.813 63.1191 104.419 32.4051 101.657 32.4051C98.8958 32.4051 99.0799 55.1846 99.0799 55.1846C99.0799 55.1846 99.264 26.5182 95.95 26.5182C92.636 26.5182 92.4519 53.393 92.4519 53.393C92.4519 53.393 92.636 21.3992 88.7696 21.3992C84.9033 21.3992 85.0874 53.137 85.0874 53.137C85.0874 53.137 84.9309 27.0301 81.3223 27.0301C77.7138 27.0301 78.4594 66.9584 77.5388 78.7321C76.6183 90.5058 81.3223 116.613 81.3223 116.613H95.2136Z" fill="white"/>
<path d="M103.48 81.8034C103.986 79.7174 104.428 77.5675 104.787 75.4047C105.238 72.666 105.469 69.0187 105.524 65.0003C96.8982 66.9583 83.1818 74.4193 77.6125 77.5674C77.5849 77.977 77.5572 78.3609 77.5296 78.7192C77.4928 79.1927 77.4652 79.7046 77.4468 80.2165C82.381 82.6481 94.2009 87.2808 103.48 81.8034Z" fill="#ECF0F7"/>
<path d="M45.4758 5.0184C43.9937 8.32015 43.6623 72.5892 45.4758 76.902C47.2893 81.2147 117.353 78.3737 120.455 72.7812C123.557 67.1887 121.744 13.2728 120.455 6.43892C119.166 -0.369353 48.0625 -0.727682 45.4758 5.0184Z" fill="#B5C4E2"/>
<path d="M83.2095 59.6765C76.158 59.6765 46.5253 7.47554 45.2642 5.24878L45.6968 4.77527C46.0006 5.31276 76.4158 58.9087 83.2095 58.9087C90.0032 58.9087 119.949 6.74608 120.244 6.22139L120.676 6.69489C119.433 8.85767 90.261 59.6765 83.2095 59.6765Z" fill="#3D5C9B"/>
<path d="M45.6782 77.1707L45.2732 76.646C45.4113 76.4413 59.3301 55.4278 70.2479 45.0234L70.5609 45.6633C59.6983 56.0164 45.8163 76.966 45.6782 77.1707Z" fill="#3D5C9B"/>
<path d="M120.253 73.0627C108.258 55.159 97.6254 43.5516 97.5242 43.4364L97.8648 42.835C97.9752 42.9501 108.635 54.5959 120.658 72.5508L120.253 73.0627Z" fill="#3D5C9B"/>
<path d="M77.2441 50.9614C73.5619 50.9614 76.2499 62.3512 75.1453 67.7262C74.0406 73.1011 70.7266 77.9642 71.6472 86.9224C72.5677 95.8807 77.7228 101.768 78.8275 105.863C79.9322 109.958 78.8275 116.613 78.8275 116.613H91.163C91.163 116.613 90.4265 110.214 90.0583 96.9045C89.6901 83.5951 82.3532 81.0356 81.3222 78.988C80.3004 76.9404 83.2462 71.5654 83.0621 64.6548C82.8779 57.7441 79.1681 50.9614 77.2441 50.9614Z" fill="white"/>
<path d="M84.1115 129.551C84.0194 129.551 83.9273 129.551 83.8353 129.538C81.8837 129.321 81.2485 127.26 81.2945 125.571C81.3498 123.562 82.3256 121.488 83.8629 121.488C85.3174 121.488 86.4036 122.192 86.9376 123.459C87.4071 124.598 87.3702 126.096 86.8455 127.375C86.2656 128.732 85.2437 129.551 84.1115 129.551ZM83.8629 122.244C82.6662 122.244 81.8929 123.946 81.8469 125.596C81.8101 127.017 82.3164 128.604 83.8813 128.77C83.955 128.783 84.0378 128.783 84.1115 128.783C85.0504 128.783 85.8881 128.105 86.3576 126.966C86.7903 125.929 86.8271 124.726 86.4497 123.818C86.0262 122.807 85.1057 122.244 83.8629 122.244Z" fill="#C8F2E9"/>
<path d="M39.1882 3.04793C48.7712 5.2619 49.9035 14.2201 49.7194 25.6355C49.5445 37.0509 54.5431 44.499 57.9307 44.499C57.9307 44.499 53.466 46.7386 50.0784 44.499C46.6815 42.2595 43.2939 48.4663 34.5486 45.4972C25.8033 42.5154 17.9418 33.6851 21.6976 18.3665C25.4443 3.04793 32.7627 1.55062 39.1882 3.04793Z" fill="#7BE1C9"/>
<path d="M34.7695 21.028C34.7695 21.028 38.0835 11.7115 41.3975 16.4081C44.7115 21.1048 36.537 29.3592 34.9904 34.6062C34.9904 34.6062 26.374 23.0756 29.9089 16.4081C33.4439 9.74064 34.7695 21.028 34.7695 21.028Z" fill="white"/>
<path d="M103.885 54.5191C103.885 54.5191 107.199 45.2026 110.513 49.8992C113.827 54.5959 105.652 62.8503 104.106 68.0973C104.106 68.0973 95.4895 56.5667 99.0244 49.8992C102.559 43.2317 103.885 54.5191 103.885 54.5191Z" fill="#65BAA6"/>
<path d="M108.276 36.8842C117.693 39.0726 118.807 47.8645 118.632 59.0879C118.457 70.3113 123.373 77.6314 126.706 77.6314C126.706 77.6314 122.315 79.8326 118.982 77.6314C115.65 75.4303 112.308 81.5347 103.71 78.6041C95.1121 75.6734 87.3886 66.9839 91.0709 51.9341C94.7623 36.8842 101.961 35.4253 108.276 36.8842Z" fill="white"/>
<path d="M103.885 54.5192C103.885 54.5192 107.199 45.2026 110.513 49.8993C113.827 54.596 105.652 62.8504 104.106 68.0973C104.106 68.0973 95.4895 56.5668 99.0244 49.8993C102.559 43.2318 103.885 54.5192 103.885 54.5192Z" fill="#7BE1C9"/>
<path d="M75.902 151.28C75.8429 152.082 75.752 152.867 75.6255 153.631C74.005 163.361 66.7358 170.107 53.7666 171.333C27.5795 173.805 13.1519 171.608 8.01317 154.301C6.85103 150.389 6.40028 145.334 6.46386 139.812C6.67747 120.879 12.8989 96.398 17.105 93.3159C22.54 89.3324 26.3939 91.3931 26.3939 91.3931C35.1888 94.0025 49.221 129.852 60.1902 131.225C71.1587 132.599 76.6694 140.61 75.902 151.28Z" fill="#95E7D4"/>
<path d="M18.29 115.155C18.29 115.155 24.8121 122.435 27.0849 130.539C29.3577 138.643 29.3577 145.785 34.101 147.158C38.8443 148.531 47.7384 149.356 56.7311 145.647C65.7237 141.939 65.9214 137.543 56.4348 135.209C46.9482 132.874 36.5722 120.375 33.6077 111.447C30.6432 102.518 30.7418 98.9474 28.8644 96.6128C26.987 94.2782 24.2196 93.4537 21.4529 97.9859C18.6861 102.518 17.1044 110.073 18.29 115.155Z" fill="#65BAA6"/>
<path d="M38.1132 90.8567C38.227 90.6411 38.3675 90.4467 38.4756 90.2285C38.9601 89.2503 38.4292 88.1413 37.8246 87.5687C37.4139 87.1799 37.3529 86.8706 37.4533 86.1575C37.5328 85.5937 37.763 85.2199 37.6848 84.6323C37.6199 84.1419 37.4654 83.4412 37.1895 83.1222C36.9072 82.7952 36.4915 82.8217 36.166 82.6291C35.3586 82.151 36.1087 81.2568 35.7642 80.4182C35.2479 79.1625 33.7724 79.4639 32.8944 79.2783C32.9008 79.2801 32.9052 79.2774 32.9065 79.2686C32.1525 78.8515 32.0209 77.7505 31.0539 77.974C30.5975 78.0792 30.2809 78.4777 29.9 78.7896C29.2395 79.3313 28.6832 78.5873 28.0437 78.9213C27.3208 79.2995 26.7442 80.2052 26.5408 81.24C26.2578 82.6803 25.6577 82.2588 24.8408 82.7758C24.4072 83.0506 23.8674 83.2423 23.9577 84.0862C24.006 84.5369 24.2921 84.9239 24.315 85.3702C24.3436 85.9401 23.9558 86.2635 23.7276 86.6877C23.4822 87.1445 23.322 87.8108 23.4879 88.3587C23.6665 88.9507 24.1669 89.2414 24.1904 89.9625C24.2228 90.9672 23.2063 91.7907 23.6208 92.8882C23.8948 93.6137 24.4886 93.6137 24.8834 94.0776C25.1485 94.3895 25.111 94.8552 25.0804 95.2723C24.9972 96.4157 25.3792 97.4302 26.3437 97.166C27.0462 96.9733 27.5592 96.8629 28.0583 97.7032C28.4938 98.4366 28.9216 98.7998 29.6578 98.7132C30.1257 98.6576 30.5593 98.3881 31.0069 98.214C31.4265 98.0505 31.5555 98.1477 31.9319 98.3094C32.7259 98.6505 33.1856 97.5981 33.9237 97.6113C34.2072 97.6166 34.3935 97.9135 34.6828 97.9807C35.0184 98.0585 35.3853 97.9047 35.6726 97.6696C36.0503 97.3604 36.2289 96.9937 36.3573 96.4202C36.4679 95.9253 36.5474 95.7495 36.8913 95.548C37.763 95.0364 38.2372 94.4761 38.18 93.0605C38.1571 92.5003 37.8704 92.0514 37.9143 91.5009C37.9346 91.2499 38.0141 91.0449 38.1132 90.8567Z" fill="#1C2A47"/>
<path d="M69.907 173.485C69.907 175.431 56.8996 177.01 40.854 177.01C24.8084 177.01 11.801 175.432 11.801 173.485C11.801 171.537 24.8084 169.959 40.854 169.959C56.8996 169.96 69.907 171.538 69.907 173.485Z" fill="#DAE1F0"/>
<path d="M38.2519 108.654C38.2519 108.654 43.753 116.712 45.9928 117.491L42.4021 120.65L37.6257 116.941C37.6263 116.941 35.8475 110.348 38.2519 108.654Z" fill="#B5C4E2"/>
<path d="M38.252 108.654L38.2056 108.715C38.2063 108.716 39.582 110.732 41.2394 112.845C42.0678 113.902 42.9667 114.985 43.8002 115.852C44.2172 116.286 44.6171 116.666 44.9852 116.964C45.3533 117.261 45.6884 117.476 45.9776 117.576L45.9929 117.491L45.9592 117.417L42.4009 120.547L37.6576 116.864L37.6265 116.941L37.6862 116.91C37.6862 116.91 37.6837 116.901 37.6792 116.885C37.6106 116.624 37.0562 114.432 37.0568 112.341C37.0568 111.587 37.1287 110.847 37.3181 110.217C37.5076 109.586 37.8115 109.065 38.2813 108.733L38.252 108.654L38.2056 108.715L38.252 108.654L38.2234 108.576C37.7237 108.927 37.3976 109.488 37.2005 110.149C37.0028 110.809 36.9297 111.571 36.9297 112.341C36.9303 114.616 37.5661 116.968 37.5673 116.973L37.5756 117.003L42.4054 120.753L46.1531 117.455L46.0088 117.405C45.7379 117.311 45.4112 117.104 45.0494 116.811C43.7824 115.788 42.0913 113.731 40.7213 111.933C40.0359 111.033 39.4301 110.198 38.9959 109.588C38.7784 109.283 38.6042 109.034 38.4841 108.862C38.4243 108.775 38.3779 108.708 38.3461 108.663C38.315 108.617 38.2984 108.593 38.2984 108.593L38.266 108.546L38.2241 108.576L38.252 108.654Z" fill="#3D5C9B"/>
<path d="M41.1668 125.937C41.1668 125.937 49.9452 124.038 55.3477 127.426C60.7497 130.813 59.3008 136.491 57.5875 141.344C55.8741 146.197 54.2937 148.029 54.2937 148.029L50.9999 146.106C50.9999 146.106 52.1855 137.865 54.1621 133.744C54.1621 133.744 46.4543 139.421 42.3035 139.146C38.1533 138.871 38.2188 128.066 38.2188 128.066L41.1668 125.937Z" fill="#1C2A47"/>
<path d="M28.5599 99.8876C28.5599 99.8876 26.2947 101.558 24.582 102.473C22.8693 103.389 22.3423 106.914 23.3302 109.478C24.3182 112.042 26.7887 118.589 27.8428 122.481C28.8968 126.372 29.5065 129.577 29.5065 129.577C29.5065 129.577 35.2543 131.111 38.4496 129.508C41.6448 127.906 41.1674 125.938 41.1674 125.938C41.1674 125.938 39.1088 115.888 38.8119 113.187C38.8119 113.187 39.7013 110.393 38.9766 107.922C38.2518 105.449 36.3745 104.442 35.452 102.931C34.5295 101.421 30.956 99.4538 28.5599 99.8876Z" fill="white"/>
<path d="M35.5517 89.4817C35.4767 90.8549 35.3896 92.2343 35.5238 94.1518C35.6306 95.7176 35.0889 96.9592 33.5237 98.7176C33.5237 98.7176 32.9503 98.7892 32.3024 98.525C32.2904 98.525 32.2789 98.5197 32.2668 98.5144L32.4131 100.02L32.4449 100.339L32.4646 100.57C32.4646 100.57 32.4881 101.536 31.6737 101.811C30.8555 102.086 29.1758 100.987 28.5592 99.8885C28.5592 99.8885 28.6577 95.768 28.4091 94.1527C28.4091 94.1527 27.6462 92.4004 27.2235 89.9996C26.8045 87.5934 28.1008 85.2526 29.3068 84.3902C30.5166 83.533 34.169 83.5056 35.2797 87.0111C35.279 87.0093 35.6274 88.1077 35.5517 89.4817Z" fill="#B5C4E2"/>
<path d="M35.5518 89.4817L35.4882 89.4746C35.4418 90.3265 35.3903 91.1836 35.3903 92.1724C35.3903 92.7768 35.4094 93.4298 35.4609 94.1597C35.4692 94.2834 35.4736 94.4045 35.4736 94.5238C35.473 95.2051 35.335 95.8281 35.0178 96.489C34.6999 97.1491 34.2015 97.8437 33.4844 98.6487L33.5244 98.7176L33.5187 98.6292H33.5161C33.5022 98.631 33.4367 98.6372 33.3337 98.6372C33.1163 98.6372 32.7329 98.6071 32.3209 98.4392L32.312 98.4357H32.3031V98.4445L32.3038 98.4357H32.3031V98.4445L32.3038 98.4357L32.3 98.4348L32.2879 98.4295L32.1912 98.3844L32.3515 100.03L32.3832 100.349L32.4462 100.336L32.3832 100.347L32.403 100.578L32.4659 100.567L32.4023 100.569V100.57V100.575C32.4023 100.614 32.3972 100.844 32.3031 101.088C32.2561 101.211 32.1868 101.338 32.0844 101.45C31.9815 101.562 31.8448 101.66 31.6604 101.722C31.5803 101.749 31.4887 101.763 31.3896 101.762C30.9687 101.763 30.4042 101.521 29.8822 101.156C29.3596 100.792 28.8765 100.305 28.6107 99.8301L28.5605 99.8849L28.6241 99.8875C28.6241 99.8866 28.6431 99.079 28.6431 98.0381C28.6431 97.3824 28.6355 96.6339 28.6101 95.9359C28.5846 95.2369 28.5427 94.5901 28.4721 94.1306L28.4696 94.1164L28.4639 94.1041C28.4639 94.1041 28.4613 94.0979 28.4556 94.0846C28.3723 93.8876 27.6793 92.2131 27.2852 89.9748C27.2311 89.6664 27.2063 89.3589 27.2063 89.0549C27.2063 88.0502 27.4797 87.087 27.8841 86.2811C28.2878 85.4761 28.8224 84.8311 29.3355 84.4644C29.53 84.3265 29.7957 84.2081 30.1066 84.125C30.4175 84.042 30.7748 83.9943 31.1531 83.9943C31.9064 83.9943 32.7443 84.1851 33.4825 84.6614C34.2206 85.1386 34.8582 85.8985 35.2206 87.042L35.2212 87.0437C35.2358 87.0906 35.499 87.9574 35.4984 89.0858C35.4984 89.2113 35.4952 89.3403 35.4882 89.472L35.5518 89.4817L35.6154 89.4888C35.623 89.3527 35.6262 89.2193 35.6262 89.0894C35.6262 87.8858 35.3395 86.981 35.3376 86.9739C34.9612 85.7845 34.2956 84.9937 33.5365 84.5041C32.7768 84.0137 31.9217 83.8202 31.1531 83.8202C30.7672 83.8202 30.4029 83.8688 30.0831 83.9545C29.7633 84.0402 29.488 84.1613 29.2783 84.3106C28.7436 84.6932 28.1968 85.3551 27.7804 86.1839C27.3646 87.0119 27.0805 88.0087 27.0798 89.0584C27.0798 89.3757 27.1059 89.6973 27.1618 90.0199C27.5872 92.4349 28.3532 94.1933 28.3551 94.1977L28.4098 94.1518L28.3475 94.1703C28.4155 94.6113 28.4581 95.2537 28.4829 95.9474C28.5077 96.641 28.5154 97.3868 28.5154 98.0407C28.5154 98.5594 28.5103 99.0207 28.5058 99.352C28.5033 99.5173 28.5007 99.6507 28.4995 99.7426C28.4976 99.8345 28.4963 99.884 28.4963 99.884L28.4956 99.9158L28.5096 99.9414C28.7951 100.45 29.2891 100.944 29.8244 101.317C30.3597 101.69 30.9344 101.94 31.3889 101.941C31.4964 101.941 31.5975 101.927 31.6896 101.896C31.8899 101.829 32.0444 101.719 32.162 101.591C32.3387 101.399 32.4309 101.164 32.478 100.969C32.525 100.775 32.5288 100.62 32.5288 100.577V100.566V100.562L32.5085 100.326L32.4767 100.007L32.3305 98.502L32.2675 98.5135L32.2472 98.5974C32.2593 98.6027 32.2764 98.6124 32.3031 98.6133V98.5249L32.2853 98.6098C32.7138 98.7839 33.1086 98.8148 33.3343 98.8148C33.4564 98.8148 33.5289 98.8059 33.5308 98.8059L33.5498 98.8033L33.5651 98.7865C34.2873 97.9753 34.7953 97.2711 35.1246 96.588C35.4539 95.9049 35.6027 95.2404 35.602 94.5247C35.602 94.3992 35.5976 94.2728 35.5887 94.1447C35.5378 93.4201 35.5187 92.7733 35.5187 92.1742C35.5187 91.1942 35.5696 90.3424 35.6167 89.4897L35.5518 89.4817Z" fill="#3D5C9B"/>
<path d="M28.6953 92.0382C28.6953 92.0382 28.7023 92.0488 28.7157 92.0691C28.7608 92.1389 28.8746 92.3201 28.9763 92.5269C29.0787 92.7327 29.1677 92.966 29.167 93.1313C29.167 93.1569 29.1651 93.1807 29.1607 93.2028C29.1321 93.3495 29.0729 93.4335 29.0183 93.5174C28.9636 93.6005 28.9127 93.6862 28.9127 93.8285C28.9127 93.8965 28.9242 93.9769 28.9515 94.075C29.0876 94.5743 29.1747 94.781 29.1753 94.7819C29.1798 94.7925 29.1893 94.7961 29.1969 94.7899C29.2045 94.7837 29.2071 94.7704 29.2026 94.7598C29.2026 94.7598 29.1976 94.7474 29.1874 94.7209C29.1569 94.6405 29.0831 94.432 28.9814 94.0591C28.9553 93.9637 28.9452 93.8885 28.9452 93.8276C28.9452 93.7021 28.9878 93.6305 29.0424 93.5466C29.0965 93.4635 29.1613 93.3716 29.1918 93.2143C29.1969 93.1878 29.1995 93.1604 29.1995 93.1313C29.1988 92.9201 29.078 92.6435 28.9585 92.4146C28.839 92.1867 28.7195 92.009 28.7188 92.009C28.7131 92.0002 28.7029 91.9993 28.6966 92.0082C28.6896 92.0152 28.689 92.0294 28.6953 92.0382Z" fill="#273B63"/>
<path d="M35.1796 89.997C35.1796 89.997 34.7103 89.7911 34.0801 90.4089C34.0801 90.4089 34.1914 89.7045 34.5621 89.6187C34.9328 89.5339 35.1796 89.997 35.1796 89.997Z" fill="#273B63"/>
<path d="M32.6476 90.6219C32.6476 90.6219 32.3112 90.0544 31.819 90.1543C31.3268 90.2542 30.9548 90.5211 30.9548 90.5211C30.9548 90.5211 31.171 89.8538 31.6512 89.7035C32.1319 89.5541 32.516 89.9377 32.6476 90.6219Z" fill="#273B63"/>
<path d="M34.2474 91.7308C34.2302 92.0764 34.2957 92.3637 34.3943 92.3734C34.4928 92.3831 34.5869 92.1109 34.6047 91.7653C34.6219 91.4197 34.5564 91.1324 34.4579 91.1227C34.3593 91.1139 34.2645 91.3861 34.2474 91.7308Z" fill="#273B63"/>
<path d="M32.0857 92.1435C32.0686 92.489 32.1341 92.7763 32.2326 92.786C32.3312 92.7957 32.4253 92.5235 32.4431 92.1779C32.4603 91.8323 32.3948 91.5451 32.2962 91.5353C32.197 91.5256 32.1029 91.7979 32.0857 92.1435Z" fill="#273B63"/>
<path d="M33.6503 92.2061C33.6503 92.2061 33.6859 92.2927 33.74 92.4288C33.8208 92.633 33.9416 92.9503 34.0427 93.2561C34.1438 93.561 34.2233 93.8589 34.2233 94.0127C34.2233 94.0578 34.2163 94.0887 34.2055 94.1029C34.1692 94.1532 34.098 94.2089 34.0128 94.262C33.885 94.3406 33.7247 94.4149 33.5963 94.4679C33.5321 94.4944 33.4761 94.5165 33.436 94.5315C33.396 94.5466 33.3724 94.5554 33.3724 94.5554C33.3642 94.5581 33.3591 94.5704 33.361 94.5819C33.3629 94.5934 33.3718 94.6005 33.3801 94.5978C33.3801 94.5978 33.5511 94.5377 33.7425 94.4502C33.8379 94.406 33.9384 94.3556 34.0255 94.3026C34.1126 94.2487 34.1858 94.193 34.2277 94.1347C34.2481 94.1064 34.2551 94.064 34.2551 94.0127C34.2551 93.8978 34.2182 93.7299 34.1641 93.5372C34.002 92.9627 33.6783 92.184 33.6783 92.184C33.6739 92.1734 33.6643 92.1698 33.6567 92.176C33.6491 92.1813 33.6459 92.1955 33.6503 92.2061Z" fill="#273B63"/>
<path d="M33.465 95.4235C33.465 95.4235 33.4472 95.4271 33.4141 95.4306C33.381 95.4341 33.334 95.4377 33.2761 95.4377C33.0542 95.4377 32.6764 95.3838 32.3559 95.0717C32.3489 95.0647 32.3388 95.0673 32.3337 95.077C32.3286 95.0868 32.3305 95.1009 32.3375 95.108C32.6663 95.4271 33.0504 95.4819 33.2755 95.4819C33.3937 95.4819 33.4681 95.4668 33.4688 95.4668C33.4777 95.4651 33.4834 95.4536 33.4821 95.4421C33.4815 95.4306 33.4732 95.4218 33.465 95.4235Z" fill="#273B63"/>
<path d="M30.3463 88.0971C30.3463 88.0971 30.6178 88.8181 30.4697 90.4317C30.3215 92.0452 30.2472 91.462 30.1486 92.1831C30.0501 92.9041 30.3215 93.4537 29.9757 94.037C29.6299 94.621 30.1486 92.4915 29.0615 91.2208C27.9744 89.9501 28.2465 93.6932 28.5179 94.4143C28.7894 95.1353 29.2344 95.4101 29.2344 95.4101L28.5427 96.543C28.5427 96.543 25.2076 94.3453 25.3805 89.7097C25.5534 85.0741 27.5052 83.8034 27.5052 83.8034C27.5052 83.8034 29.1359 80.6099 33.2612 82.0865C37.3872 83.5631 36.8812 88.2614 36.8437 88.9542C36.7451 90.7745 35.4603 90.8081 35.4603 90.8081C35.4603 90.8081 35.5836 88.8853 34.6942 87.7516C34.6942 87.7516 34.4469 88.5416 33.5823 88.8508C32.7177 89.1601 33.1379 88.0609 33.3108 87.5801C33.3108 87.5801 32.8169 88.5071 32.026 88.5071C31.2358 88.5089 30.3463 88.0971 30.3463 88.0971Z" fill="#1C2A47"/>
<path d="M32.4449 100.338C32.0692 100.201 31.4881 99.8929 30.7653 99.2231C29.4334 97.9869 29.6546 95.6523 29.6546 95.6523C30.2236 97.5424 32.0266 98.366 32.0266 98.366L32.3032 98.525C32.2911 98.525 32.2796 98.5197 32.2676 98.5144L32.4138 100.02L32.4449 100.338Z" fill="#273B63"/>
<path d="M24.2853 103.389C26.0247 103.139 27.3489 105.769 29.0286 110.531C30.7082 115.293 32.487 122.573 32.487 122.573C32.487 122.573 40.4256 121.336 42.9946 118.498C42.9946 118.498 43.5547 115.614 43.9502 114.927C44.3456 114.241 45.1028 113.737 45.5974 113.37C46.0914 113.004 46.4207 112.638 46.4207 112.638L44.4772 119.826C44.4772 119.826 43.1593 121.52 42.4352 122.482C41.7104 123.443 33.9365 129.12 30.8404 128.021C27.7443 126.922 23.8898 115.614 23.462 112.867C23.0341 110.119 22.0455 103.709 24.2853 103.389Z" fill="#B5C4E2"/>
<path d="M24.2852 103.389L24.2915 103.476C24.3653 103.465 24.4378 103.46 24.5096 103.46C24.905 103.46 25.2782 103.617 25.6444 103.926C26.1937 104.388 26.7258 105.194 27.2694 106.313C27.8129 107.432 28.3692 108.864 28.9713 110.569C29.8098 112.945 30.6738 115.954 31.328 118.367C31.6554 119.574 31.93 120.632 32.1227 121.388C32.2193 121.767 32.295 122.07 32.3471 122.277C32.3992 122.486 32.4266 122.599 32.4266 122.599L32.4431 122.666L32.4939 122.658C32.4952 122.658 34.4813 122.349 36.7903 121.684C37.9448 121.351 39.1801 120.93 40.2895 120.413C41.3988 119.896 42.3817 119.284 43.0346 118.564L43.0512 118.547L43.0569 118.518C43.0569 118.518 43.0658 118.473 43.0817 118.394C43.1376 118.114 43.2838 117.404 43.4587 116.69C43.5458 116.333 43.6405 115.976 43.7339 115.671C43.8274 115.367 43.9215 115.115 44.0003 114.978C44.1904 114.648 44.4733 114.355 44.7702 114.1C45.0677 113.846 45.3792 113.628 45.6272 113.444C46.1263 113.074 46.4581 112.705 46.4607 112.703L46.4212 112.634L46.3615 112.603L44.418 119.792L44.4778 119.823L44.4345 119.758C44.4345 119.758 43.1166 121.452 42.3912 122.414C42.3537 122.464 42.2914 122.533 42.2082 122.614C41.8941 122.922 41.2844 123.42 40.4986 123.991C39.3193 124.847 37.7414 125.868 36.1533 126.674C34.5658 127.48 32.9669 128.071 31.7539 128.07C31.4227 128.07 31.1207 128.026 30.8563 127.932C30.1042 127.667 29.2879 126.765 28.4894 125.513C27.2904 123.636 26.1269 120.978 25.2255 118.534C24.7747 117.312 24.3888 116.144 24.0957 115.153C23.8027 114.163 23.603 113.349 23.5242 112.844C23.3036 111.43 22.9355 109.047 22.9361 107.034C22.9361 106.088 23.0181 105.225 23.2298 104.59C23.3354 104.272 23.4727 104.012 23.6463 103.822C23.8205 103.632 24.0315 103.51 24.2928 103.473L24.2852 103.389L24.2788 103.301C23.9966 103.341 23.7601 103.476 23.5668 103.687C23.2775 104.004 23.0887 104.485 22.9717 105.063C22.8548 105.641 22.8083 106.319 22.8083 107.039C22.8083 109.079 23.179 111.469 23.3996 112.885C23.5089 113.585 23.8306 114.807 24.3017 116.275C25.008 118.475 26.0487 121.218 27.2058 123.518C27.7843 124.669 28.3915 125.708 29.0024 126.514C29.6134 127.319 30.2275 127.894 30.8245 128.106C31.1023 128.205 31.4144 128.249 31.7533 128.249C32.6364 128.249 33.7031 127.947 34.8201 127.481C36.4953 126.783 38.2818 125.717 39.7128 124.743C40.4287 124.256 41.0549 123.791 41.5343 123.407C41.7739 123.215 41.9767 123.043 42.1363 122.897C42.2959 122.751 42.411 122.633 42.479 122.544C42.8407 122.064 43.3512 121.4 43.7715 120.856C43.9812 120.584 44.1688 120.343 44.3036 120.169C44.371 120.082 44.425 120.013 44.4625 119.964C44.5 119.915 44.5204 119.89 44.5204 119.89L44.5312 119.876L46.5611 112.367L46.3806 112.568L46.3774 112.571C46.3411 112.611 46.0258 112.951 45.5674 113.292C45.3214 113.474 45.0073 113.693 44.7035 113.953C44.3996 114.213 44.1059 114.515 43.9005 114.871C43.8465 114.964 43.7931 115.089 43.739 115.236C43.5496 115.753 43.3493 116.559 43.1948 117.24C43.041 117.92 42.9335 118.473 42.9335 118.474L42.9952 118.497L42.9558 118.428C42.3239 119.126 41.3512 119.735 40.2494 120.248C38.5965 121.018 36.653 121.578 35.124 121.944C34.3592 122.127 33.6981 122.262 33.2282 122.352C32.993 122.396 32.8061 122.429 32.6777 122.451C32.6135 122.462 32.5639 122.471 32.5308 122.476C32.4971 122.482 32.48 122.484 32.48 122.484L32.487 122.572L32.5473 122.543C32.5467 122.542 30.7685 115.262 29.0857 110.491C28.2815 108.211 27.558 106.418 26.8269 105.187C26.4613 104.572 26.0932 104.096 25.7105 103.774C25.3278 103.451 24.9298 103.283 24.5096 103.283C24.4333 103.283 24.3564 103.289 24.2788 103.3L24.2852 103.389Z" fill="#3D5C9B"/>
<path d="M29.5064 129.578C29.5064 129.578 27.6125 138.78 32.3558 143.451C37.0991 148.121 49.3531 137.682 53.701 130.54C53.701 130.54 60.3547 143.268 66.0205 147.113L68.7218 143.633C68.7218 143.633 61.0795 128.067 57.0609 124.495C53.0424 120.924 40.2613 127.883 40.2613 127.883C40.2613 127.883 32.8498 130.356 29.5064 129.578Z" fill="#3D5C9B"/>
<path d="M77.747 145.053C77.4832 144.961 77.2861 145.327 76.9892 145.418C76.6929 145.51 73.0037 147.25 71.455 147.708L68.7213 143.633L66.02 147.113L68.8046 150.214C69.0926 150.951 69.7035 152.364 70.5001 153.34C71.6203 154.713 72.5097 154.119 73.0037 153.615C73.4977 153.111 74.3871 151.738 75.2765 150.776C76.1659 149.815 77.4177 148.029 77.747 146.838C78.0763 145.648 78.0102 145.144 77.747 145.053Z" fill="#B5C4E2"/>
<path d="M77.7469 145.053L77.7622 144.967C77.7285 144.955 77.6948 144.949 77.6624 144.95C77.5963 144.95 77.5346 144.972 77.4768 145.004C77.3897 145.053 77.3102 145.122 77.2288 145.185C77.1474 145.249 77.0654 145.305 76.9758 145.333C76.9542 145.34 76.9217 145.352 76.8779 145.37C76.5479 145.505 75.5517 145.961 74.4557 146.436C73.3597 146.913 72.1638 147.408 71.4429 147.621L71.4562 147.708L71.5026 147.648L68.7251 143.509L65.9233 147.118L68.7651 150.283L68.8052 150.214L68.7492 150.256C69.0391 150.998 69.652 152.417 70.4581 153.407C70.9807 154.048 71.4632 154.275 71.8809 154.275C72.373 154.275 72.7684 153.964 73.0412 153.687C73.2948 153.428 73.64 152.958 74.0355 152.432C74.4303 151.906 74.874 151.324 75.3152 150.847C75.7634 150.362 76.3006 149.673 76.7685 148.953C77.2364 148.233 77.635 147.486 77.8061 146.871C77.9631 146.303 78.033 145.887 78.033 145.583C78.033 145.413 78.0108 145.276 77.9644 145.171C77.918 145.065 77.8448 144.996 77.7622 144.968L77.7469 145.053L77.7317 145.138C77.7876 145.159 77.8264 145.196 77.8563 145.262C77.8862 145.329 77.9065 145.432 77.9065 145.581C77.9072 145.847 77.8423 146.249 77.6878 146.806C77.5289 147.381 77.1373 148.122 76.6744 148.833C76.2116 149.544 75.6782 150.228 75.2376 150.705C74.7894 151.189 74.3438 151.775 73.9477 152.302C73.5529 152.829 73.2064 153.298 72.9661 153.543C72.7042 153.809 72.3336 154.098 71.8809 154.097C71.4969 154.096 71.0481 153.893 70.542 153.272C69.7563 152.309 69.1459 150.903 68.8605 150.171L68.8541 150.155L66.1172 147.107L68.7181 143.757L71.4333 147.804L71.4683 147.794C72.2477 147.563 73.5567 147.013 74.7106 146.51C75.2872 146.258 75.8251 146.017 76.2364 145.835C76.4424 145.743 76.6166 145.666 76.7488 145.608C76.8149 145.58 76.8703 145.556 76.9135 145.539C76.9567 145.521 76.9879 145.508 77.0031 145.504C77.1481 145.459 77.2663 145.357 77.3725 145.273C77.4253 145.231 77.4755 145.193 77.5238 145.167C77.5721 145.14 77.6172 145.125 77.6624 145.125C77.6846 145.125 77.7075 145.129 77.7317 145.137L77.7469 145.053Z" fill="#3D5C9B"/>
<path d="M51.3674 145.9C51.3674 145.9 50.806 148.844 50.4697 149.622C50.1328 150.399 48.8238 152.399 49.0482 153.566C49.2726 154.732 50.2116 155.198 51.7081 155.698C53.2047 156.198 53.4247 157.395 54.3599 157.895C55.295 158.396 56.3707 158.608 56.6327 158.33C56.8946 158.053 57.2913 158.284 57.7694 157.552C58.2697 156.784 57.2093 156.178 56.6492 155.514C56.2868 155.085 55.3338 153.787 54.2486 152.454C53.1634 151.12 54.2937 147.57 54.2937 147.57L51.3674 145.9Z" fill="#B5C4E2"/>
<path d="M51.3673 145.9L51.3057 145.877C51.3057 145.877 51.2968 145.923 51.2809 146.004C51.2249 146.291 51.0806 147.018 50.9134 147.758C50.8301 148.128 50.7405 148.501 50.6547 148.823C50.5688 149.145 50.4843 149.416 50.415 149.576C50.34 149.749 50.2116 149.993 50.0609 150.277C49.8352 150.703 49.5618 151.22 49.3431 151.745C49.1251 152.271 48.9591 152.804 48.9585 153.278C48.9585 153.384 48.9674 153.489 48.9865 153.589C49.045 153.893 49.1518 154.156 49.3012 154.38C49.5256 154.718 49.8435 154.973 50.2446 155.193C50.6458 155.412 51.1308 155.595 51.6928 155.784C52.4303 156.031 52.8467 156.444 53.2027 156.863C53.3807 157.074 53.5429 157.287 53.7215 157.48C53.9002 157.674 54.0953 157.848 54.3363 157.977C54.9962 158.329 55.7203 158.54 56.1984 158.541C56.302 158.541 56.3942 158.531 56.4737 158.509C56.5525 158.487 56.6192 158.454 56.6707 158.399C56.7267 158.34 56.7909 158.306 56.8685 158.279C56.9848 158.237 57.1285 158.214 57.2906 158.128C57.4527 158.042 57.6307 157.894 57.8157 157.61C57.9143 157.46 57.9632 157.302 57.9626 157.145C57.9626 156.97 57.9034 156.81 57.817 156.664C57.6867 156.444 57.4889 156.241 57.2817 156.041C57.0744 155.841 56.857 155.644 56.6898 155.445C56.5112 155.233 56.1818 154.801 55.7629 154.257C55.3439 153.712 54.8334 153.054 54.2905 152.386C54.1239 152.182 54.0127 151.922 53.9415 151.625C53.8703 151.329 53.841 150.996 53.841 150.652C53.841 149.936 53.9682 149.17 54.096 148.588C54.1602 148.296 54.2237 148.05 54.2721 147.877C54.2962 147.79 54.3159 147.722 54.3299 147.675C54.3369 147.652 54.3426 147.635 54.3458 147.622C54.3496 147.611 54.3515 147.604 54.3515 147.604L54.3782 147.521L51.3247 145.777L51.3063 145.874L51.3673 145.9L51.3432 145.981L54.2695 147.652L54.2937 147.571L54.2358 147.536C54.2352 147.538 54.1055 147.946 53.9752 148.539C53.8455 149.131 53.7145 149.909 53.7145 150.655C53.7145 151.013 53.7444 151.364 53.8213 151.684C53.8976 152.004 54.0216 152.294 54.2072 152.522C54.7489 153.187 55.2581 153.845 55.6771 154.389C56.096 154.933 56.4247 155.365 56.6084 155.583C56.8437 155.861 57.1571 156.123 57.4082 156.386C57.5341 156.518 57.6441 156.65 57.7197 156.778C57.796 156.908 57.8367 157.029 57.8361 157.147C57.8361 157.252 57.8055 157.364 57.7216 157.493C57.4902 157.846 57.2887 157.959 57.1037 158.026C57.0115 158.059 56.9231 158.079 56.8373 158.109C56.7521 158.139 56.6688 158.181 56.5932 158.26C56.5658 158.29 56.5162 158.319 56.4482 158.337C56.3808 158.356 56.2956 158.366 56.1977 158.366C55.7451 158.366 55.0273 158.159 54.3814 157.813C54.1551 157.692 53.972 157.529 53.7991 157.342C53.5403 157.062 53.3064 156.726 52.9942 156.41C52.6821 156.095 52.2904 155.802 51.7215 155.612C50.9745 155.363 50.3692 155.122 49.9286 154.804C49.708 154.645 49.5294 154.467 49.3927 154.261C49.256 154.055 49.1613 153.821 49.1073 153.543C49.0914 153.46 49.0837 153.372 49.0837 153.278C49.0837 153.002 49.1511 152.68 49.2605 152.345C49.4245 151.842 49.6801 151.308 49.9248 150.833C50.1696 150.359 50.4016 149.945 50.5218 149.668C50.6108 149.462 50.7087 149.131 50.8092 148.743C51.1105 147.581 51.4258 145.925 51.4265 145.923L51.3673 145.9L51.3432 145.981L51.3673 145.9Z" fill="#3D5C9B"/>
<path d="M56.2531 104.211L53.1424 116.71L52.5181 119.193C52.4748 119.359 52.3757 119.485 52.253 119.528L44.3118 122.413C44.1497 122.474 43.9997 122.381 43.9164 122.221C43.8414 122.089 43.8134 121.908 43.8573 121.726L44.2801 120.056L48.1498 104.282C48.2013 104.073 48.3355 103.93 48.4938 103.925L55.2492 103.546L55.878 103.513C56.1463 103.497 56.3402 103.86 56.2531 104.211Z" fill="#6C8AC5"/>
<path d="M56.2529 104.211L53.1422 116.71L52.5179 119.193C52.4747 119.359 52.3755 119.485 52.2528 119.528L44.3117 122.413C44.1496 122.474 43.9995 122.381 43.9163 122.221C45.3588 120.567 49.3042 115.848 51.9559 110.804C53.8453 107.211 54.7901 104.876 55.2484 103.547L55.8772 103.514C56.1461 103.497 56.34 103.86 56.2529 104.211Z" fill="#486DB7"/>
<path d="M54.6439 111.455C54.64 111.447 54.6343 111.439 54.6305 111.431C54.724 111.299 54.8467 111.073 54.7977 110.838C54.722 110.473 54.3342 110.242 53.7875 110.262C53.2408 110.282 52.9547 110.538 53.0691 110.695C53.1835 110.853 53.4881 111.05 53.8269 110.984L53.9038 111.113C53.7989 111.126 53.6877 111.149 53.5694 111.189C53.0386 111.37 52.7976 111.705 52.9331 111.825C53.0691 111.945 53.3965 112.048 53.7176 111.885L53.7932 111.967C53.7118 111.981 53.6273 112.001 53.5389 112.031C53.0081 112.211 52.7671 112.546 52.9025 112.666C53.0386 112.786 53.366 112.89 53.6871 112.726L53.8644 112.92C53.5618 113.054 53.2261 113.252 53.2853 113.405C53.3717 113.628 53.8657 113.68 53.8657 113.68L53.6559 114.59C53.6559 114.59 54.3107 114.16 54.5326 113.697C54.661 113.43 54.6222 113.149 54.5193 112.969C54.593 112.821 54.7049 112.535 54.6127 112.298C54.593 112.247 54.565 112.203 54.5326 112.162C54.6032 112.028 54.743 111.713 54.6439 111.455Z" fill="#B5C4E2"/>
<path d="M54.6439 111.455L54.6999 111.413C54.6941 111.399 54.689 111.39 54.6859 111.386L54.6833 111.381L54.6827 111.382L54.6833 111.381L54.6827 111.382L54.6833 111.381L54.6655 111.399L54.684 111.383L54.6833 111.381L54.6655 111.399L54.684 111.383L54.6299 111.43L54.6751 111.492C54.717 111.432 54.7647 111.356 54.8035 111.264C54.8416 111.172 54.8715 111.065 54.8715 110.946C54.8715 110.902 54.8671 110.857 54.8582 110.812C54.8365 110.708 54.7939 110.615 54.7355 110.536C54.6471 110.416 54.5244 110.326 54.3756 110.265C54.2262 110.204 54.0501 110.171 53.853 110.171C53.8308 110.171 53.8085 110.171 53.7863 110.172C53.5472 110.181 53.3552 110.233 53.2186 110.307C53.1499 110.344 53.0952 110.385 53.0539 110.434C53.0336 110.459 53.0158 110.485 53.003 110.515C52.9903 110.545 52.9814 110.581 52.9814 110.619C52.9808 110.671 52.9992 110.721 53.0253 110.756C53.0838 110.836 53.1747 110.915 53.2898 110.978C53.4042 111.04 53.5428 111.084 53.6935 111.084C53.7405 111.084 53.7882 111.08 53.8365 111.071L53.8276 110.984L53.7787 111.04L53.8556 111.169L53.9045 111.113L53.8995 111.024C53.7914 111.037 53.6769 111.06 53.5549 111.102C53.333 111.177 53.1588 111.28 53.0367 111.386C52.9757 111.439 52.9274 111.493 52.8924 111.55C52.8746 111.578 52.8606 111.607 52.8498 111.638C52.8397 111.669 52.8327 111.702 52.8327 111.737C52.8327 111.769 52.839 111.802 52.8511 111.83C52.8632 111.858 52.8803 111.88 52.8994 111.898C52.9496 111.942 53.017 111.981 53.0965 112.009C53.176 112.038 53.2688 112.056 53.368 112.056C53.4849 112.056 53.6127 112.031 53.7392 111.966L53.7176 111.883L53.6782 111.953L53.7539 112.035L53.7933 111.965L53.7856 111.878C53.7024 111.892 53.6159 111.911 53.5237 111.943C53.3018 112.018 53.1276 112.121 53.0056 112.227C52.9446 112.28 52.8962 112.335 52.8613 112.391C52.8435 112.419 52.8295 112.449 52.8187 112.48C52.8085 112.51 52.8015 112.543 52.8015 112.579C52.8015 112.61 52.8079 112.643 52.8199 112.671C52.832 112.7 52.8492 112.722 52.8683 112.739C52.9185 112.784 52.9859 112.822 53.0653 112.851C53.1448 112.879 53.2376 112.898 53.3368 112.898C53.4538 112.898 53.5816 112.872 53.7081 112.807L53.6865 112.724L53.6471 112.794L53.8244 112.989L53.8638 112.919L53.8448 112.835C53.703 112.898 53.5549 112.974 53.4379 113.055C53.3794 113.096 53.3285 113.138 53.2891 113.185C53.2694 113.209 53.2523 113.232 53.2383 113.262C53.2249 113.291 53.2141 113.326 53.2141 113.366C53.2141 113.392 53.2192 113.421 53.2287 113.444C53.2453 113.487 53.2694 113.521 53.2961 113.549C53.3432 113.597 53.401 113.632 53.4614 113.66C53.6432 113.743 53.8575 113.764 53.86 113.765L53.8645 113.677L53.8041 113.649L53.5492 114.753L53.6814 114.667C53.6827 114.666 53.8479 114.557 54.0431 114.389C54.2377 114.22 54.4621 113.996 54.5841 113.743C54.6477 113.611 54.6763 113.471 54.6757 113.339C54.6757 113.175 54.6331 113.026 54.5676 112.912L54.518 112.966L54.5702 113.017C54.5988 112.959 54.6331 112.882 54.6604 112.792C54.6878 112.703 54.7094 112.601 54.7094 112.493C54.7094 112.414 54.6973 112.331 54.6674 112.253C54.6426 112.191 54.6096 112.139 54.574 112.095L54.5314 112.161L54.5829 112.213C54.6115 112.159 54.6496 112.078 54.6821 111.982C54.7138 111.886 54.7405 111.773 54.7405 111.652C54.7405 111.572 54.7285 111.49 54.6986 111.412L54.6439 111.455L54.588 111.497C54.607 111.546 54.6147 111.598 54.6147 111.652C54.6147 111.736 54.595 111.827 54.5676 111.909C54.5403 111.99 54.5059 112.062 54.4812 112.109L54.4468 112.174L54.4894 112.228C54.5187 112.264 54.5416 112.3 54.5562 112.339C54.5752 112.389 54.5829 112.44 54.5829 112.495C54.5829 112.57 54.567 112.65 54.5441 112.724C54.5212 112.799 54.4913 112.867 54.4659 112.918L54.4392 112.972L54.4684 113.023C54.5174 113.108 54.5492 113.22 54.5492 113.34C54.5492 113.437 54.5295 113.541 54.4786 113.646C54.3788 113.856 54.1639 114.079 53.9764 114.24C53.8823 114.321 53.7946 114.388 53.731 114.435C53.6992 114.458 53.6731 114.477 53.6553 114.489C53.6464 114.495 53.6394 114.5 53.635 114.503L53.628 114.508L53.6553 114.587L53.7157 114.614L53.9503 113.597L53.8702 113.589L53.8651 113.589C53.8397 113.586 53.7183 113.569 53.5968 113.529C53.5364 113.51 53.4754 113.483 53.4284 113.452C53.3807 113.422 53.3495 113.384 53.3406 113.361L53.333 113.366H53.3413L53.3406 113.361L53.333 113.366H53.3413H53.3349L53.3413 113.368V113.366H53.3349L53.3413 113.368L53.3425 113.364C53.3457 113.353 53.3648 113.323 53.3972 113.292C53.4455 113.244 53.5212 113.192 53.607 113.141C53.6928 113.092 53.7895 113.044 53.8836 113.003L53.998 112.952L53.6979 112.624L53.6649 112.641C53.5536 112.698 53.4411 112.72 53.3368 112.72C53.2484 112.72 53.1664 112.704 53.0971 112.679C53.0278 112.655 52.9713 112.621 52.9363 112.59C52.9306 112.585 52.9293 112.581 52.9287 112.581V112.579C52.9287 112.576 52.9293 112.568 52.9337 112.556C52.9414 112.533 52.9598 112.499 52.9903 112.462C53.0825 112.348 53.2764 112.209 53.5536 112.115C53.6394 112.086 53.7208 112.068 53.8009 112.054L53.9522 112.027L53.7291 111.783L53.696 111.8C53.5848 111.857 53.4722 111.879 53.368 111.879C53.2796 111.879 53.1976 111.863 53.1283 111.838C53.059 111.813 53.0024 111.78 52.9674 111.749C52.9617 111.743 52.9604 111.74 52.9598 111.74V111.737C52.9598 111.735 52.9604 111.727 52.9649 111.714C52.9725 111.692 52.991 111.658 53.0215 111.621C53.1137 111.507 53.3076 111.368 53.5848 111.274C53.6998 111.235 53.8079 111.212 53.9096 111.201L54.031 111.187L53.8537 110.889L53.8187 110.896C53.7761 110.904 53.7342 110.908 53.6928 110.908C53.5606 110.908 53.4366 110.869 53.3355 110.814C53.2345 110.759 53.155 110.687 53.1143 110.631C53.1067 110.619 53.1086 110.619 53.1079 110.619C53.1079 110.619 53.1079 110.615 53.1118 110.606C53.1181 110.59 53.1385 110.561 53.1722 110.533C53.223 110.49 53.3031 110.445 53.4074 110.412C53.5116 110.378 53.6401 110.354 53.7895 110.349C53.8111 110.348 53.8321 110.348 53.853 110.348C54.1022 110.348 54.312 110.404 54.464 110.498C54.5403 110.544 54.6013 110.6 54.6465 110.662C54.6916 110.724 54.7215 110.79 54.7361 110.862C54.7418 110.891 54.745 110.919 54.745 110.947C54.745 111.023 54.7253 111.102 54.6941 111.175C54.663 111.249 54.6217 111.317 54.5848 111.369L54.5492 111.418L54.5759 111.477C54.5816 111.49 54.5861 111.496 54.588 111.5L54.5892 111.501L54.6096 111.48L54.5873 111.497L54.5892 111.501L54.6096 111.48L54.5873 111.497L54.6439 111.455Z" fill="#3D5C9B"/>
<path d="M52.3285 112.589C52.1066 113.61 51.5058 114.261 50.9864 114.043C50.467 113.824 50.2267 112.821 50.4486 111.799C50.6705 110.779 51.2712 110.127 51.7906 110.346C52.3101 110.564 52.5504 111.569 52.3285 112.589Z" fill="#486DB7"/>
<path d="M75.6255 153.631C74.0049 163.361 66.7358 170.107 53.7666 171.333C27.5795 173.806 13.1519 171.608 8.01317 154.301C6.85103 150.389 6.40028 145.334 6.46386 139.812C8.44039 140.912 12.1201 143.916 16.1164 151.965C22.0454 163.915 34.0025 169.959 48.4308 167.349C62.4706 164.812 70.9928 162.01 75.6255 153.631Z" fill="#65BAA6"/>
</svg>
